SplineFontDB: 3.0
FontName: Uni1E800Mende
FullName: Uni1E800Mende
FamilyName: Uni1E800Mende
Weight: Book
Copyright: Copyright (c) 2007 by Jason Glavy and Michael Everson. All rights reserved.
Version: 5.201
ItalicAngle: 0
UnderlinePosition: -273
UnderlineWidth: 100
Ascent: 1638
Descent: 410
InvalidEm: 0
sfntRevision: 0x00053375
LayerCount: 2
Layer: 0 1 "Back" 1
Layer: 1 1 "Fore" 0
XUID: [1021 984 -1507811681 15700398]
StyleMap: 0x0040
FSType: 0
OS2Version: 3
OS2_WeightWidthSlopeOnly: 0
OS2_UseTypoMetrics: 0
CreationTime: 1280218200
ModificationTime: 1351198721
PfmFamily: 17
TTFWeight: 400
TTFWidth: 5
LineGap: 87
VLineGap: 0
Panose: 2 0 4 0 0 0 0 0 0 0
OS2TypoAscent: 1825
OS2TypoAOffset: 0
OS2TypoDescent: -443
OS2TypoDOffset: 0
OS2TypoLinegap: 87
OS2WinAscent: 1825
OS2WinAOffset: 0
OS2WinDescent: 479
OS2WinDOffset: 0
HheadAscent: 1825
HheadAOffset: 0
HheadDescent: -443
HheadDOffset: 0
OS2SubXSize: 1434
OS2SubYSize: 1331
OS2SubXOff: 0
OS2SubYOff: 293
OS2SupXSize: 1434
OS2SupYSize: 1331
OS2SupXOff: 0
OS2SupYOff: 928
OS2StrikeYSize: 102
OS2StrikeYPos: 530
OS2CapHeight: 1356
OS2XHeight: 928
OS2Vendor: 'EVER'
OS2CodePages: 00000000.00000000
OS2UnicodeRanges: 00000001.10000000.00000000.00000000
DEI: 91125
TtTable: prep
PUSHW_1
 20
CALL
SVTCA[x-axis]
PUSHW_3
 5
 939
 22
CALL
SVTCA[x-axis]
PUSHW_8
 941
 92
 79
 62
 44
 27
 0
 28
CALL
PUSHW_8
 942
 100
 79
 62
 44
 27
 0
 28
CALL
PUSHW_8
 943
 46
 38
 30
 21
 13
 0
 28
CALL
SVTCA[y-axis]
PUSHW_8
 937
 92
 79
 62
 44
 27
 0
 28
CALL
PUSHW_8
 938
 101
 79
 62
 44
 27
 0
 28
CALL
PUSHW_8
 939
 46
 38
 30
 21
 13
 0
 28
CALL
PUSHW_8
 940
 30
 24
 19
 14
 8
 0
 28
CALL
SVTCA[y-axis]
PUSHW_3
 944
 4
 27
CALL
PUSHW_1
 936
DUP
RCVT
RDTG
ROUND[Black]
RTG
WCVTP
PUSHW_1
 10
CALL
NPUSHB
 31
 18
 18
 17
 17
 16
 16
 15
 15
 14
 14
 13
 13
 12
 12
 11
 11
 10
 10
 9
 9
 8
 8
 3
 3
 2
 2
 1
 1
 0
 0
 1
SCANTYPE
PUSHW_1
 511
SCANCTRL
RCVT
ROUND[Grey]
WCVTP
RCVT
ROUND[Grey]
WCVTP
RCVT
ROUND[Grey]
WCVTP
RCVT
ROUND[Grey]
WCVTP
RCVT
ROUND[Grey]

StartChar: quotedbl
Encoding: 34 34 1
Width: 836
Flags: W
LayerCount: 2
Fore
SplineSet
702 1280 m 256,0,1
 702 1173 702 1173 675 1040 c 0,2,3
 659 961 659 961 626 803 c 1,4,-1
 578 803 l 1,5,-1
 532 1029 l 2,6,7
 500 1191 500 1191 500 1266 c 0,8,9
 500 1387 500 1387 602 1387 c 0,10,11
 702 1387 702 1387 702 1280 c 256,0,1
335 1279 m 0,12,13
 335 1183 335 1183 305 1040 c 2,14,-1
 255 803 l 1,15,-1
 212 803 l 1,16,-1
 162 1033 l 2,17,18
 135 1164 135 1164 135 1265 c 0,19,20
 135 1387 135 1387 233 1387 c 0,21,22
 335 1387 335 1387 335 1279 c 0,12,13
EndSplineSet
EndChar

StartChar: numbersign
Encoding: 35 35 2
Width: 1024
Flags: W
LayerCount: 2
Fore
SplineSet
998 965 m 1,0,-1
 959 844 l 1,1,-1
 819 844 l 1,2,-1
 721 535 l 1,3,-1
 866 535 l 1,4,-1
 829 412 l 1,5,-1
 685 412 l 1,6,-1
 540 -63 l 1,7,-1
 413 -63 l 1,8,-1
 557 412 l 1,9,-1
 309 412 l 1,10,-1
 164 -63 l 1,11,-1
 39 -63 l 1,12,-1
 179 412 l 1,13,-1
 26 412 l 1,14,-1
 65 535 l 1,15,-1
 216 535 l 1,16,-1
 309 844 l 1,17,-1
 158 844 l 1,18,-1
 195 965 l 1,19,-1
 346 965 l 1,20,-1
 477 1401 l 1,21,-1
 603 1401 l 1,22,-1
 477 965 l 1,23,-1
 726 965 l 1,24,-1
 851 1401 l 1,25,-1
 978 1401 l 1,26,-1
 851 965 l 1,27,-1
 998 965 l 1,0,-1
685 844 m 1,28,-1
 439 844 l 1,29,-1
 346 535 l 1,30,-1
 596 535 l 1,31,-1
 685 844 l 1,28,-1
EndSplineSet
EndChar

StartChar: dollar
Encoding: 36 36 3
Width: 1024
Flags: W
LayerCount: 2
Fore
SplineSet
968 339 m 0,0,1
 968 174 968 174 842 71 c 0,2,3
 727 -24 727 -24 557 -30 c 1,4,-1
 556 -147 l 1,5,-1
 474 -147 l 1,6,-1
 474 -27 l 1,7,8
 441 -22 441 -22 343 13 c 0,9,10
 254 45 254 45 231 45 c 0,11,12
 182 45 182 45 173 -22 c 1,13,-1
 117 -22 l 1,14,-1
 56 419 l 1,15,-1
 117 419 l 1,16,17
 232 98 232 98 475 66 c 1,18,-1
 475 597 l 1,19,20
 299 699 299 699 232 762 c 0,21,22
 113 875 113 875 113 1019 c 1,23,-1
 117 1030 l 1,24,25
 117 1182 117 1182 220.5 1282 c 128,-1,26
 324 1382 324 1382 476 1382 c 1,27,-1
 477 1501 l 1,28,-1
 559 1501 l 1,29,-1
 558 1370 l 1,30,-1
 659 1334 l 2,31,32
 720 1313 720 1313 762 1313 c 0,33,34
 818 1313 818 1313 840 1380 c 1,35,-1
 890 1380 l 1,36,-1
 931 937 l 1,37,-1
 875 937 l 1,38,39
 765 1251 765 1251 558 1281 c 1,40,-1
 558 821 l 1,41,42
 768 691 768 691 832 631 c 0,43,44
 968 503 968 503 968 339 c 0,0,1
476 874 m 1,45,-1
 476 1282 l 1,46,47
 403 1271 403 1271 355 1222 c 0,48,49
 303 1170 303 1170 303 1099 c 0,50,51
 303 992 303 992 476 874 c 1,45,-1
756 287 m 0,52,53
 756 424 756 424 557 548 c 1,54,-1
 557 64 l 1,55,56
 647 74 647 74 701.5 135.5 c 128,-1,57
 756 197 756 197 756 287 c 0,52,53
EndSplineSet
EndChar

StartChar: percent
Encoding: 37 37 4
Width: 1706
Flags: W
LayerCount: 2
Fore
SplineSet
1487 449 m 0,0,1
 1487 285 1487 285 1403 143 c 0,2,3
 1305 -22 1305 -22 1152 -22 c 0,4,5
 1038 -22 1038 -22 967 62 c 0,6,7
 899 141 899 141 899 257 c 0,8,9
 899 420 899 420 1009 556 c 0,10,11
 1126 700 1126 700 1286 700 c 0,12,13
 1487 700 1487 700 1487 449 c 0,0,1
1368 1453 m 1,14,-1
 455 -78 l 1,15,-1
 338 -78 l 1,16,-1
 1156 1285 l 1,17,18
 1033 1220 1033 1220 910 1220 c 0,19,20
 857 1220 857 1220 807 1231 c 1,21,22
 815 1188 815 1188 815 1144 c 0,23,24
 815 990 815 990 722 840 c 0,25,26
 616 669 616 669 472 669 c 0,27,28
 359 669 359 669 287 757 c 0,29,30
 219 839 219 839 219 954 c 0,31,32
 219 1119 219 1119 333 1256 c 0,33,34
 453 1401 453 1401 614 1401 c 0,35,36
 661 1401 661 1401 747 1345 c 128,-1,37
 833 1289 833 1289 910 1289 c 0,38,39
 1070 1289 1070 1289 1286 1453 c 1,40,-1
 1368 1453 l 1,14,-1
744 1149 m 0,41,42
 744 1196 744 1196 718 1257 c 1,43,44
 700 1273 700 1273 630 1315 c 1,45,46
 522 1291 522 1291 450 1138 c 0,47,48
 388 1006 388 1006 388 881 c 1,49,-1
 383 870 l 1,50,51
 383 821 383 821 415 786 c 128,-1,52
 447 751 447 751 496 751 c 1,53,-1
 496 747 l 1,54,55
 601 747 601 747 678 900 c 0,56,57
 744 1031 744 1031 744 1149 c 0,41,42
1420 453 m 0,58,59
 1420 519 1420 519 1394 563 c 0,60,61
 1362 618 1362 618 1301 618 c 0,62,63
 1228 618 1228 618 1155 492 c 0,64,65
 1068 341 1068 341 1068 181 c 0,66,67
 1068 56 1068 56 1167 56 c 0,68,69
 1280 56 1280 56 1356 204 c 0,70,71
 1420 328 1420 328 1420 453 c 0,58,59
EndSplineSet
EndChar

StartChar: ampersand
Encoding: 38 38 5
Width: 1593
Flags: W
LayerCount: 2
Fore
SplineSet
1538 220 m 1,0,1
 1481 100 1481 100 1415 45 c 0,2,3
 1334 -22 1334 -22 1214 -22 c 0,4,5
 1120 -22 1120 -22 1029 35 c 0,6,7
 968 73 968 73 877 160 c 1,8,9
 638 -30 638 -30 420 -30 c 0,10,11
 261 -30 261 -30 162 48 c 0,12,13
 55 134 55 134 55 289 c 0,14,15
 55 459 55 459 192 594 c 0,16,17
 288 689 288 689 480 784 c 1,18,19
 400 937 400 937 400 1086 c 0,20,21
 400 1231 400 1231 489 1316 c 128,-1,22
 578 1401 578 1401 724 1401 c 0,23,24
 843 1401 843 1401 923 1333 c 0,25,26
 1007 1261 1007 1261 1007 1144 c 0,27,28
 1007 945 1007 945 692 799 c 1,29,30
 788 634 788 634 955 382 c 1,31,32
 1020 465 1020 465 1070 563 c 0,33,34
 1132 685 1132 685 1132 762 c 0,35,36
 1132 843 1132 843 1039 846 c 1,37,-1
 1039 892 l 1,38,-1
 1439 892 l 1,39,-1
 1439 846 l 1,40,41
 1345 843 1345 843 1283 758 c 0,42,43
 1271 742 1271 742 1219 643 c 0,44,45
 1125 464 1125 464 1014 315 c 1,46,47
 1195 138 1195 138 1322 138 c 0,48,49
 1412 138 1412 138 1506 246 c 1,50,-1
 1538 220 l 1,0,1
884 1155 m 0,51,52
 884 1227 884 1227 848 1277 c 0,53,54
 808 1334 808 1334 739 1334 c 0,55,56
 660 1334 660 1334 619 1265 c 0,57,58
 586 1207 586 1207 586 1123 c 256,59,60
 586 1039 586 1039 662 877 c 1,61,62
 884 989 884 989 884 1155 c 0,51,52
811 227 m 1,63,64
 627 463 627 463 506 700 c 1,65,66
 271 562 271 562 271 367 c 0,67,68
 271 258 271 258 352.5 175.5 c 128,-1,69
 434 93 434 93 543 93 c 0,70,71
 681 93 681 93 811 227 c 1,63,64
EndSplineSet
EndChar

StartChar: quotesingle
Encoding: 39 39 6
Width: 369
Flags: W
LayerCount: 2
Fore
SplineSet
285 1280 m 0,0,1
 285 1178 285 1178 256 1040 c 0,2,3
 239 961 239 961 205 803 c 1,4,-1
 161 803 l 1,5,6
 145 880 145 880 112 1033 c 0,7,8
 84 1167 84 1167 84 1265 c 0,9,10
 84 1387 84 1387 181 1387 c 0,11,12
 227 1387 227 1387 256 1356.5 c 128,-1,13
 285 1326 285 1326 285 1280 c 0,0,1
EndSplineSet
EndChar

StartChar: parenleft
Encoding: 40 40 7
Width: 682
Flags: W
LayerCount: 2
Fore
SplineSet
609 1334 m 1,0,1
 402 1178 402 1178 323 958 c 0,2,3
 259 780 259 780 259 486 c 0,4,5
 259 205 259 205 326 27 c 0,6,7
 405 -182 405 -182 604 -339 c 1,8,-1
 574 -380 l 1,9,10
 73 -56 73 -56 73 505 c 0,11,12
 73 1070 73 1070 579 1382 c 1,13,-1
 609 1334 l 1,0,1
EndSplineSet
EndChar

StartChar: parenright
Encoding: 41 41 8
Width: 682
Flags: W
LayerCount: 2
Fore
SplineSet
606 510 m 0,0,1
 606 -38 606 -38 107 -382 c 1,2,-1
 81 -335 l 1,3,4
 284 -158 284 -158 355 34 c 0,5,6
 415 196 415 196 415 490 c 0,7,8
 415 796 415 796 356 959 c 0,9,10
 285 1156 285 1156 76 1339 c 1,11,-1
 105 1380 l 1,12,13
 339 1238 339 1238 471 1011 c 0,14,15
 606 780 606 780 606 510 c 0,0,1
EndSplineSet
EndChar

StartChar: asterisk
Encoding: 42 42 9
Width: 1024
Flags: W
LayerCount: 2
Fore
SplineSet
893 762 m 0,0,1
 893 737 893 737 869.5 718.5 c 128,-1,2
 846 700 846 700 820 700 c 0,3,4
 769 700 769 700 723 751 c 0,5,6
 699 780 699 780 649 838 c 0,7,8
 639 849 639 849 545 911 c 1,9,10
 545 902 545 902 543 883 c 128,-1,11
 541 864 541 864 541 855 c 0,12,13
 541 811 541 811 569 726.5 c 128,-1,14
 597 642 597 642 597 598 c 0,15,16
 597 567 597 567 572.5 543.5 c 128,-1,17
 548 520 548 520 517 520 c 256,18,19
 486 520 486 520 462 545.5 c 128,-1,20
 438 571 438 571 438 602 c 1,21,-1
 433 613 l 1,22,23
 434 635 434 635 455 700 c 0,24,25
 491 812 491 812 491 907 c 1,26,27
 404 860 404 860 325 769 c 0,28,29
 267 702 267 702 217 702 c 0,30,31
 184 702 184 702 159.5 723 c 128,-1,32
 135 744 135 744 135 777 c 1,33,-1
 131 779 l 1,34,35
 131 860 131 860 280 881 c 0,36,37
 356 892 356 892 466 952 c 1,38,39
 409 986 409 986 375 995 c 0,40,41
 326 1006 326 1006 228.5 1032.5 c 128,-1,42
 131 1059 131 1059 131 1123 c 1,43,-1
 135 1129 l 1,44,45
 135 1201 135 1201 213 1201 c 0,46,47
 264 1201 264 1201 315 1147 c 0,48,49
 317 1145 317 1145 396 1058 c 0,50,51
 413 1044 413 1044 491 995 c 1,52,53
 491 1107 491 1107 459 1201 c 0,54,55
 450 1229 450 1229 438 1283 c 1,56,-1
 433 1289 l 1,57,58
 433 1325 433 1325 457.5 1353.5 c 128,-1,59
 482 1382 482 1382 517 1382 c 0,60,61
 597 1382 597 1382 597 1289 c 0,62,63
 597 1242 597 1242 569 1144 c 128,-1,64
 541 1046 541 1046 541 995 c 1,65,66
 640 1055 640 1055 701 1123 c 0,67,68
 775 1205 775 1205 824 1205 c 0,69,70
 893 1205 893 1205 893 1123 c 0,71,72
 893 1067 893 1067 842 1043 c 0,73,74
 805 1026 805 1026 711 1003 c 0,75,76
 624 981 624 981 571 952 c 1,77,78
 649 902 649 902 744 881 c 0,79,80
 823 863 823 863 846 850 c 0,81,82
 893 823 893 823 893 762 c 0,0,1
EndSplineSet
EndChar

StartChar: plus
Encoding: 43 43 10
Width: 1155
Flags: W
LayerCount: 2
Fore
SplineSet
1113 551 m 1,0,-1
 633 551 l 1,1,-1
 633 70 l 1,2,-1
 522 70 l 1,3,-1
 522 551 l 1,4,-1
 42 551 l 1,5,-1
 42 661 l 1,6,-1
 522 661 l 1,7,-1
 522 1142 l 1,8,-1
 633 1142 l 1,9,-1
 633 661 l 1,10,-1
 1113 661 l 1,11,-1
 1113 551 l 1,0,-1
EndSplineSet
EndChar

StartChar: comma
Encoding: 44 44 11
Width: 512
Flags: W
LayerCount: 2
Fore
SplineSet
404 19 m 0,0,1
 404 -189 404 -189 125 -324 c 1,2,-1
 110 -279 l 1,3,4
 320 -147 320 -147 320 -30 c 1,5,6
 311 -6 311 -6 294 -6 c 0,7,8
 281 -6 281 -6 255 -10.5 c 128,-1,9
 229 -15 229 -15 216 -15 c 0,10,11
 173 -15 173 -15 140.5 17.5 c 128,-1,12
 108 50 108 50 108 93 c 0,13,14
 108 148 108 148 149 181 c 0,15,16
 186 212 186 212 242 212 c 0,17,18
 318 212 318 212 363 152 c 0,19,20
 404 98 404 98 404 19 c 0,0,1
EndSplineSet
EndChar

StartChar: period
Encoding: 46 46 12
Width: 512
Flags: W
LayerCount: 2
Fore
SplineSet
375 99 m 0,0,1
 375 50 375 50 340 14 c 128,-1,2
 305 -22 305 -22 256 -22 c 0,3,4
 209 -22 209 -22 173 12.5 c 128,-1,5
 137 47 137 47 137 93 c 0,6,7
 137 140 137 140 173 176 c 128,-1,8
 209 212 209 212 256 212 c 256,9,10
 303 212 303 212 339 179 c 128,-1,11
 375 146 375 146 375 99 c 0,0,1
EndSplineSet
EndChar

StartChar: slash
Encoding: 47 47 13
Width: 569
Flags: W
LayerCount: 2
Fore
SplineSet
563 1412 m 1,0,-1
 107 -22 l 1,1,-1
 6 -22 l 1,2,-1
 455 1412 l 1,3,-1
 563 1412 l 1,0,-1
EndSplineSet
EndChar

StartChar: zero
Encoding: 48 48 14
Width: 1024
Flags: W
LayerCount: 2
Fore
SplineSet
981 700 m 0,0,1
 981 418 981 418 884 226 c 0,2,3
 759 -22 759 -22 506 -22 c 0,4,5
 273 -22 273 -22 145 228 c 0,6,7
 43 428 43 428 43 687 c 0,8,9
 43 953 43 953 146 1151 c 0,10,11
 274 1397 274 1397 516 1397 c 0,12,13
 754 1397 754 1397 880 1155 c 0,14,15
 981 961 981 961 981 700 c 0,0,1
775 687 m 0,16,17
 775 1319 775 1319 512 1319 c 0,18,19
 253 1319 253 1319 253 734 c 0,20,21
 253 52 253 52 521 52 c 0,22,23
 675 52 675 52 728 257 c 0,24,25
 775 440 775 440 775 687 c 0,16,17
EndSplineSet
EndChar

StartChar: one
Encoding: 49 49 15
Width: 1024
Flags: W
LayerCount: 2
Fore
SplineSet
805 0 m 1,0,-1
 232 0 l 1,1,-1
 232 41 l 1,2,3
 338 41 338 41 379 72 c 0,4,5
 425 109 425 109 425 212 c 2,6,-1
 425 1112 l 2,7,8
 425 1201 425 1201 362 1201 c 0,9,10
 337 1201 337 1201 219 1155 c 1,11,-1
 219 1196 l 1,12,-1
 610 1397 l 1,13,-1
 610 201 l 2,14,15
 610 99 610 99 660 67 c 0,16,17
 693 46 693 46 805 41 c 1,18,-1
 805 0 l 1,0,-1
EndSplineSet
EndChar

StartChar: two
Encoding: 50 50 16
Width: 1024
Flags: W
LayerCount: 2
Fore
SplineSet
959 283 m 1,0,-1
 864 0 l 1,1,-1
 65 0 l 1,2,-1
 65 32 l 1,3,-1
 242 220 l 2,4,5
 491 484 491 484 537 545 c 0,6,7
 696 754 696 754 696 939 c 0,8,9
 696 1068 696 1068 622 1148 c 0,10,11
 545 1231 545 1231 417 1231 c 0,12,13
 302 1231 302 1231 225 1150 c 0,14,15
 168 1090 168 1090 117 965 c 1,16,-1
 76 978 l 1,17,18
 147 1393 147 1393 514 1393 c 0,19,20
 679 1393 679 1393 780 1287 c 128,-1,21
 881 1181 881 1181 881 1015 c 0,22,23
 881 832 881 832 657 559 c 0,24,25
 542 419 542 419 287 175 c 1,26,-1
 674 175 l 2,27,28
 677 175 677 175 683.5 173 c 128,-1,29
 690 171 690 171 693 171 c 0,30,31
 848 171 848 171 916 298 c 1,32,-1
 959 283 l 1,0,-1
EndSplineSet
EndChar

StartChar: three
Encoding: 51 51 17
Width: 1024
Flags: W
LayerCount: 2
Fore
SplineSet
924 458 m 0,0,1
 924 234 924 234 749 100 c 0,2,3
 589 -22 589 -22 359 -22 c 0,4,5
 270 -22 270 -22 198 6 c 0,6,7
 102 44 102 44 102 119 c 0,8,9
 102 172 102 172 127 191 c 0,10,11
 148 207 148 207 203 207 c 0,12,13
 231 207 231 207 273 172 c 0,14,15
 331 124 331 124 362 107 c 0,16,17
 429 71 429 71 512 71 c 0,18,19
 625 71 625 71 697 156 c 0,20,21
 765 237 765 237 765 352 c 0,22,23
 765 504 765 504 666.5 594 c 128,-1,24
 568 684 568 684 415 684 c 0,25,26
 390 684 390 684 326 680 c 1,27,-1
 326 721 l 1,28,29
 678 835 678 835 678 1036 c 0,30,31
 678 1138 678 1138 598 1198 c 0,32,33
 527 1252 527 1252 421 1252 c 0,34,35
 306 1252 306 1252 241 1197 c 0,36,37
 188 1152 188 1152 136 1036 c 1,38,-1
 100 1056 l 1,39,40
 177 1401 177 1401 514 1401 c 0,41,42
 650 1401 650 1401 745 1329 c 0,43,44
 849 1250 849 1250 849 1118 c 0,45,46
 849 954 849 954 678 836 c 1,47,48
 924 713 924 713 924 458 c 0,0,1
EndSplineSet
EndChar

StartChar: four
Encoding: 52 52 18
Width: 1024
Flags: W
LayerCount: 2
Fore
SplineSet
972 339 m 1,0,-1
 773 339 l 1,1,-1
 773 0 l 1,2,-1
 603 0 l 1,3,-1
 603 339 l 1,4,-1
 52 339 l 1,5,-1
 52 516 l 1,6,-1
 674 1393 l 1,7,-1
 773 1393 l 1,8,-1
 773 490 l 1,9,-1
 972 490 l 1,10,-1
 972 339 l 1,0,-1
603 490 m 1,11,-1
 603 1144 l 1,12,-1
 132 490 l 1,13,-1
 603 490 l 1,11,-1
EndSplineSet
EndChar

StartChar: five
Encoding: 53 53 19
Width: 1024
Flags: W
LayerCount: 2
Fore
SplineSet
940 1408 m 1,0,-1
 877 1201 l 1,1,-1
 346 1201 l 1,2,-1
 300 1036 l 1,3,4
 569 1021 569 1021 728 897 c 0,5,6
 909 756 909 756 909 499 c 0,7,8
 909 265 909 265 742 118 c 0,9,10
 583 -22 583 -22 346 -22 c 0,11,12
 84 -22 84 -22 84 104 c 1,13,-1
 89 108 l 1,14,15
 86 196 86 196 190 196 c 0,16,17
 237 196 237 196 332.5 134.5 c 128,-1,18
 428 73 428 73 486 73 c 0,19,20
 605 73 605 73 681 181 c 0,21,22
 750 279 750 279 750 402 c 0,23,24
 750 638 750 638 553 754 c 0,25,26
 399 845 399 845 141 855 c 1,27,-1
 283 1371 l 1,28,-1
 780 1371 l 2,29,30
 875 1371 875 1371 907 1423 c 1,31,-1
 940 1408 l 1,0,-1
EndSplineSet
EndChar

StartChar: six
Encoding: 54 54 20
Width: 1024
Flags: W
LayerCount: 2
Fore
SplineSet
959 469 m 0,0,1
 959 262 959 262 848 122 c 0,2,3
 727 -30 727 -30 525 -30 c 0,4,5
 302 -30 302 -30 176 155 c 0,6,7
 65 318 65 318 65 551 c 0,8,9
 65 807 65 807 177 1016 c 0,10,11
 298 1245 298 1245 518 1343 c 0,12,13
 663 1408 663 1408 892 1408 c 1,14,-1
 892 1365 l 1,15,16
 640 1325 640 1325 509 1189 c 0,17,18
 392 1068 392 1068 320 810 c 1,19,20
 466 887 466 887 592 887 c 0,21,22
 762 887 762 887 864 760 c 0,23,24
 959 643 959 643 959 469 c 0,0,1
771 367 m 0,25,26
 771 528 771 528 713 638 c 0,27,28
 640 777 640 777 493 777 c 0,29,30
 415 777 415 777 294 702 c 1,31,32
 272 615 272 615 272 520 c 0,33,34
 272 336 272 336 321 219 c 0,35,36
 391 52 391 52 547 52 c 0,37,38
 662 52 662 52 722 157 c 0,39,40
 771 243 771 243 771 367 c 0,25,26
EndSplineSet
EndChar

StartChar: seven
Encoding: 55 55 21
Width: 1024
Flags: W
LayerCount: 2
Fore
SplineSet
963 1375 m 1,0,-1
 510 -22 l 1,1,-1
 369 -22 l 1,2,-1
 778 1205 l 1,3,-1
 372 1205 l 2,4,5
 251 1205 251 1205 209 1174 c 0,6,7
 186 1157 186 1157 108 1041 c 1,8,-1
 61 1056 l 1,9,-1
 186 1375 l 1,10,-1
 963 1375 l 1,0,-1
EndSplineSet
EndChar

StartChar: eight
Encoding: 56 56 22
Width: 1024
Flags: W
LayerCount: 2
Fore
SplineSet
915 330 m 0,0,1
 915 168 915 168 798 70 c 0,2,3
 687 -22 687 -22 522 -22 c 0,4,5
 359 -22 359 -22 242 62 c 0,6,7
 111 156 111 156 111 313 c 1,8,-1
 109 315 l 1,9,10
 109 519 109 519 373 691 c 1,11,12
 245 794 245 794 203 847 c 0,13,14
 127 942 127 942 127 1060 c 0,15,16
 127 1221 127 1221 241 1313 c 0,17,18
 346 1397 346 1397 511 1397 c 0,19,20
 661 1397 661 1397 762 1330 c 0,21,22
 878 1252 878 1252 878 1108 c 0,23,24
 878 987 878 987 799 900 c 0,25,26
 742 837 742 837 615 769 c 1,27,28
 756 664 756 664 820 584 c 0,29,30
 915 466 915 466 915 330 c 0,0,1
725 1103 m 0,31,32
 725 1200 725 1200 662.5 1262 c 128,-1,33
 600 1324 600 1324 502 1324 c 0,34,35
 410 1324 410 1324 352 1273 c 0,36,37
 291 1220 291 1220 291 1129 c 0,38,39
 291 965 291 965 539 821 c 1,40,41
 630 886 630 886 670 939 c 0,42,43
 725 1012 725 1012 725 1103 c 0,31,32
748 268 m 0,44,45
 748 380 748 380 639 484 c 0,46,47
 593 528 593 528 435 635 c 1,48,49
 356 572 356 572 321 503 c 0,50,51
 304 470 304 470 297 422 c 2,52,-1
 284 339 l 2,53,54
 282 334 282 334 280 326 c 0,55,56
 280 206 280 206 349 131 c 128,-1,57
 418 56 418 56 537 56 c 0,58,59
 630 56 630 56 689 115.5 c 128,-1,60
 748 175 748 175 748 268 c 0,44,45
EndSplineSet
EndChar

StartChar: nine
Encoding: 57 57 23
Width: 1024
Flags: W
LayerCount: 2
Fore
SplineSet
958 814 m 0,0,1
 958 426 958 426 734 192 c 0,2,3
 506 -45 506 -45 120 -45 c 1,4,-1
 120 6 l 1,5,6
 379 26 379 26 530 178 c 0,7,8
 664 314 664 314 733 579 c 1,9,10
 578 483 578 483 444 484 c 1,11,-1
 438 479 l 1,12,13
 268 479 268 479 164 605 c 0,14,15
 66 722 66 722 66 896 c 0,16,17
 66 1100 66 1100 181 1243 c 0,18,19
 305 1397 305 1397 504 1397 c 0,20,21
 727 1397 727 1397 851 1210 c 0,22,23
 958 1048 958 1048 958 814 c 0,0,1
748 825 m 0,24,25
 748 1324 748 1324 496 1324 c 0,26,27
 267 1324 267 1324 267 995 c 0,28,29
 267 853 267 853 317 738 c 0,30,31
 383 587 383 587 507 587 c 0,32,33
 606 587 606 587 742 676 c 1,34,35
 748 722 748 722 748 825 c 0,24,25
EndSplineSet
EndChar

StartChar: colon
Encoding: 58 58 24
Width: 569
Flags: W
LayerCount: 2
Fore
SplineSet
397 833 m 0,0,1
 397 785 397 785 363.5 751 c 128,-1,2
 330 717 330 717 282 717 c 0,3,4
 232 717 232 717 200 751.5 c 128,-1,5
 168 786 168 786 168 836 c 0,6,7
 168 884 168 884 201 918 c 128,-1,8
 234 952 234 952 282 952 c 0,9,10
 331 952 331 952 364 917 c 128,-1,11
 397 882 397 882 397 833 c 0,0,1
401 97 m 0,12,13
 401 48 401 48 366 14.5 c 128,-1,14
 331 -19 331 -19 282 -19 c 0,15,16
 235 -19 235 -19 201.5 15.5 c 128,-1,17
 168 50 168 50 168 97 c 0,18,19
 168 147 168 147 200 181.5 c 128,-1,20
 232 216 232 216 282 216 c 256,21,22
 332 216 332 216 366.5 181.5 c 128,-1,23
 401 147 401 147 401 97 c 0,12,13
EndSplineSet
EndChar

StartChar: semicolon
Encoding: 59 59 25
Width: 569
Flags: W
LayerCount: 2
Fore
SplineSet
382 833 m 0,0,1
 382 785 382 785 347.5 751 c 128,-1,2
 313 717 313 717 265 717 c 0,3,4
 215 717 215 717 180.5 751.5 c 128,-1,5
 146 786 146 786 146 836 c 0,6,7
 146 885 146 885 180 919.5 c 128,-1,8
 214 954 214 954 263 954 c 0,9,10
 314 954 314 954 348 919 c 128,-1,11
 382 884 382 884 382 833 c 0,0,1
433 26 m 0,12,13
 433 -175 433 -175 155 -324 c 1,14,-1
 140 -279 l 1,15,16
 343 -147 343 -147 343 -30 c 0,17,18
 343 -5 343 -5 321 -4 c 1,19,20
 301 -15 301 -15 254 -15 c 0,21,22
 136 -15 136 -15 136 93 c 0,23,24
 136 147 136 147 176 181 c 0,25,26
 214 212 214 212 269 212 c 0,27,28
 347 212 347 212 392 157 c 0,29,30
 433 106 433 106 433 26 c 0,12,13
EndSplineSet
EndChar

StartChar: less
Encoding: 60 60 26
Width: 1155
Flags: W
LayerCount: 2
Fore
SplineSet
1098 -16 m 1,0,-1
 57 455 l 1,1,-1
 57 582 l 1,2,-1
 1098 1053 l 1,3,-1
 1098 913 l 1,4,-1
 227 518 l 1,5,-1
 1098 123 l 1,6,-1
 1098 -16 l 1,0,-1
EndSplineSet
EndChar

StartChar: equal
Encoding: 61 61 27
Width: 1155
Flags: W
LayerCount: 2
Fore
SplineSet
1094 655 m 1,0,-1
 61 655 l 1,1,-1
 61 791 l 1,2,-1
 1094 791 l 1,3,-1
 1094 655 l 1,0,-1
1094 246 m 1,4,-1
 61 246 l 1,5,-1
 61 381 l 1,6,-1
 1094 381 l 1,7,-1
 1094 246 l 1,4,-1
EndSplineSet
EndChar

StartChar: greater
Encoding: 62 62 28
Width: 1155
Flags: W
LayerCount: 2
Fore
SplineSet
1098 455 m 1,0,-1
 57 -16 l 1,1,-1
 57 123 l 1,2,-1
 928 518 l 1,3,-1
 57 913 l 1,4,-1
 57 1053 l 1,5,-1
 1098 582 l 1,6,-1
 1098 455 l 1,0,-1
EndSplineSet
EndChar

StartChar: question
Encoding: 63 63 29
Width: 909
Flags: W
LayerCount: 2
Fore
SplineSet
813 1060 m 0,0,1
 813 960 813 960 752 859 c 0,2,3
 729 820 729 820 624 691 c 0,4,5
 543 590 543 590 511 514 c 0,6,7
 488 458 488 458 465 341 c 1,8,-1
 424 341 l 1,9,10
 424 472 424 472 520.5 716 c 128,-1,11
 617 960 617 960 617 1090 c 0,12,13
 617 1187 617 1187 555 1259 c 0,14,15
 489 1334 489 1334 394 1334 c 0,16,17
 330 1334 330 1334 276 1302 c 0,18,19
 213 1265 213 1265 213 1205 c 0,20,21
 213 1199 213 1199 249.5 1145 c 128,-1,22
 286 1091 286 1091 286 1056 c 0,23,24
 286 1017 286 1017 261.5 990 c 128,-1,25
 237 963 237 963 198 963 c 0,26,27
 134 963 134 963 113 1016 c 0,28,29
 105 1036 105 1036 96 1118 c 0,30,31
 95 1127 95 1127 95 1145 c 0,32,33
 95 1264 95 1264 214 1337 c 0,34,35
 318 1401 318 1401 452 1401 c 0,36,37
 606 1401 606 1401 708 1308 c 0,38,39
 813 1212 813 1212 813 1060 c 0,0,1
558 93 m 0,40,41
 558 46 558 46 523.5 13.5 c 128,-1,42
 489 -19 489 -19 442 -19 c 0,43,44
 393 -19 393 -19 355.5 14.5 c 128,-1,45
 318 48 318 48 318 97 c 0,46,47
 318 145 318 145 355.5 180.5 c 128,-1,48
 393 216 393 216 442 216 c 0,49,50
 493 216 493 216 525.5 180 c 128,-1,51
 558 144 558 144 558 93 c 0,40,41
EndSplineSet
EndChar

StartChar: at
Encoding: 64 64 30
Width: 1886
Flags: W
LayerCount: 2
Fore
SplineSet
1653 780 m 0,0,1
 1653 601 1653 601 1554 456 c 0,2,3
 1443 293 1443 293 1272 293 c 0,4,5
 1208 293 1208 293 1152 333 c 0,6,7
 1090 376 1090 376 1090 438 c 1,8,9
 1050 385 1050 385 983 343 c 0,10,11
 908 295 908 295 850 295 c 0,12,13
 653 295 653 295 653 549 c 0,14,15
 653 722 653 722 764 874 c 0,16,17
 885 1040 885 1040 1057 1040 c 0,18,19
 1115 1040 1115 1040 1147 1012 c 0,20,21
 1169 993 1169 993 1202 934 c 1,22,-1
 1223 1012 l 1,23,-1
 1364 1012 l 1,24,-1
 1231 492 l 2,25,26
 1227 476 1227 476 1227 451 c 0,27,28
 1227 360 1227 360 1305 360 c 0,29,30
 1428 360 1428 360 1506 513 c 0,31,32
 1571 640 1571 640 1571 778 c 0,33,34
 1571 1007 1571 1007 1388 1167 c 0,35,36
 1213 1321 1213 1321 981 1321 c 0,37,38
 699 1321 699 1321 544 1107 c 0,39,40
 406 916 406 916 406 625 c 0,41,42
 406 377 406 377 578 214 c 128,-1,43
 750 51 750 51 999 51 c 0,44,45
 1189 51 1189 51 1405 150 c 1,46,-1
 1430 88 l 1,47,48
 1169 -29 1169 -29 1001 -29 c 0,49,50
 694 -29 694 -29 472 151 c 0,51,52
 233 344 233 344 233 645 c 0,53,54
 233 966 233 966 446 1175 c 128,-1,55
 659 1384 659 1384 981 1384 c 0,56,57
 1258 1384 1258 1384 1450 1223 c 0,58,59
 1653 1052 1653 1052 1653 780 c 0,0,1
1167 817 m 0,60,61
 1167 950 1167 950 1079 950 c 0,62,63
 959 950 959 950 874 807 c 0,64,65
 799 682 799 682 799 555 c 0,66,67
 799 383 799 383 928 383 c 0,68,69
 1027 383 1027 383 1103 556 c 0,70,71
 1167 701 1167 701 1167 817 c 0,60,61
EndSplineSet
EndChar

StartChar: A
Encoding: 65 65 31
Width: 1479
Flags: W
LayerCount: 2
Fore
SplineSet
1440 0 m 1,0,-1
 924 0 l 1,1,-1
 924 48 l 1,2,-1
 951 47 l 2,3,4
 1052 43 1052 43 1052 114 c 0,5,6
 1052 178 1052 178 1008 276 c 0,7,8
 984 328 984 328 935 432 c 1,9,-1
 423 432 l 1,10,11
 399 380 399 380 353 276 c 0,12,13
 311 178 311 178 311 114 c 0,14,15
 311 46 311 46 449 48 c 1,16,-1
 449 0 l 1,17,-1
 39 0 l 1,18,-1
 39 48 l 1,19,20
 125 66 125 66 184 156 c 0,21,22
 212 199 212 199 266 326 c 2,23,-1
 713 1380 l 1,24,-1
 760 1380 l 1,25,-1
 1265 207 l 2,26,27
 1304 115 1304 115 1323 93 c 0,28,29
 1360 49 1360 49 1440 45 c 1,30,-1
 1440 0 l 1,0,-1
898 527 m 1,31,-1
 682 1047 l 1,32,-1
 464 527 l 1,33,-1
 898 527 l 1,31,-1
EndSplineSet
EndChar

StartChar: B
Encoding: 66 66 32
Width: 1366
Flags: W
LayerCount: 2
Fore
SplineSet
1268 365 m 0,0,1
 1268 142 1268 142 1067 57 c 0,2,3
 933 0 933 0 674 0 c 2,4,-1
 109 0 l 1,5,-1
 109 52 l 1,6,7
 219 54 219 54 258 100 c 0,8,9
 294 142 294 142 294 253 c 2,10,-1
 294 1073 l 2,11,12
 294 1212 294 1212 266 1249 c 0,13,14
 233 1293 233 1293 98 1304 c 1,15,-1
 98 1356 l 1,16,-1
 644 1356 l 2,17,18
 1201 1356 1201 1356 1201 1004 c 0,19,20
 1201 889 1201 889 1144 819 c 0,21,22
 1095 760 1095 760 981 710 c 1,23,24
 1129 638 1129 638 1184 583 c 0,25,26
 1268 499 1268 499 1268 365 c 0,0,1
985 995 m 0,27,28
 985 1264 985 1264 629 1264 c 0,29,30
 600 1264 600 1264 512 1259 c 1,31,-1
 512 747 l 1,32,-1
 594 747 l 2,33,34
 769 747 769 747 855 785 c 0,35,36
 985 842 985 842 985 995 c 0,27,28
1022 371 m 0,37,38
 1022 654 1022 654 614 654 c 2,39,-1
 512 654 l 1,40,-1
 512 207 l 2,41,42
 512 120 512 120 545 101 c 0,43,44
 568 88 568 88 627 88 c 0,45,46
 814 88 814 88 902 136 c 0,47,48
 1022 201 1022 201 1022 371 c 0,37,38
EndSplineSet
EndChar

StartChar: C
Encoding: 67 67 33
Width: 1366
Flags: W
LayerCount: 2
Fore
SplineSet
1302 242 m 1,0,1
 1050 -30 1050 -30 740 -30 c 0,2,3
 438 -30 438 -30 249 169 c 0,4,5
 64 365 64 365 64 669 c 0,6,7
 64 979 64 979 260.5 1182.5 c 128,-1,8
 457 1386 457 1386 766 1386 c 0,9,10
 889 1386 889 1386 1043 1334 c 0,11,12
 1085 1320 1085 1320 1114 1315 c 1,13,-1
 1116 1313 l 1,14,15
 1175 1321 1175 1321 1213 1386 c 1,16,-1
 1254 1386 l 1,17,-1
 1274 918 l 1,18,-1
 1217 907 l 1,19,20
 1088 1285 1088 1285 775 1285 c 0,21,22
 544 1285 544 1285 416 1091 c 0,23,24
 306 924 306 924 306 680 c 0,25,26
 306 421 306 421 426 261 c 0,27,28
 560 82 560 82 811 82 c 0,29,30
 1031 82 1031 82 1254 287 c 1,31,-1
 1302 242 l 1,0,1
EndSplineSet
EndChar

StartChar: D
Encoding: 68 68 34
Width: 1479
Flags: W
LayerCount: 2
Fore
SplineSet
1422 679 m 0,0,1
 1422 345 1422 345 1188 164 c 0,2,3
 976 0 976 0 634 0 c 2,4,-1
 57 0 l 1,5,-1
 57 52 l 1,6,7
 152 53 152 53 194 90 c 128,-1,8
 236 127 236 127 236 220 c 2,9,-1
 236 1106 l 2,10,11
 236 1215 236 1215 202 1256 c 0,12,13
 164 1302 164 1302 57 1301 c 1,14,-1
 57 1355 l 1,15,-1
 500 1355 l 2,16,17
 921 1355 921 1355 1139 1231 c 0,18,19
 1422 1070 1422 1070 1422 679 c 0,0,1
1184 668 m 0,20,21
 1184 957 1184 957 1016 1114 c 0,22,23
 853 1266 853 1266 562 1266 c 0,24,25
 452 1266 452 1266 452 1169 c 2,26,-1
 452 119 l 2,27,28
 452 86 452 86 572 86 c 0,29,30
 863 86 863 86 1020 230 c 0,31,32
 1184 380 1184 380 1184 668 c 0,20,21
EndSplineSet
EndChar

StartChar: E
Encoding: 69 69 35
Width: 1251
Flags: W
LayerCount: 2
Fore
SplineSet
1220 350 m 1,0,-1
 1123 0 l 1,1,-1
 31 0 l 1,2,-1
 31 56 l 1,3,4
 145 60 145 60 178 103 c 0,5,6
 205 138 205 138 205 249 c 2,7,-1
 205 1081 l 2,8,9
 205 1206 205 1206 181 1243 c 0,10,11
 148 1294 148 1294 31 1298 c 1,12,-1
 31 1356 l 1,13,-1
 1106 1356 l 1,14,-1
 1117 1047 l 1,15,-1
 1054 1047 l 1,16,17
 1022 1180 1022 1180 973 1221.5 c 128,-1,18
 924 1263 924 1263 789 1263 c 2,19,-1
 500 1263 l 2,20,21
 426 1263 426 1263 426 1242 c 2,22,-1
 426 754 l 1,23,-1
 721 754 l 2,24,25
 843 754 843 754 883.5 790.5 c 128,-1,26
 924 827 924 827 942 948 c 1,27,-1
 998 948 l 1,28,-1
 998 464 l 1,29,-1
 942 464 l 1,30,31
 929 574 929 574 891 612 c 0,32,33
 849 654 849 654 741 654 c 2,34,-1
 426 654 l 1,35,-1
 426 192 l 2,36,37
 426 126 426 126 448 108 c 0,38,39
 466 93 466 93 532 93 c 2,40,-1
 729 93 l 2,41,42
 903 93 903 93 989 144.5 c 128,-1,43
 1075 196 1075 196 1153 350 c 1,44,-1
 1220 350 l 1,0,-1
EndSplineSet
EndChar

StartChar: F
Encoding: 70 70 36
Width: 1139
Flags: W
LayerCount: 2
Fore
SplineSet
1110 1047 m 1,0,-1
 1050 1047 l 1,1,2
 1019 1178 1019 1178 980 1215 c 0,3,4
 934 1259 934 1259 805 1259 c 2,5,-1
 424 1259 l 1,6,-1
 424 758 l 1,7,-1
 704 758 l 2,8,9
 820 758 820 758 864 796 c 128,-1,10
 908 834 908 834 916 948 c 1,11,-1
 981 948 l 1,12,-1
 981 460 l 1,13,-1
 920 460 l 1,14,15
 895 587 895 587 870 615 c 0,16,17
 835 654 835 654 714 654 c 2,18,-1
 424 654 l 1,19,-1
 424 259 l 2,20,21
 424 145 424 145 451 108 c 0,22,23
 486 60 486 60 601 56 c 1,24,-1
 601 0 l 1,25,-1
 29 0 l 1,26,-1
 29 56 l 1,27,28
 146 65 146 65 178 108 c 0,29,30
 204 143 204 143 204 257 c 2,31,-1
 204 1112 l 2,32,33
 204 1221 204 1221 171 1256.5 c 128,-1,34
 138 1292 138 1292 29 1300 c 1,35,-1
 29 1356 l 1,36,-1
 1102 1356 l 1,37,-1
 1110 1047 l 1,0,-1
EndSplineSet
EndChar

StartChar: G
Encoding: 71 71 37
Width: 1479
Flags: W
LayerCount: 2
Fore
SplineSet
1426 676 m 1,0,1
 1339 679 1339 679 1310 626 c 0,2,3
 1290 589 1290 589 1290 494 c 2,4,-1
 1290 104 l 1,5,6
 1008 -26 1008 -26 781 -26 c 0,7,8
 464 -26 464 -26 262 157 c 0,9,10
 53 347 53 347 53 661 c 256,11,12
 53 975 53 975 241 1176 c 0,13,14
 434 1382 434 1382 746 1382 c 0,15,16
 866 1382 866 1382 1048 1330 c 0,17,18
 1073 1323 1073 1323 1120 1315 c 1,19,-1
 1122 1313 l 1,20,21
 1174 1320 1174 1320 1212 1382 c 1,22,-1
 1253 1382 l 1,23,-1
 1275 937 l 1,24,-1
 1212 937 l 1,25,26
 1099 1285 1099 1285 765 1285 c 0,27,28
 544 1285 544 1285 413 1103 c 0,29,30
 296 941 296 941 296 711 c 0,31,32
 296 71 296 71 817 71 c 0,33,34
 954 71 954 71 1079 149 c 1,35,-1
 1079 499 l 2,36,37
 1079 596 1079 596 1042.5 632.5 c 128,-1,38
 1006 669 1006 669 908 676 c 1,39,-1
 908 728 l 1,40,-1
 1426 728 l 1,41,-1
 1426 676 l 1,0,1
EndSplineSet
EndChar

StartChar: H
Encoding: 72 72 38
Width: 1479
Flags: W
LayerCount: 2
Fore
SplineSet
1437 0 m 1,0,-1
 863 0 l 1,1,-1
 863 56 l 1,2,3
 981 60 981 60 1015 106 c 0,4,5
 1042 142 1042 142 1042 259 c 2,6,-1
 1042 628 l 1,7,-1
 444 628 l 1,8,-1
 444 238 l 2,9,10
 444 135 444 135 478 97.5 c 128,-1,11
 512 60 512 60 614 56 c 1,12,-1
 614 0 l 1,13,-1
 42 0 l 1,14,-1
 42 56 l 1,15,16
 163 60 163 60 196 103 c 0,17,18
 223 138 223 138 223 263 c 2,19,-1
 223 1102 l 2,20,21
 223 1218 223 1218 190 1257 c 128,-1,22
 157 1296 157 1296 42 1300 c 1,23,-1
 42 1356 l 1,24,-1
 614 1356 l 1,25,-1
 614 1300 l 1,26,27
 508 1291 508 1291 476 1253.5 c 128,-1,28
 444 1216 444 1216 444 1108 c 2,29,-1
 444 743 l 1,30,-1
 1042 743 l 1,31,-1
 1042 1099 l 2,32,33
 1042 1214 1042 1214 1010 1252 c 0,34,35
 975 1296 975 1296 863 1300 c 1,36,-1
 863 1356 l 1,37,-1
 1437 1356 l 1,38,-1
 1437 1300 l 1,39,40
 1317 1296 1317 1296 1281 1243 c 0,41,42
 1253 1202 1253 1202 1253 1082 c 2,43,-1
 1253 268 l 2,44,45
 1253 149 1253 149 1281 110 c 0,46,47
 1317 60 1317 60 1437 56 c 1,48,-1
 1437 0 l 1,0,-1
EndSplineSet
EndChar

StartChar: I
Encoding: 73 73 39
Width: 682
Flags: W
LayerCount: 2
Fore
SplineSet
650 0 m 1,0,-1
 32 0 l 1,1,-1
 32 52 l 1,2,3
 153 55 153 55 192 94.5 c 128,-1,4
 231 134 231 134 231 255 c 2,5,-1
 231 1082 l 2,6,7
 231 1214 231 1214 202 1252 c 0,8,9
 165 1301 165 1301 32 1300 c 1,10,-1
 32 1356 l 1,11,-1
 650 1356 l 1,12,-1
 650 1300 l 1,13,14
 514 1301 514 1301 476 1251 c 0,15,16
 445 1211 445 1211 445 1071 c 2,17,-1
 445 274 l 2,18,19
 445 140 445 140 475 101 c 0,20,21
 513 51 513 51 650 52 c 1,22,-1
 650 0 l 1,0,-1
EndSplineSet
EndChar

StartChar: J
Encoding: 74 74 40
Width: 797
Flags: W
LayerCount: 2
Fore
SplineSet
764 1300 m 1,0,1
 648 1296 648 1296 611 1244 c 0,2,3
 583 1204 583 1204 583 1088 c 2,4,-1
 583 393 l 2,5,6
 583 210 583 210 506 101 c 0,7,8
 417 -26 417 -26 242 -26 c 0,9,10
 164 -26 164 -26 104 9 c 0,11,12
 33 50 33 50 33 123 c 0,13,14
 33 231 33 231 145 231 c 0,15,16
 201 231 201 231 240.5 147 c 128,-1,17
 280 63 280 63 305 63 c 0,18,19
 367 63 367 63 367 171 c 2,20,-1
 367 1089 l 2,21,22
 367 1219 367 1219 340 1254 c 0,23,24
 307 1296 307 1296 181 1300 c 1,25,-1
 177 1356 l 1,26,-1
 764 1356 l 1,27,-1
 764 1300 l 1,0,1
EndSplineSet
EndChar

StartChar: K
Encoding: 75 75 41
Width: 1479
Flags: W
LayerCount: 2
Fore
SplineSet
1435 0 m 1,0,-1
 817 0 l 1,1,-1
 817 48 l 1,2,-1
 851 47 l 2,3,4
 955 44 955 44 955 93 c 0,5,6
 955 146 955 146 751 369 c 0,7,8
 595 540 595 540 487 639 c 1,9,-1
 435 598 l 1,10,-1
 435 268 l 2,11,12
 435 144 435 144 463 105 c 0,13,14
 499 55 499 55 616 52 c 1,15,-1
 616 0 l 1,16,-1
 44 0 l 1,17,-1
 44 56 l 1,18,19
 165 59 165 59 200 107 c 0,20,21
 228 145 228 145 228 271 c 2,22,-1
 228 1094 l 2,23,24
 228 1213 228 1213 200 1250 c 0,25,26
 165 1297 165 1297 44 1300 c 1,27,-1
 44 1356 l 1,28,-1
 621 1356 l 1,29,-1
 621 1300 l 1,30,31
 503 1297 503 1297 467 1252 c 0,32,33
 435 1212 435 1212 435 1093 c 2,34,-1
 435 721 l 1,35,36
 542 796 542 796 726 971 c 0,37,38
 947 1181 947 1181 947 1244 c 0,39,40
 947 1312 947 1312 813 1309 c 1,41,-1
 813 1356 l 1,42,-1
 1338 1356 l 1,43,-1
 1338 1309 l 1,44,45
 1222 1300 1222 1300 1129 1234 c 0,46,47
 1081 1200 1081 1200 966 1082 c 0,48,49
 805 917 805 917 657 777 c 1,50,-1
 1126 259 l 2,51,52
 1219 157 1219 157 1262 122 c 0,53,54
 1347 54 1347 54 1435 45 c 1,55,-1
 1435 0 l 1,0,-1
EndSplineSet
EndChar

StartChar: L
Encoding: 76 76 42
Width: 1251
Flags: W
LayerCount: 2
Fore
SplineSet
1215 365 m 1,0,-1
 1109 0 l 1,1,-1
 36 0 l 1,2,-1
 36 56 l 1,3,4
 154 68 154 68 185 110 c 0,5,6
 211 146 211 146 211 268 c 2,7,-1
 211 1099 l 2,8,9
 211 1216 211 1216 184 1251 c 0,10,11
 152 1292 152 1292 40 1300 c 1,12,-1
 40 1356 l 1,13,-1
 613 1356 l 1,14,-1
 613 1300 l 1,15,16
 491 1297 491 1297 455 1252 c 0,17,18
 423 1212 423 1212 423 1089 c 2,19,-1
 423 231 l 2,20,21
 423 92 423 92 626 92 c 0,22,23
 854 92 854 92 941 130 c 0,24,25
 1059 182 1059 182 1150 365 c 1,26,-1
 1215 365 l 1,0,-1
EndSplineSet
EndChar

StartChar: M
Encoding: 77 77 43
Width: 1821
Flags: W
LayerCount: 2
Fore
SplineSet
1768 0 m 1,0,-1
 1206 0 l 1,1,-1
 1206 52 l 1,2,3
 1313 60 1313 60 1345 96.5 c 128,-1,4
 1377 133 1377 133 1377 242 c 2,5,-1
 1377 1123 l 1,6,-1
 867 0 l 1,7,-1
 841 0 l 1,8,-1
 340 1071 l 1,9,-1
 340 305 l 2,10,11
 340 170 340 170 366 126 c 0,12,13
 402 65 402 65 526 52 c 1,14,-1
 526 0 l 1,15,-1
 53 0 l 1,16,-1
 53 52 l 1,17,18
 150 61 150 61 190 92 c 0,19,20
 239 130 239 130 239 222 c 2,21,-1
 239 1185 l 2,22,23
 239 1261 239 1261 178 1285 c 0,24,25
 145 1298 145 1298 53 1298 c 1,26,-1
 53 1356 l 1,27,-1
 455 1356 l 1,28,-1
 923 339 l 1,29,-1
 1366 1356 l 1,30,-1
 1768 1356 l 1,31,-1
 1768 1298 l 1,32,33
 1647 1285 1647 1285 1617 1242 c 0,34,35
 1593 1208 1593 1208 1593 1081 c 2,36,-1
 1593 233 l 2,37,38
 1593 131 1593 131 1630 94 c 0,39,40
 1664 60 1664 60 1768 52 c 1,41,-1
 1768 0 l 1,0,-1
EndSplineSet
EndChar

StartChar: N
Encoding: 78 78 44
Width: 1479
Flags: W
LayerCount: 2
Fore
SplineSet
1440 1300 m 1,0,1
 1310 1278 1310 1278 1280 1226 c 0,2,3
 1259 1190 1259 1190 1259 1048 c 2,4,-1
 1259 -26 l 1,5,-1
 1213 -26 l 1,6,-1
 332 1058 l 1,7,-1
 333 298 l 2,8,9
 333 160 333 160 358 116 c 0,10,11
 395 51 395 51 522 48 c 1,12,-1
 522 0 l 1,13,-1
 39 0 l 1,14,-1
 39 48 l 1,15,16
 169 56 169 56 206 115 c 0,17,18
 233 158 233 158 233 297 c 2,19,-1
 233 1188 l 1,20,21
 152 1302 152 1302 39 1300 c 1,22,-1
 39 1356 l 1,23,-1
 384 1356 l 1,24,-1
 1157 382 l 1,25,-1
 1157 1048 l 2,26,27
 1157 1182 1157 1182 1131 1226 c 0,28,29
 1095 1287 1095 1287 972 1300 c 1,30,-1
 972 1356 l 1,31,-1
 1440 1356 l 1,32,-1
 1440 1300 l 1,0,1
EndSplineSet
EndChar

StartChar: O
Encoding: 79 79 45
Width: 1479
Flags: W
LayerCount: 2
Fore
SplineSet
1409 659 m 0,0,1
 1409 367 1409 367 1221 172 c 0,2,3
 1031 -26 1031 -26 740 -26 c 0,4,5
 444 -26 444 -26 255 178 c 0,6,7
 70 376 70 376 70 674 c 0,8,9
 70 975 70 975 256 1176 c 0,10,11
 447 1382 447 1382 746 1382 c 256,12,13
 1045 1382 1045 1382 1232 1167 c 0,14,15
 1409 962 1409 962 1409 659 c 0,0,1
1163 726 m 0,16,17
 1163 955 1163 955 1068 1109 c 0,18,19
 955 1293 955 1293 740 1293 c 0,20,21
 511 1293 511 1293 401 1078 c 0,22,23
 316 912 316 912 316 659 c 0,24,25
 316 416 316 416 406 256 c 0,26,27
 518 56 518 56 742 56 c 0,28,29
 1163 56 1163 56 1163 726 c 0,16,17
EndSplineSet
EndChar

StartChar: P
Encoding: 80 80 46
Width: 1139
Flags: W
LayerCount: 2
Fore
SplineSet
1105 959 m 0,0,1
 1105 710 1105 710 867 627 c 0,2,3
 729 579 729 579 421 579 c 1,4,-1
 421 287 l 2,5,6
 421 148 421 148 447 110 c 0,7,8
 482 59 482 59 615 56 c 1,9,-1
 615 0 l 1,10,-1
 34 0 l 1,11,-1
 34 56 l 1,12,13
 155 68 155 68 186 115 c 0,14,15
 209 150 209 150 209 279 c 2,16,-1
 209 1086 l 2,17,18
 209 1209 209 1209 184 1247 c 0,19,20
 150 1298 150 1298 34 1300 c 1,21,-1
 34 1356 l 1,22,-1
 457 1356 l 2,23,24
 743 1356 743 1356 887 1295 c 0,25,26
 1105 1203 1105 1203 1105 959 c 0,0,1
872 980 m 0,27,28
 872 1259 872 1259 496 1259 c 0,29,30
 421 1259 421 1259 421 1179 c 2,31,-1
 421 674 l 1,32,-1
 548 674 l 2,33,34
 872 674 872 674 872 980 c 0,27,28
EndSplineSet
EndChar

StartChar: Q
Encoding: 81 81 47
Width: 1479
Flags: W
LayerCount: 2
Fore
SplineSet
1407 -354 m 1,0,-1
 1325 -354 l 2,1,2
 868 -354 868 -354 644 -114 c 2,3,-1
 558 -22 l 2,4,5
 545 -8 545 -8 454 41 c 0,6,7
 348 98 348 98 292 143 c 0,8,9
 217 203 217 203 167 289 c 0,10,11
 72 452 72 452 72 680 c 0,12,13
 72 982 72 982 256 1178 c 0,14,15
 444 1380 444 1380 744 1380 c 0,16,17
 1035 1380 1035 1380 1220 1173 c 0,18,19
 1398 973 1398 973 1398 679 c 0,20,21
 1398 420 1398 420 1262.5 239.5 c 128,-1,22
 1127 59 1127 59 878 -11 c 1,23,24
 1102 -309 1102 -309 1407 -309 c 1,25,-1
 1407 -354 l 1,0,-1
1156 713 m 0,26,27
 1156 941 1156 941 1064 1100 c 0,28,29
 952 1293 952 1293 740 1293 c 1,30,-1
 737 1298 l 1,31,32
 498 1298 498 1298 391 1081 c 0,33,34
 310 918 310 918 310 652 c 0,35,36
 310 414 310 414 403 254 c 0,37,38
 516 60 516 60 737 60 c 0,39,40
 973 60 973 60 1078 283 c 0,41,42
 1156 448 1156 448 1156 713 c 0,26,27
EndSplineSet
EndChar

StartChar: R
Encoding: 82 82 48
Width: 1366
Flags: W
LayerCount: 2
Fore
SplineSet
1332 0 m 1,0,-1
 1004 0 l 1,1,-1
 529 613 l 1,2,-1
 421 613 l 1,3,-1
 421 253 l 2,4,5
 421 140 421 140 452 103 c 0,6,7
 485 63 485 63 596 56 c 1,8,-1
 596 0 l 1,9,-1
 34 0 l 1,10,-1
 34 56 l 1,11,12
 144 59 144 59 179 109 c 0,13,14
 205 147 205 147 205 257 c 2,15,-1
 205 1118 l 2,16,17
 205 1222 205 1222 171 1259.5 c 128,-1,18
 137 1297 137 1297 34 1300 c 1,19,-1
 34 1356 l 1,20,-1
 506 1356 l 2,21,22
 777 1356 777 1356 907 1301 c 0,23,24
 1107 1216 1107 1216 1107 985 c 0,25,26
 1107 721 1107 721 760 643 c 1,27,-1
 1071 248 l 2,28,29
 1152 145 1152 145 1180 120 c 0,30,31
 1246 61 1246 61 1332 52 c 1,32,-1
 1332 0 l 1,0,-1
881 1006 m 0,33,34
 881 1263 881 1263 513 1263 c 0,35,36
 460 1263 460 1263 440.5 1243 c 128,-1,37
 421 1223 421 1223 421 1170 c 2,38,-1
 421 710 l 1,39,40
 495 706 495 706 479 706 c 1,41,42
 881 706 881 706 881 1006 c 0,33,34
EndSplineSet
EndChar

StartChar: S
Encoding: 83 83 49
Width: 1139
Flags: W
LayerCount: 2
Fore
SplineSet
1025 339 m 0,0,1
 1025 166 1025 166 892 63 c 0,2,3
 771 -30 771 -30 593 -30 c 0,4,5
 500 -30 500 -30 418 0 c 0,6,7
 296 45 296 45 289 45 c 0,8,9
 239 45 239 45 230 -22 c 1,10,-1
 174 -22 l 1,11,-1
 114 419 l 1,12,-1
 174 419 l 1,13,14
 302 63 302 63 582 63 c 0,15,16
 683 63 683 63 748 124.5 c 128,-1,17
 813 186 813 186 813 287 c 0,18,19
 813 422 813 422 647 529 c 0,20,21
 544 593 544 593 337 721 c 1,22,23
 170 852 170 852 170 1030 c 0,24,25
 170 1181 170 1181 278 1283 c 0,26,27
 383 1382 383 1382 535 1382 c 0,28,29
 584 1382 584 1382 677.5 1347.5 c 128,-1,30
 771 1313 771 1313 820 1313 c 0,31,32
 877 1313 877 1313 898 1380 c 1,33,-1
 947 1380 l 1,34,-1
 988 937 l 1,35,-1
 932 937 l 1,36,37
 811 1285 811 1285 567 1285 c 0,38,39
 486 1285 486 1285 425 1233 c 0,40,41
 360 1179 360 1179 360 1099 c 0,42,43
 360 987 360 987 532 874 c 2,44,-1
 853 664 l 1,45,46
 1025 521 1025 521 1025 339 c 0,0,1
EndSplineSet
EndChar

StartChar: T
Encoding: 84 84 50
Width: 1251
Flags: W
LayerCount: 2
Fore
SplineSet
1211 999 m 1,0,-1
 1150 999 l 1,1,2
 1120 1179 1120 1179 1011 1230 c 0,3,4
 941 1263 941 1263 733 1263 c 1,5,-1
 733 274 l 2,6,7
 733 143 733 143 764 103 c 0,8,9
 801 55 801 55 928 56 c 1,10,-1
 928 0 l 1,11,-1
 325 0 l 1,12,-1
 325 56 l 1,13,14
 455 59 455 59 488 104 c 0,15,16
 515 140 515 140 515 274 c 2,17,-1
 515 1263 l 1,18,-1
 423 1263 l 2,19,20
 252 1263 252 1263 193 1214.5 c 128,-1,21
 134 1166 134 1166 99 999 c 1,22,-1
 40 999 l 1,23,-1
 58 1356 l 1,24,-1
 1191 1356 l 1,25,-1
 1211 999 l 1,0,-1
EndSplineSet
EndChar

StartChar: U
Encoding: 85 85 51
Width: 1479
Flags: W
LayerCount: 2
Fore
SplineSet
1438 1303 m 1,0,1
 1314 1299 1314 1299 1277 1233 c 0,2,3
 1252 1188 1252 1188 1252 1053 c 2,4,-1
 1252 464 l 2,5,6
 1252 219 1252 219 1111 92 c 0,7,8
 976 -30 976 -30 728 -30 c 0,9,10
 449 -30 449 -30 325 136 c 0,11,12
 216 280 216 280 216 568 c 2,13,-1
 216 1115 l 2,14,15
 216 1219 216 1219 180 1259.5 c 128,-1,16
 144 1300 144 1300 41 1301 c 1,17,-1
 41 1355 l 1,18,-1
 622 1355 l 1,19,-1
 622 1301 l 1,20,21
 502 1299 502 1299 465 1249 c 0,22,23
 436 1209 436 1209 436 1091 c 0,24,25
 436 1005 436 1005 437 830 c 2,26,-1
 438 568 l 2,27,28
 438 322 438 322 487 226 c 0,29,30
 560 82 560 82 782 82 c 0,31,32
 1019 82 1019 82 1097 235 c 0,33,34
 1149 337 1149 337 1149 601 c 2,35,-1
 1149 1084 l 2,36,37
 1149 1211 1149 1211 1123 1249 c 0,38,39
 1088 1300 1088 1300 967 1301 c 1,40,-1
 967 1355 l 1,41,-1
 1438 1355 l 1,42,-1
 1438 1303 l 1,0,1
EndSplineSet
EndChar

StartChar: V
Encoding: 86 86 52
Width: 1479
Flags: W
LayerCount: 2
Fore
SplineSet
1428 1300 m 1,0,1
 1341 1288 1341 1288 1290 1209 c 0,2,3
 1273 1182 1273 1182 1221 1052 c 2,4,-1
 793 -26 l 1,5,-1
 757 -26 l 1,6,-1
 277 1047 l 2,7,8
 211 1195 211 1195 200 1211 c 0,9,10
 144 1294 144 1294 51 1300 c 1,11,-1
 51 1356 l 1,12,-1
 597 1356 l 1,13,-1
 597 1300 l 1,14,-1
 567 1300 l 2,15,16
 446 1300 446 1300 448 1233 c 1,17,-1
 452 1231 l 1,18,19
 453 1190 453 1190 508 1067 c 2,20,-1
 828 350 l 1,21,-1
 1102 1056 l 2,22,23
 1148 1175 1148 1175 1148 1226 c 0,24,25
 1148 1299 1148 1299 1005 1298 c 1,26,-1
 1005 1356 l 1,27,-1
 1428 1356 l 1,28,-1
 1428 1300 l 1,0,1
EndSplineSet
EndChar

StartChar: W
Encoding: 87 87 53
Width: 1933
Flags: W
LayerCount: 2
Fore
SplineSet
1901 1300 m 1,0,1
 1811 1289 1811 1289 1759 1203 c 0,2,3
 1742 1174 1742 1174 1692 1036 c 0,4,5
 1547 632 1547 632 1329 -22 c 1,6,-1
 1288 -22 l 1,7,8
 1234 160 1234 160 1139 399 c 2,9,-1
 973 814 l 1,10,11
 868 537 868 537 671 -22 c 1,12,-1
 630 -22 l 1,13,14
 564 158 564 158 243 1032 c 0,15,16
 193 1168 193 1168 174 1199 c 0,17,18
 123 1282 123 1282 32 1300 c 1,19,-1
 32 1356 l 1,20,-1
 532 1356 l 1,21,-1
 532 1300 l 1,22,-1
 507 1300 l 2,23,24
 407 1300 407 1300 407 1242 c 0,25,26
 407 1208 407 1208 429 1149 c 2,27,-1
 707 402 l 1,28,-1
 917 954 l 1,29,-1
 861 1099 l 2,30,31
 816 1216 816 1216 795 1243 c 0,32,33
 750 1301 750 1301 653 1300 c 1,34,-1
 653 1356 l 1,35,-1
 1191 1356 l 1,36,-1
 1191 1300 l 1,37,38
 1045 1302 1045 1302 1042 1231 c 1,39,-1
 1046 1231 l 1,40,41
 1056 1183 1056 1183 1079 1125 c 2,42,-1
 1362 402 l 1,43,-1
 1599 1071 l 2,44,45
 1634 1170 1634 1170 1634 1216 c 0,46,47
 1634 1304 1634 1304 1500 1300 c 1,48,-1
 1500 1356 l 1,49,-1
 1901 1356 l 1,50,-1
 1901 1300 l 1,0,1
EndSplineSet
EndChar

StartChar: X
Encoding: 88 88 54
Width: 1479
Flags: W
LayerCount: 2
Fore
SplineSet
1433 0 m 1,0,-1
 839 0 l 1,1,-1
 839 48 l 1,2,3
 910 50 910 50 931 55 c 0,4,5
 988 68 988 68 988 112 c 0,6,7
 988 169 988 169 705 577 c 1,8,9
 359 186 359 186 359 119 c 0,10,11
 359 46 359 46 504 48 c 1,12,-1
 504 0 l 1,13,-1
 46 0 l 1,14,-1
 46 48 l 1,15,16
 141 61 141 61 232 148 c 0,17,18
 273 187 273 187 370 313 c 2,19,-1
 644 668 l 1,20,-1
 385 1048 l 2,21,22
 300 1173 300 1173 254 1218 c 0,23,24
 167 1304 167 1304 66 1307 c 1,25,-1
 66 1355 l 1,26,-1
 675 1355 l 1,27,-1
 675 1307 l 1,28,-1
 651 1307 l 2,29,30
 526 1307 526 1307 526 1249 c 0,31,32
 526 1196 526 1196 778 832 c 1,33,-1
 994 1100 l 2,34,35
 1072 1197 1072 1197 1072 1245 c 0,36,37
 1072 1300 1072 1300 942 1307 c 1,38,-1
 942 1355 l 1,39,-1
 1418 1355 l 1,40,-1
 1418 1307 l 1,41,42
 1303 1301 1303 1301 1205 1208 c 0,43,44
 1171 1176 1171 1176 1050 1022 c 2,45,-1
 839 754 l 1,46,-1
 1109 341 l 2,47,48
 1195 209 1195 209 1244 156 c 0,49,50
 1340 51 1340 51 1433 48 c 1,51,-1
 1433 0 l 1,0,-1
EndSplineSet
EndChar

StartChar: Y
Encoding: 89 89 55
Width: 1479
Flags: W
LayerCount: 2
Fore
SplineSet
1425 1296 m 1,0,1
 1317 1283 1317 1283 1201 1140 c 0,2,3
 1165 1096 1165 1096 1041 903 c 2,4,-1
 849 605 l 1,5,-1
 849 263 l 2,6,7
 849 137 849 137 885 98.5 c 128,-1,8
 921 60 921 60 1045 56 c 1,9,-1
 1045 0 l 1,10,-1
 432 0 l 1,11,-1
 432 56 l 1,12,13
 553 60 553 60 590 91 c 0,14,15
 633 127 633 127 633 246 c 2,16,-1
 633 588 l 1,17,-1
 309 1078 l 2,18,19
 240 1183 240 1183 204 1221 c 0,20,21
 135 1295 135 1295 54 1305 c 1,22,-1
 54 1356 l 1,23,-1
 626 1356 l 1,24,-1
 626 1300 l 1,25,-1
 590 1301 l 2,26,27
 477 1304 477 1304 477 1248 c 1,28,-1
 481 1244 l 1,29,30
 493 1186 493 1186 808 722 c 1,31,32
 1116 1180 1116 1180 1116 1233 c 0,33,34
 1116 1303 1116 1303 978 1300 c 1,35,-1
 978 1356 l 1,36,-1
 1425 1356 l 1,37,-1
 1425 1296 l 1,0,1
EndSplineSet
EndChar

StartChar: Z
Encoding: 90 90 56
Width: 1251
Flags: W
LayerCount: 2
Fore
SplineSet
1215 365 m 1,0,-1
 1170 0 l 1,1,-1
 36 0 l 1,2,-1
 36 41 l 1,3,-1
 887 1272 l 1,4,-1
 468 1272 l 2,5,6
 294 1272 294 1272 229 1221 c 0,7,8
 161 1168 161 1168 129 1000 c 1,9,-1
 73 1000 l 1,10,-1
 103 1356 l 1,11,-1
 1170 1356 l 1,12,-1
 1170 1324 l 1,13,-1
 315 86 l 1,14,-1
 754 86 l 2,15,16
 954 86 954 86 1023 130 c 0,17,18
 1102 181 1102 181 1159 365 c 1,19,-1
 1215 365 l 1,0,-1
EndSplineSet
EndChar

StartChar: bracketleft
Encoding: 91 91 57
Width: 682
Flags: W
LayerCount: 2
Fore
SplineSet
572 -341 m 1,0,-1
 110 -341 l 1,1,-1
 110 1356 l 1,2,-1
 572 1356 l 1,3,-1
 572 1298 l 1,4,-1
 414 1298 l 2,5,6
 300 1298 300 1298 300 1211 c 0,7,8
 300 1194 300 1194 302 1159.5 c 128,-1,9
 304 1125 304 1125 304 1108 c 2,10,-1
 304 -112 l 2,11,12
 304 -117 304 -117 302 -126.5 c 128,-1,13
 300 -136 300 -136 300 -140 c 0,14,15
 300 -219 300 -219 331.5 -251 c 128,-1,16
 363 -283 363 -283 441 -283 c 0,17,18
 463 -283 463 -283 506.5 -281 c 128,-1,19
 550 -279 550 -279 572 -279 c 1,20,-1
 572 -341 l 1,0,-1
EndSplineSet
EndChar

StartChar: backslash
Encoding: 92 92 58
Width: 569
Flags: W
LayerCount: 2
Fore
SplineSet
563 -22 m 1,0,-1
 464 -22 l 1,1,-1
 6 1412 l 1,2,-1
 114 1412 l 1,3,-1
 563 -22 l 1,0,-1
EndSplineSet
EndChar

StartChar: bracketright
Encoding: 93 93 59
Width: 682
Flags: W
LayerCount: 2
Fore
SplineSet
572 -341 m 1,0,-1
 110 -341 l 1,1,-1
 110 -283 l 1,2,-1
 300 -283 l 2,3,4
 351 -283 351 -283 369 -255 c 0,5,6
 382 -234 382 -234 382 -179 c 2,7,-1
 382 1166 l 2,8,9
 382 1231 382 1231 365 1258 c 0,10,11
 343 1293 343 1293 278 1293 c 2,12,-1
 110 1293 l 1,13,-1
 110 1356 l 1,14,-1
 572 1356 l 1,15,-1
 572 -341 l 1,0,-1
EndSplineSet
EndChar

StartChar: asciicircum
Encoding: 94 94 60
Width: 961
Flags: W
LayerCount: 2
Fore
SplineSet
912 608 m 1,0,-1
 773 608 l 1,1,-1
 480 1200 l 1,2,-1
 187 608 l 1,3,-1
 48 608 l 1,4,-1
 419 1356 l 1,5,-1
 542 1356 l 1,6,-1
 912 608 l 1,0,-1
EndSplineSet
EndChar

StartChar: underscore
Encoding: 95 95 61
Width: 1024
Flags: W
LayerCount: 2
Fore
SplineSet
1024 -256 m 1,0,-1
 0 -256 l 1,1,-1
 0 -154 l 1,2,-1
 1024 -154 l 1,3,-1
 1024 -256 l 1,0,-1
EndSplineSet
EndChar

StartChar: grave
Encoding: 96 96 62
Width: 682
Flags: W
LayerCount: 2
Fore
SplineSet
521 1077 m 1,0,-1
 474 1077 l 1,1,-1
 216 1330 l 2,2,3
 193 1353 193 1353 193 1387 c 0,4,5
 193 1452 193 1452 253 1452 c 0,6,7
 312 1452 312 1452 342 1398 c 2,8,-1
 521 1077 l 1,0,-1
EndSplineSet
EndChar

StartChar: a
Encoding: 97 97 63
Width: 909
Flags: W
LayerCount: 2
Fore
SplineSet
870 73 m 1,0,1
 782 -26 782 -26 684 -26 c 0,2,3
 583 -26 583 -26 551 114 c 1,4,5
 391 -19 391 -19 244 -19 c 0,6,7
 153 -19 153 -19 94 57 c 0,8,9
 39 127 39 127 39 220 c 0,10,11
 39 383 39 383 223 496 c 0,12,13
 319 555 319 555 551 633 c 1,14,-1
 551 728 l 2,15,16
 551 892 551 892 404 892 c 0,17,18
 250 892 250 892 250 805 c 0,19,20
 250 792 250 792 253.5 766.5 c 128,-1,21
 257 741 257 741 257 728 c 0,22,23
 257 635 257 635 164 635 c 0,24,25
 69 635 69 635 69 736 c 0,26,27
 69 845 69 845 195 905 c 0,28,29
 294 952 294 952 417 952 c 0,30,31
 578 952 578 952 651.5 876.5 c 128,-1,32
 725 801 725 801 725 640 c 2,33,-1
 725 196 l 2,34,35
 725 99 725 99 790 99 c 0,36,37
 818 99 818 99 870 138 c 1,38,-1
 870 73 l 1,0,1
548 196 m 1,39,-1
 548 561 l 1,40,41
 393 513 393 513 334 475 c 0,42,43
 225 405 225 405 225 287 c 0,44,45
 225 222 225 222 258 169 c 0,46,47
 297 108 297 108 358 108 c 0,48,49
 454 108 454 108 548 196 c 1,39,-1
EndSplineSet
EndChar

StartChar: b
Encoding: 98 98 64
Width: 1024
Flags: W
LayerCount: 2
Fore
SplineSet
986 490 m 0,0,1
 986 279 986 279 850 132 c 0,2,3
 711 -19 711 -19 502 -19 c 0,4,5
 415 -19 415 -19 326 8 c 0,6,7
 223 39 223 39 172 93 c 1,8,-1
 172 1164 l 2,9,10
 172 1240 172 1240 140 1264 c 0,11,12
 114 1284 114 1284 38 1283 c 1,13,-1
 38 1315 l 1,14,-1
 342 1412 l 1,15,-1
 342 803 l 1,16,17
 474 954 474 954 632 954 c 0,18,19
 800 954 800 954 900 801 c 0,20,21
 986 669 986 669 986 490 c 0,0,1
802 423 m 0,22,23
 802 568 802 568 747 677 c 0,24,25
 678 814 678 814 548 814 c 0,26,27
 474 814 474 814 414 779 c 0,28,29
 342 737 342 737 342 669 c 2,30,-1
 342 134 l 1,31,32
 443 56 443 56 558 56 c 0,33,34
 691 56 691 56 754 180 c 0,35,36
 802 276 802 276 802 423 c 0,22,23
EndSplineSet
EndChar

StartChar: c
Encoding: 99 99 65
Width: 909
Flags: W
LayerCount: 2
Fore
SplineSet
862 304 m 1,0,1
 725 -22 725 -22 447 -22 c 0,2,3
 266 -22 266 -22 152 129 c 0,4,5
 47 268 47 268 47 453 c 0,6,7
 47 658 47 658 178 801 c 0,8,9
 313 948 313 948 516 948 c 0,10,11
 630 948 630 948 726 893 c 0,12,13
 840 828 840 828 840 721 c 0,14,15
 840 628 840 628 751 628 c 0,16,17
 675 628 675 628 653 695 c 0,18,19
 641 736 641 736 616 819 c 1,20,21
 583 885 583 885 486 885 c 0,22,23
 357 885 357 885 281 766 c 0,24,25
 216 664 216 664 216 527 c 0,26,27
 216 371 216 371 296 259 c 0,28,29
 386 134 386 134 535 134 c 0,30,31
 632 134 632 134 704 191 c 0,32,33
 758 234 758 234 820 330 c 1,34,-1
 862 304 l 1,0,1
EndSplineSet
EndChar

StartChar: d
Encoding: 100 100 66
Width: 1024
Flags: W
LayerCount: 2
Fore
SplineSet
988 89 m 1,0,-1
 675 -26 l 1,1,-1
 675 93 l 1,2,3
 579 25 579 25 550 10 c 0,4,5
 487 -22 487 -22 403 -22 c 0,6,7
 233 -22 233 -22 129 122 c 0,8,9
 36 251 36 251 36 428 c 0,10,11
 36 628 36 628 149 782 c 0,12,13
 274 952 274 952 468 952 c 0,14,15
 571 952 571 952 675 872 c 1,16,-1
 675 1170 l 2,17,18
 675 1283 675 1283 604 1283 c 0,19,20
 571 1283 571 1283 537 1274 c 1,21,-1
 537 1315 l 1,22,-1
 846 1412 l 1,23,-1
 846 227 l 2,24,25
 846 117 846 117 923 119 c 1,26,-1
 934 123 l 1,27,28
 973 123 973 123 988 125 c 1,29,-1
 988 89 l 1,0,-1
675 190 m 1,30,-1
 675 592 l 2,31,32
 675 728 675 728 640 794 c 0,33,34
 592 885 592 885 468 885 c 0,35,36
 342 885 342 885 272 762 c 0,37,38
 215 661 215 661 215 525 c 0,39,40
 215 366 215 366 278 244 c 0,41,42
 356 93 356 93 500 93 c 0,43,44
 609 93 609 93 675 190 c 1,30,-1
EndSplineSet
EndChar

StartChar: e
Encoding: 101 101 67
Width: 909
Flags: W
LayerCount: 2
Fore
SplineSet
865 335 m 1,0,1
 714 -26 714 -26 431 -26 c 0,2,3
 240 -26 240 -26 135 121 c 0,4,5
 44 250 44 250 44 449 c 0,6,7
 44 649 44 649 151 794 c 0,8,9
 269 954 269 954 463 954 c 0,10,11
 642 954 642 954 739 822 c 0,12,13
 823 708 823 708 832 520 c 1,14,-1
 206 520 l 1,15,16
 206 516 206 516 205 509.5 c 128,-1,17
 204 503 204 503 204 499 c 0,18,19
 204 340 204 340 283 238 c 0,20,21
 369 125 369 125 524 125 c 0,22,23
 698 125 698 125 824 352 c 1,24,-1
 865 335 l 1,0,1
634 592 m 1,25,26
 609 870 609 870 418 870 c 0,27,28
 226 870 226 870 211 592 c 1,29,-1
 634 592 l 1,25,26
EndSplineSet
EndChar

StartChar: f
Encoding: 102 102 68
Width: 682
Flags: W
LayerCount: 2
Fore
SplineSet
712 1267 m 0,0,1
 712 1185 712 1185 630 1185 c 0,2,3
 578 1185 578 1185 526 1259.5 c 128,-1,4
 474 1334 474 1334 427 1334 c 0,5,6
 309 1334 309 1334 309 1108 c 0,7,8
 309 988 309 988 315 928 c 1,9,-1
 561 928 l 1,10,-1
 561 851 l 1,11,-1
 315 851 l 1,12,-1
 315 248 l 2,13,14
 315 115 315 115 341 82 c 0,15,16
 373 41 373 41 501 37 c 1,17,-1
 501 0 l 1,18,-1
 -30 0 l 1,19,-1
 -30 37 l 1,20,21
 74 36 74 36 108 86 c 0,22,23
 134 125 134 125 134 235 c 2,24,-1
 134 851 l 1,25,-1
 -30 851 l 1,26,-1
 -30 928 l 1,27,-1
 134 928 l 1,28,29
 146 1406 146 1406 494 1406 c 0,30,31
 573 1406 573 1406 635 1376 c 0,32,33
 712 1339 712 1339 712 1267 c 0,0,1
EndSplineSet
EndChar

StartChar: g
Encoding: 103 103 69
Width: 1024
Flags: W
LayerCount: 2
Fore
SplineSet
968 803 m 1,0,-1
 808 803 l 1,1,2
 845 675 845 675 845 624 c 0,3,4
 845 487 845 487 744.5 393.5 c 128,-1,5
 644 300 644 300 506 300 c 1,6,-1
 499 304 l 1,7,8
 463 308 463 308 391 320 c 1,9,10
 292 252 292 252 287 196 c 1,11,12
 309 140 309 140 588 140 c 0,13,14
 758 140 758 140 838 103 c 0,15,16
 955 48 955 48 955 -101 c 0,17,18
 955 -258 955 -258 759 -361 c 0,19,20
 595 -447 595 -447 421 -447 c 0,21,22
 301 -447 301 -447 191 -394 c 0,23,24
 56 -329 56 -329 56 -222 c 0,25,26
 56 -182 56 -182 140 -99 c 0,27,28
 157 -82 157 -82 257 11 c 1,29,30
 154 55 154 55 154 114 c 0,31,32
 154 172 154 172 201 221 c 0,33,34
 217 237 217 237 290 304 c 0,35,36
 301 317 301 317 328 339 c 1,37,38
 143 444 143 444 143 620 c 0,39,40
 143 777 143 777 253 871 c 0,41,42
 357 959 357 959 516 959 c 0,43,44
 586 959 586 959 696 918 c 0,45,46
 755 896 755 896 830 894 c 1,47,48
 786 895 786 895 968 896 c 1,49,-1
 968 803 l 1,0,-1
676 550 m 0,50,51
 676 669 676 669 631 767 c 0,52,53
 574 892 574 892 469 892 c 0,54,55
 320 892 320 892 320 702 c 0,56,57
 320 582 320 582 360 489 c 0,58,59
 413 365 413 365 516 365 c 0,60,61
 594 365 594 365 637 420 c 0,62,63
 676 470 676 470 676 550 c 0,50,51
886 -127 m 0,64,65
 886 -82 886 -82 845 -55 c 0,66,67
 810 -32 810 -32 762 -30 c 2,68,-1
 454 -19 l 1,69,70
 407 -12 407 -12 313 -4 c 1,71,72
 292 -29 292 -29 252 -80 c 0,73,74
 216 -127 216 -127 216 -166 c 0,75,76
 216 -315 216 -315 529 -315 c 0,77,78
 651 -315 651 -315 750 -278 c 0,79,80
 886 -227 886 -227 886 -127 c 0,64,65
EndSplineSet
EndChar

StartChar: h
Encoding: 104 104 70
Width: 1024
Flags: W
LayerCount: 2
Fore
SplineSet
1002 0 m 1,0,-1
 560 0 l 1,1,-1
 560 37 l 1,2,3
 647 43 647 43 676 90 c 0,4,5
 698 126 698 126 698 220 c 2,6,-1
 698 607 l 2,7,8
 698 715 698 715 674 760 c 0,9,10
 639 825 639 825 542 825 c 0,11,12
 482 825 482 825 425 787 c 0,13,14
 398 769 398 769 328 706 c 1,15,-1
 328 220 l 2,16,17
 328 129 328 129 349 93 c 0,18,19
 376 46 376 46 460 37 c 1,20,-1
 460 0 l 1,21,-1
 22 0 l 1,22,-1
 22 37 l 1,23,24
 105 43 105 43 132 93 c 0,25,26
 151 129 151 129 151 220 c 2,27,-1
 151 1179 l 2,28,29
 151 1249 151 1249 123 1268 c 0,30,31
 101 1283 101 1283 28 1283 c 1,32,-1
 28 1324 l 1,33,-1
 328 1416 l 1,34,-1
 328 803 l 1,35,36
 423 885 423 885 462 907 c 0,37,38
 535 948 535 948 626 948 c 0,39,40
 877 948 877 948 877 613 c 2,41,-1
 877 220 l 2,42,43
 877 130 877 130 895 96 c 0,44,45
 921 46 921 46 1002 37 c 1,46,-1
 1002 0 l 1,0,-1
EndSplineSet
EndChar

StartChar: i
Encoding: 105 105 71
Width: 569
Flags: W
LayerCount: 2
Fore
SplineSet
369 1252 m 0,0,1
 369 1211 369 1211 340 1182 c 128,-1,2
 311 1153 311 1153 270 1153 c 0,3,4
 230 1153 230 1153 199 1182.5 c 128,-1,5
 168 1212 168 1212 168 1252 c 256,6,7
 168 1292 168 1292 199 1322 c 128,-1,8
 230 1352 230 1352 270 1352 c 0,9,10
 313 1352 313 1352 341 1323.5 c 128,-1,11
 369 1295 369 1295 369 1252 c 0,0,1
528 0 m 1,12,-1
 41 0 l 1,13,-1
 41 41 l 1,14,15
 146 41 146 41 177 88 c 0,16,17
 200 123 200 123 200 228 c 2,18,-1
 200 691 l 2,19,20
 200 814 200 814 138 814 c 0,21,22
 133 814 133 814 51 803 c 1,23,-1
 51 840 l 1,24,-1
 380 959 l 1,25,-1
 380 242 l 2,26,27
 380 129 380 129 398 95 c 0,28,29
 427 41 427 41 528 41 c 1,30,-1
 528 0 l 1,12,-1
EndSplineSet
EndChar

StartChar: j
Encoding: 106 106 72
Width: 569
Flags: W
LayerCount: 2
Fore
SplineSet
382 1252 m 0,0,1
 382 1211 382 1211 353 1182 c 128,-1,2
 324 1153 324 1153 283 1153 c 0,3,4
 243 1153 243 1153 212 1182.5 c 128,-1,5
 181 1212 181 1212 181 1252 c 256,6,7
 181 1292 181 1292 212 1322 c 128,-1,8
 243 1352 243 1352 283 1352 c 0,9,10
 326 1352 326 1352 354 1323.5 c 128,-1,11
 382 1295 382 1295 382 1252 c 0,0,1
380 26 m 2,12,13
 380 -443 380 -443 23 -443 c 0,14,15
 -47 -443 -47 -443 -99 -419 c 0,16,17
 -167 -388 -167 -388 -167 -326 c 0,18,19
 -167 -246 -167 -246 -85 -246 c 0,20,21
 -43 -246 -43 -246 14.5 -306.5 c 128,-1,22
 72 -367 72 -367 110 -367 c 0,23,24
 205 -367 205 -367 205 -194 c 2,25,-1
 205 710 l 2,26,27
 205 818 205 818 136 818 c 0,28,29
 131 818 131 818 49 799 c 1,30,-1
 49 840 l 1,31,-1
 380 959 l 1,32,-1
 380 26 l 2,12,13
EndSplineSet
EndChar

StartChar: k
Encoding: 107 107 73
Width: 1024
Flags: W
LayerCount: 2
Fore
SplineSet
1021 0 m 1,0,-1
 571 0 l 1,1,-1
 571 37 l 1,2,3
 649 37 649 37 649 60 c 0,4,5
 649 69 649 69 334 501 c 1,6,-1
 334 201 l 2,7,8
 334 42 334 42 483 37 c 1,9,-1
 483 0 l 1,10,-1
 3 0 l 1,11,-1
 3 37 l 1,12,13
 96 41 96 41 133 93 c 0,14,15
 163 136 163 136 163 234 c 2,16,-1
 163 1179 l 2,17,18
 163 1276 163 1276 82 1276 c 0,19,20
 70 1276 70 1276 46 1275 c 128,-1,21
 22 1274 22 1274 10 1274 c 1,22,-1
 10 1315 l 1,23,-1
 334 1408 l 1,24,-1
 334 542 l 1,25,-1
 514 696 l 2,26,27
 658 822 658 822 658 851 c 0,28,29
 658 874 658 874 616 882 c 0,30,31
 586 885 586 885 556 887 c 1,32,-1
 556 926 l 1,33,-1
 979 926 l 1,34,-1
 979 887 l 1,35,36
 870 878 870 878 800 839 c 0,37,38
 750 811 750 811 653 726 c 2,39,-1
 483 577 l 1,40,-1
 720 259 l 2,41,42
 876 50 876 50 1021 37 c 1,43,-1
 1021 0 l 1,0,-1
EndSplineSet
EndChar

StartChar: l
Encoding: 108 108 74
Width: 569
Flags: W
LayerCount: 2
Fore
SplineSet
532 0 m 1,0,-1
 37 0 l 1,1,-1
 37 37 l 1,2,3
 140 37 140 37 173 88 c 0,4,5
 197 125 197 125 197 236 c 2,6,-1
 197 1164 l 2,7,8
 197 1283 197 1283 119 1283 c 1,9,-1
 115 1285 l 1,10,11
 74 1285 74 1285 37 1278 c 1,12,-1
 37 1315 l 1,13,-1
 376 1416 l 1,14,-1
 376 212 l 2,15,16
 376 117 376 117 406 81 c 0,17,18
 439 40 439 40 532 37 c 1,19,-1
 532 0 l 1,0,-1
EndSplineSet
EndChar

StartChar: m
Encoding: 109 109 75
Width: 1593
Flags: W
LayerCount: 2
Fore
SplineSet
1575 0 m 1,0,-1
 1119 0 l 1,1,-1
 1119 37 l 1,2,3
 1214 41 1214 41 1243 89 c 0,4,5
 1264 124 1264 124 1264 225 c 2,6,-1
 1264 620 l 2,7,8
 1264 836 1264 836 1100 836 c 0,9,10
 1002 836 1002 836 888 721 c 1,11,-1
 888 238 l 2,12,13
 888 130 888 130 907 96 c 0,14,15
 936 45 936 45 1033 37 c 1,16,-1
 1033 0 l 1,17,-1
 569 0 l 1,18,-1
 569 37 l 1,19,20
 661 41 661 41 691 87 c 0,21,22
 713 121 713 121 713 215 c 2,23,-1
 713 602 l 2,24,25
 713 833 713 833 558 833 c 0,26,27
 457 833 457 833 338 728 c 1,28,-1
 338 238 l 2,29,30
 338 131 338 131 357 95 c 0,31,32
 386 41 386 41 482 37 c 1,33,-1
 482 0 l 1,34,-1
 18 0 l 1,35,-1
 18 37 l 1,36,37
 115 41 115 41 144 95 c 0,38,39
 163 131 163 131 163 238 c 2,40,-1
 163 695 l 2,41,42
 163 810 163 810 81 810 c 0,43,44
 54 810 54 810 29 805 c 1,45,-1
 29 846 l 1,46,-1
 333 959 l 1,47,-1
 333 799 l 1,48,49
 430 874 430 874 480 901 c 0,50,51
 567 948 567 948 651 948 c 0,52,53
 804 948 804 948 869 779 c 1,54,55
 957 868 957 868 1011 901 c 0,56,57
 1094 952 1094 952 1188 952 c 0,58,59
 1435 952 1435 952 1435 620 c 2,60,-1
 1435 220 l 2,61,62
 1435 123 1435 123 1456 88 c 0,63,64
 1485 39 1485 39 1575 37 c 1,65,-1
 1575 0 l 1,0,-1
EndSplineSet
EndChar

StartChar: n
Encoding: 110 110 76
Width: 1024
Flags: W
LayerCount: 2
Fore
SplineSet
994 0 m 1,0,-1
 562 0 l 1,1,-1
 562 41 l 1,2,3
 643 44 643 44 671 94 c 0,4,5
 691 130 691 130 691 216 c 2,6,-1
 691 587 l 2,7,8
 691 821 691 821 551 821 c 1,9,-1
 547 825 l 1,10,11
 458 825 458 825 339 706 c 1,12,-1
 339 216 l 2,13,14
 339 130 339 130 359 95 c 0,15,16
 387 45 387 45 469 41 c 1,17,-1
 469 0 l 1,18,-1
 30 0 l 1,19,-1
 30 41 l 1,20,21
 113 45 113 45 140 92 c 0,22,23
 161 129 161 129 161 361 c 2,24,-1
 160 650 l 2,25,26
 160 818 160 818 67 818 c 0,27,28
 61 818 61 818 30 814 c 1,29,-1
 30 851 l 1,30,-1
 339 959 l 1,31,-1
 339 799 l 1,32,33
 453 895 453 895 466 903 c 0,34,35
 535 948 535 948 622 948 c 0,36,37
 744 948 744 948 808 863 c 0,38,39
 866 787 866 787 866 661 c 2,40,-1
 866 216 l 2,41,42
 866 131 866 131 886 96 c 0,43,44
 912 51 912 51 994 37 c 1,45,-1
 994 0 l 1,0,-1
EndSplineSet
EndChar

StartChar: o
Encoding: 111 111 77
Width: 1024
Flags: W
LayerCount: 2
Fore
SplineSet
965 494 m 0,0,1
 965 285 965 285 840 137 c 0,2,3
 709 -19 709 -19 503 -19 c 0,4,5
 306 -19 306 -19 180 123 c 0,6,7
 59 259 59 259 59 458 c 0,8,9
 59 670 59 670 186 810 c 0,10,11
 317 954 317 954 527 954 c 0,12,13
 726 954 726 954 847 822 c 0,14,15
 965 695 965 695 965 494 c 0,0,1
771 412 m 0,16,17
 771 583 771 583 712 715 c 0,18,19
 635 887 635 887 486 887 c 0,20,21
 360 887 360 887 298 770 c 0,22,23
 249 678 249 678 249 540 c 0,24,25
 249 362 249 362 307 226 c 0,26,27
 384 45 384 45 538 45 c 0,28,29
 771 45 771 45 771 412 c 0,16,17
EndSplineSet
EndChar

StartChar: p
Encoding: 112 112 78
Width: 1024
Flags: W
LayerCount: 2
Fore
SplineSet
994 510 m 0,0,1
 994 303 994 303 878 148 c 0,2,3
 751 -22 751 -22 551 -22 c 0,4,5
 465 -22 465 -22 359 56 c 1,6,-1
 359 -201 l 2,7,8
 359 -321 359 -321 383 -356 c 0,9,10
 415 -402 415 -402 529 -402 c 1,11,-1
 529 -443 l 1,12,-1
 30 -443 l 1,13,-1
 30 -402 l 1,14,15
 129 -398 129 -398 157 -345 c 0,16,17
 175 -311 175 -311 175 -201 c 2,18,-1
 175 738 l 2,19,20
 175 814 175 814 119 814 c 0,21,22
 97 814 97 814 46 810 c 1,23,-1
 46 851 l 1,24,-1
 359 965 l 1,25,-1
 359 818 l 1,26,27
 507 954 507 954 648 954 c 0,28,29
 811 954 811 954 908 809 c 0,30,31
 994 681 994 681 994 510 c 0,0,1
808 432 m 0,32,33
 808 578 808 578 754 684 c 0,34,35
 686 818 686 818 555 818 c 0,36,37
 455 818 455 818 359 702 c 1,38,-1
 359 175 l 1,39,40
 440 60 440 60 562 60 c 0,41,42
 690 60 690 60 756 189 c 0,43,44
 808 290 808 290 808 432 c 0,32,33
EndSplineSet
EndChar

StartChar: q
Encoding: 113 113 79
Width: 1024
Flags: W
LayerCount: 2
Fore
SplineSet
991 -443 m 1,0,-1
 506 -443 l 1,1,-1
 506 -402 l 1,2,3
 623 -403 623 -403 657 -348 c 0,4,5
 680 -310 680 -310 680 -184 c 2,6,-1
 680 112 l 1,7,8
 517 -26 517 -26 382 -26 c 0,9,10
 213 -26 213 -26 117 117 c 0,11,12
 33 242 33 242 33 419 c 0,13,14
 33 638 33 638 158 790 c 0,15,16
 291 952 291 952 506 952 c 0,17,18
 601 952 601 952 728 885 c 1,19,-1
 855 965 l 1,20,-1
 855 -221 l 2,21,22
 855 -306 855 -306 878 -346 c 0,23,24
 909 -400 909 -400 991 -402 c 1,25,-1
 991 -443 l 1,0,-1
680 207 m 1,26,-1
 680 669 l 2,27,28
 680 777 680 777 643 827 c 0,29,30
 599 885 599 885 495 885 c 0,31,32
 351 885 351 885 276 750 c 0,33,34
 216 642 216 642 216 484 c 0,35,36
 216 334 216 334 277 233 c 0,37,38
 350 112 350 112 490 112 c 0,39,40
 602 112 602 112 680 207 c 1,26,-1
EndSplineSet
EndChar

StartChar: r
Encoding: 114 114 80
Width: 682
Flags: W
LayerCount: 2
Fore
SplineSet
684 833 m 0,0,1
 684 794 684 794 661 765 c 128,-1,2
 638 736 638 736 600 736 c 0,3,4
 574 736 574 736 526 770.5 c 128,-1,5
 478 805 478 805 451 805 c 256,6,7
 424 805 424 805 375 751 c 128,-1,8
 326 697 326 697 326 669 c 2,9,-1
 326 192 l 2,10,11
 326 98 326 98 369 66 c 0,12,13
 403 41 403 41 496 41 c 1,14,-1
 496 0 l 1,15,-1
 -2 0 l 1,16,-1
 -2 41 l 1,17,18
 88 41 88 41 119 92 c 0,19,20
 142 130 142 130 142 222 c 2,21,-1
 142 650 l 2,22,23
 142 810 142 810 73 810 c 0,24,25
 67 810 67 810 -2 799 c 1,26,-1
 -2 836 l 1,27,-1
 326 963 l 1,28,-1
 326 773 l 1,29,30
 448 952 448 952 563 952 c 0,31,32
 684 952 684 952 684 833 c 0,0,1
EndSplineSet
EndChar

StartChar: s
Encoding: 115 115 81
Width: 797
Flags: W
LayerCount: 2
Fore
SplineSet
707 242 m 0,0,1
 707 120 707 120 609 46 c 0,2,3
 520 -22 520 -22 394 -22 c 0,4,5
 355 -22 355 -22 280.5 -1.5 c 128,-1,6
 206 19 206 19 172 19 c 0,7,8
 153 19 153 19 129 -6 c 1,9,-1
 90 -6 l 1,10,-1
 90 304 l 1,11,-1
 135 304 l 1,12,13
 198 37 198 37 409 37 c 0,14,15
 472 37 472 37 514 76.5 c 128,-1,16
 556 116 556 116 556 179 c 0,17,18
 556 265 556 265 435 339 c 0,19,20
 360 384 360 384 211 474 c 1,21,22
 90 567 90 567 90 695 c 0,23,24
 90 808 90 808 174 882 c 0,25,26
 254 954 254 954 368 954 c 0,27,28
 407 954 407 954 483.5 932.5 c 128,-1,29
 560 911 560 911 599 911 c 0,30,31
 610 911 610 911 636 933 c 1,32,-1
 655 933 l 1,33,-1
 660 654 l 1,34,-1
 621 654 l 1,35,36
 568 898 568 898 373 898 c 0,37,38
 313 898 313 898 270.5 859.5 c 128,-1,39
 228 821 228 821 228 762 c 0,40,41
 228 677 228 677 352 605 c 2,42,-1
 583 470 l 1,43,44
 707 376 707 376 707 242 c 0,0,1
EndSplineSet
EndChar

StartChar: t
Encoding: 116 116 82
Width: 569
Flags: W
LayerCount: 2
Fore
SplineSet
581 134 m 1,0,1
 451 -30 451 -30 322 -30 c 0,2,3
 143 -30 143 -30 143 246 c 2,4,-1
 143 844 l 1,5,-1
 -12 844 l 1,6,-1
 -12 898 l 1,7,8
 131 918 131 918 190 983 c 0,9,10
 244 1043 244 1043 266 1190 c 1,11,-1
 327 1190 l 1,12,-1
 327 926 l 1,13,-1
 530 926 l 1,14,-1
 530 844 l 1,15,-1
 327 844 l 1,16,-1
 327 242 l 2,17,18
 327 93 327 93 430 93 c 0,19,20
 489 93 489 93 553 164 c 1,21,-1
 581 134 l 1,0,1
EndSplineSet
EndChar

StartChar: u
Encoding: 117 117 83
Width: 1024
Flags: W
LayerCount: 2
Fore
SplineSet
998 73 m 1,0,-1
 700 -26 l 1,1,-1
 700 138 l 1,2,3
 607 56 607 56 568 29 c 0,4,5
 486 -26 486 -26 411 -26 c 0,6,7
 154 -26 154 -26 154 304 c 2,8,-1
 154 773 l 2,9,10
 154 840 154 840 123 867 c 0,11,12
 95 891 95 891 26 892 c 1,13,-1
 26 928 l 1,14,-1
 331 928 l 1,15,-1
 331 330 l 2,16,17
 331 99 331 99 464 99 c 0,18,19
 520 99 520 99 587 134 c 0,20,21
 651 167 651 167 689 212 c 1,22,-1
 689 743 l 2,23,24
 689 833 689 833 658 859 c 0,25,26
 634 879 634 879 540 892 c 1,27,-1
 540 928 l 1,28,-1
 866 928 l 1,29,-1
 866 263 l 2,30,31
 866 163 866 163 884 140 c 0,32,33
 906 112 906 112 998 108 c 1,34,-1
 998 73 l 1,0,-1
EndSplineSet
EndChar

StartChar: v
Encoding: 118 118 84
Width: 1024
Flags: W
LayerCount: 2
Fore
SplineSet
982 887 m 1,0,1
 911 873 911 873 856 738 c 2,2,-1
 550 -19 l 1,3,-1
 511 -19 l 1,4,-1
 213 687 l 2,5,6
 167 797 167 797 155 815 c 0,7,8
 113 880 113 880 42 892 c 1,9,-1
 42 928 l 1,10,-1
 450 928 l 1,11,-1
 450 892 l 1,12,13
 353 892 353 892 353 833 c 1,14,-1
 358 829 l 1,15,16
 358 798 358 798 368 773 c 2,17,-1
 580 253 l 1,18,-1
 774 754 l 2,19,20
 792 800 792 800 792 829 c 0,21,22
 792 861 792 861 758 876 c 0,23,24
 750 880 750 880 697 892 c 1,25,-1
 697 928 l 1,26,-1
 982 928 l 1,27,-1
 982 887 l 1,0,1
EndSplineSet
EndChar

StartChar: w
Encoding: 119 119 85
Width: 1505
Flags: W
LayerCount: 2
Fore
SplineSet
1446 892 m 1,0,1
 1393 871 1393 871 1348 758 c 2,2,-1
 1042 -15 l 1,3,-1
 1007 -15 l 1,4,-1
 776 531 l 1,5,-1
 528 -15 l 1,6,-1
 487 -15 l 1,7,-1
 172 762 l 2,8,9
 148 822 148 822 132 844 c 0,10,11
 106 881 106 881 59 896 c 1,12,-1
 59 928 l 1,13,-1
 439 928 l 1,14,-1
 439 896 l 1,15,16
 346 877 346 877 347 825 c 1,17,-1
 349 821 l 1,18,19
 350 792 350 792 364 754 c 2,20,-1
 554 246 l 1,21,-1
 735 646 l 1,22,-1
 677 788 l 2,23,24
 654 845 654 845 636 863 c 0,25,26
 613 887 613 887 558 896 c 1,27,-1
 558 928 l 1,28,-1
 981 928 l 1,29,-1
 981 896 l 1,30,31
 863 877 863 877 863 825 c 0,32,33
 863 798 863 798 878 758 c 2,34,-1
 1063 263 l 1,35,-1
 1249 738 l 2,36,37
 1269 789 1269 789 1269 829 c 0,38,39
 1269 877 1269 877 1187 896 c 1,40,-1
 1187 928 l 1,41,-1
 1446 928 l 1,42,-1
 1446 892 l 1,0,1
EndSplineSet
EndChar

StartChar: x
Encoding: 120 120 86
Width: 1024
Flags: W
LayerCount: 2
Fore
SplineSet
988 0 m 1,0,-1
 567 0 l 1,1,-1
 567 37 l 1,2,-1
 563 41 l 1,3,-1
 583 41 l 2,4,5
 645 41 645 41 645 82 c 0,6,7
 645 122 645 122 455 402 c 1,8,9
 258 87 258 87 258 73 c 0,10,11
 258 54 258 54 290 47 c 2,12,-1
 336 37 l 1,13,-1
 336 0 l 1,14,-1
 36 0 l 1,15,-1
 36 41 l 1,16,17
 100 50 100 50 144 91 c 0,18,19
 168 113 168 113 217 186 c 2,20,-1
 412 475 l 1,21,-1
 222 769 l 2,22,23
 180 834 180 834 154 854 c 0,24,25
 122 878 122 878 51 892 c 1,26,-1
 51 928 l 1,27,-1
 485 928 l 1,28,-1
 485 887 l 1,29,30
 396 878 396 878 396 840 c 0,31,32
 396 814 396 814 515 633 c 1,33,34
 540 667 540 667 590 739.5 c 128,-1,35
 640 812 640 812 640 846 c 0,36,37
 640 868 640 868 615 877 c 2,38,-1
 571 887 l 1,39,-1
 571 928 l 1,40,-1
 897 928 l 1,41,-1
 897 885 l 1,42,43
 780 867 780 867 712 769 c 2,44,-1
 561 553 l 1,45,-1
 809 175 l 2,46,47
 852 109 852 109 882 83 c 0,48,49
 924 46 924 46 988 37 c 1,50,-1
 988 0 l 1,0,-1
EndSplineSet
EndChar

StartChar: y
Encoding: 121 121 87
Width: 1024
Flags: W
LayerCount: 2
Fore
SplineSet
986 896 m 1,0,1
 929 877 929 877 899 825 c 0,2,3
 889 807 889 807 856 717 c 0,4,5
 789 534 789 534 709 318 c 2,6,-1
 625 93 l 2,7,8
 536 -144 536 -144 480 -240 c 0,9,10
 359 -447 359 -447 217 -447 c 0,11,12
 157 -447 157 -447 114 -416 c 0,13,14
 67 -382 67 -382 64 -324 c 1,15,-1
 60 -315 l 1,16,17
 60 -277 60 -277 96 -251 c 0,18,19
 129 -227 129 -227 168 -227 c 0,20,21
 193 -227 193 -227 240 -247.5 c 128,-1,22
 287 -268 287 -268 312 -268 c 0,23,24
 373 -268 373 -268 432 -145 c 0,25,26
 434 -140 434 -140 502 32 c 1,27,-1
 219 669 l 2,28,29
 169 782 169 782 153 807 c 0,30,31
 103 886 103 886 38 896 c 1,32,-1
 38 928 l 1,33,-1
 470 928 l 1,34,-1
 470 896 l 1,35,36
 349 897 349 897 349 836 c 0,37,38
 349 801 349 801 460 550 c 0,39,40
 511 434 511 434 595 248 c 1,41,-1
 707 547 l 2,42,43
 800 800 800 800 800 840 c 0,44,45
 800 896 800 896 707 896 c 1,46,-1
 707 928 l 1,47,-1
 986 928 l 1,48,-1
 986 896 l 1,0,1
EndSplineSet
EndChar

StartChar: z
Encoding: 122 122 88
Width: 909
Flags: W
LayerCount: 2
Fore
SplineSet
869 287 m 1,0,-1
 843 0 l 1,1,-1
 40 0 l 1,2,-1
 597 851 l 1,3,-1
 340 851 l 2,4,5
 244 851 244 851 207 813 c 0,6,7
 174 778 174 778 165 680 c 1,8,-1
 118 680 l 1,9,-1
 118 928 l 1,10,-1
 869 928 l 1,11,-1
 299 78 l 1,12,-1
 608 78 l 2,13,14
 724 78 724 78 766 127 c 0,15,16
 800 166 800 166 819 287 c 1,17,-1
 869 287 l 1,0,-1
EndSplineSet
EndChar

StartChar: braceleft
Encoding: 123 123 89
Width: 983
Flags: W
LayerCount: 2
Fore
SplineSet
788 -479 m 1,0,1
 625 -462 625 -462 504 -381 c 0,2,3
 359 -284 359 -284 359 -134 c 0,4,5
 359 -68 359 -68 388 60 c 128,-1,6
 417 188 417 188 417 253 c 0,7,8
 417 425 417 425 195 510 c 1,9,-1
 195 557 l 1,10,11
 315 626 315 626 351 663 c 0,12,13
 417 730 417 730 417 833 c 0,14,15
 417 854 417 854 363 1188 c 1,16,-1
 361 1190 l 1,17,18
 361 1459 361 1459 788 1542 c 1,19,-1
 788 1486 l 1,20,21
 572 1416 572 1416 572 1196 c 0,22,23
 572 1140 572 1140 586.5 1029 c 128,-1,24
 601 918 601 918 601 862 c 0,25,26
 601 672 601 672 287 535 c 1,27,28
 601 413 601 413 601 164 c 0,29,30
 601 111 601 111 585.5 5.5 c 128,-1,31
 570 -100 570 -100 570 -153 c 0,32,33
 570 -359 570 -359 788 -432 c 1,34,-1
 788 -479 l 1,0,1
EndSplineSet
EndChar

StartChar: bar
Encoding: 124 124 90
Width: 410
Flags: W
LayerCount: 2
Fore
SplineSet
256 -22 m 1,0,-1
 154 -22 l 1,1,-1
 154 1412 l 1,2,-1
 256 1412 l 1,3,-1
 256 -22 l 1,0,-1
EndSplineSet
EndChar

StartChar: braceright
Encoding: 125 125 91
Width: 983
Flags: W
LayerCount: 2
Fore
SplineSet
788 499 m 1,0,1
 566 391 566 391 566 238 c 0,2,3
 566 176 566 176 594 55.5 c 128,-1,4
 622 -65 622 -65 622 -127 c 0,5,6
 622 -416 622 -416 195 -479 c 1,7,-1
 195 -428 l 1,8,9
 315 -384 315 -384 364 -307 c 0,10,11
 411 -234 411 -234 411 -104 c 0,12,13
 411 33 411 33 385 166 c 0,14,15
 380 191 380 191 380 179 c 1,16,17
 380 401 380 401 704 520 c 1,18,19
 567 568 567 568 481 653 c 0,20,21
 380 755 380 755 380 885 c 1,22,-1
 385 892 l 1,23,24
 385 946 385 946 399 1054 c 128,-1,25
 413 1162 413 1162 413 1216 c 0,26,27
 413 1313 413 1313 351.5 1390 c 128,-1,28
 290 1467 290 1467 195 1490 c 1,29,-1
 195 1542 l 1,30,31
 372 1515 372 1515 482 1438 c 0,32,33
 622 1341 622 1341 622 1181 c 0,34,35
 622 1119 622 1119 594 997 c 128,-1,36
 566 875 566 875 566 814 c 1,37,-1
 562 805 l 1,38,39
 562 637 562 637 788 551 c 1,40,-1
 788 499 l 1,0,1
EndSplineSet
EndChar

StartChar: asciitilde
Encoding: 126 126 92
Width: 1108
Flags: W
LayerCount: 2
Fore
SplineSet
1027 559 m 1,0,1
 964 470 964 470 921 436 c 0,2,3
 855 383 855 383 771 383 c 0,4,5
 696 383 696 383 552.5 452.5 c 128,-1,6
 409 522 409 522 327 522 c 0,7,8
 221 522 221 522 155 375 c 1,9,-1
 81 477 l 1,10,11
 171 653 171 653 337 653 c 0,12,13
 416 653 416 653 570.5 583.5 c 128,-1,14
 725 514 725 514 773 514 c 0,15,16
 859 514 859 514 953 662 c 1,17,-1
 1027 559 l 1,0,1
EndSplineSet
EndChar

StartChar: exclam
Encoding: 33 33 93
Width: 682
Flags: W
LayerCount: 2
Fore
SplineSet
455 1221 m 0,0,1
 455 1214 455 1214 434 989 c 2,2,-1
 378 380 l 2,3,4
 374 341 374 341 345 341 c 0,5,6
 315 341 315 341 311 380 c 2,7,-1
 248 989 l 2,8,9
 229 1178 229 1178 229 1231 c 0,10,11
 229 1406 229 1406 347 1406 c 0,12,13
 453 1406 453 1406 453 1235 c 0,14,15
 455 1232 455 1232 455 1221 c 0,0,1
460 97 m 0,16,17
 460 48 460 48 423 13 c 128,-1,18
 386 -22 386 -22 337 -22 c 0,19,20
 291 -22 291 -22 256.5 12.5 c 128,-1,21
 222 47 222 47 222 93 c 0,22,23
 222 144 222 144 257.5 178 c 128,-1,24
 293 212 293 212 345 212 c 0,25,26
 393 212 393 212 426.5 178.5 c 128,-1,27
 460 145 460 145 460 97 c 0,16,17
EndSplineSet
EndChar

StartChar: hyphen
Encoding: 45 45 94
Width: 682
Flags: W
LayerCount: 2
Fore
SplineSet
611 460 m 1,0,-1
 71 460 l 1,1,-1
 71 635 l 1,2,-1
 611 635 l 1,3,-1
 611 460 l 1,0,-1
EndSplineSet
EndChar

StartChar: uniE8F2
Encoding: 59634 59634 96
Width: 1500
Flags: W
LayerCount: 2
Fore
SplineSet
174 36 m 2,0,1
 164 29 164 29 154.5 26.5 c 128,-1,2
 145 24 145 24 136 24 c 0,3,4
 126 24 126 24 115.5 30 c 128,-1,5
 105 36 105 36 96.5 46 c 128,-1,6
 88 56 88 56 82.5 68.5 c 128,-1,7
 77 81 77 81 77 93 c 0,8,9
 77 119 77 119 108 140 c 2,10,-1
 1325 903 l 2,11,12
 1344 915 1344 915 1362 915 c 0,13,14
 1372 915 1372 915 1382.5 909 c 128,-1,15
 1393 903 1393 903 1402 893.5 c 128,-1,16
 1411 884 1411 884 1416.5 871 c 128,-1,17
 1422 858 1422 858 1422 845 c 0,18,19
 1422 818 1422 818 1391 799 c 2,20,-1
 174 36 l 2,0,1
750 1181 m 0,21,22
 689 1181 689 1181 689 1237 c 2,23,-1
 689 1904 l 2,24,25
 689 1930 689 1930 705.5 1944.5 c 128,-1,26
 722 1959 722 1959 750 1959 c 0,27,28
 777 1959 777 1959 793.5 1944.5 c 128,-1,29
 810 1930 810 1930 810 1904 c 2,30,-1
 810 1237 l 2,31,32
 810 1210 810 1210 794 1195.5 c 128,-1,33
 778 1181 778 1181 750 1181 c 0,21,22
EndSplineSet
EndChar

StartChar: uniE8F3
Encoding: 59635 59635 97
Width: 1500
Flags: W
LayerCount: 2
Fore
SplineSet
174 36 m 2,0,1
 164 29 164 29 154.5 26.5 c 128,-1,2
 145 24 145 24 136 24 c 0,3,4
 126 24 126 24 115.5 30 c 128,-1,5
 105 36 105 36 96.5 46 c 128,-1,6
 88 56 88 56 82.5 68.5 c 128,-1,7
 77 81 77 81 77 93 c 0,8,9
 77 119 77 119 108 140 c 2,10,-1
 1325 903 l 2,11,12
 1344 915 1344 915 1362 915 c 0,13,14
 1372 915 1372 915 1382.5 909 c 128,-1,15
 1393 903 1393 903 1402 893.5 c 128,-1,16
 1411 884 1411 884 1416.5 871 c 128,-1,17
 1422 858 1422 858 1422 845 c 0,18,19
 1422 818 1422 818 1391 799 c 2,20,-1
 174 36 l 2,0,1
634 1289 m 1,21,-1
 1147 1289 l 2,22,23
 1174 1289 1174 1289 1189.5 1275 c 128,-1,24
 1205 1261 1205 1261 1205 1236 c 256,25,26
 1205 1211 1205 1211 1189 1197 c 128,-1,27
 1173 1183 1173 1183 1147 1183 c 2,28,-1
 356 1183 l 1,29,-1
 346 1183 l 2,30,31
 332 1183 332 1183 322 1188.5 c 128,-1,32
 312 1194 312 1194 305.5 1202 c 128,-1,33
 299 1210 299 1210 296 1219.5 c 128,-1,34
 293 1229 293 1229 293 1238 c 0,35,36
 293 1257 293 1257 304.5 1268.5 c 128,-1,37
 316 1280 316 1280 333 1287 c 2,38,-1
 1127 1595 l 2,39,40
 1132 1597 1132 1597 1138.5 1598 c 128,-1,41
 1145 1599 1145 1599 1152 1599 c 0,42,43
 1175 1599 1175 1599 1191 1582 c 128,-1,44
 1207 1565 1207 1565 1207 1543 c 0,45,46
 1207 1525 1207 1525 1195.5 1513.5 c 128,-1,47
 1184 1502 1184 1502 1170 1497 c 2,48,-1
 634 1289 l 1,21,-1
EndSplineSet
EndChar

StartChar: uniE8F4
Encoding: 59636 59636 98
Width: 1500
Flags: W
LayerCount: 2
Fore
SplineSet
174 36 m 2,0,1
 164 29 164 29 154.5 26.5 c 128,-1,2
 145 24 145 24 136 24 c 0,3,4
 126 24 126 24 115.5 30 c 128,-1,5
 105 36 105 36 96.5 46 c 128,-1,6
 88 56 88 56 82.5 68.5 c 128,-1,7
 77 81 77 81 77 93 c 0,8,9
 77 119 77 119 108 140 c 2,10,-1
 1325 903 l 2,11,12
 1344 915 1344 915 1362 915 c 0,13,14
 1372 915 1372 915 1382.5 909 c 128,-1,15
 1393 903 1393 903 1402 893.5 c 128,-1,16
 1411 884 1411 884 1416.5 871 c 128,-1,17
 1422 858 1422 858 1422 845 c 0,18,19
 1422 818 1422 818 1391 799 c 2,20,-1
 174 36 l 2,0,1
893 1360 m 0,21,22
 805 1360 805 1360 750 1420 c 1,23,24
 693 1360 693 1360 606 1360 c 0,25,26
 562 1360 562 1360 520 1380 c 1,27,-1
 520 1238 l 2,28,29
 520 1212 520 1212 504.5 1198 c 128,-1,30
 489 1184 489 1184 464 1184 c 0,31,32
 438 1184 438 1184 423 1198 c 128,-1,33
 408 1212 408 1212 408 1238 c 2,34,-1
 408 1742 l 2,35,36
 408 1768 408 1768 423 1783 c 128,-1,37
 438 1798 438 1798 464 1798 c 256,38,39
 490 1798 490 1798 504 1782.5 c 128,-1,40
 518 1767 518 1767 519 1742 c 2,41,-1
 520 1546 l 2,42,43
 520 1531 520 1531 527 1517.5 c 128,-1,44
 534 1504 534 1504 546 1493.5 c 128,-1,45
 558 1483 558 1483 573.5 1477 c 128,-1,46
 589 1471 589 1471 606 1471 c 0,47,48
 642 1471 642 1471 667.5 1496.5 c 128,-1,49
 693 1522 693 1522 693 1558 c 2,50,-1
 693 1742 l 2,51,52
 693 1768 693 1768 708.5 1783 c 128,-1,53
 724 1798 724 1798 750 1798 c 256,54,55
 776 1798 776 1798 791 1783 c 128,-1,56
 806 1768 806 1768 806 1742 c 2,57,-1
 806 1558 l 2,58,59
 806 1521 806 1521 831 1496 c 128,-1,60
 856 1471 856 1471 893 1471 c 0,61,62
 910 1471 910 1471 925.5 1478 c 128,-1,63
 941 1485 941 1485 953 1497 c 128,-1,64
 965 1509 965 1509 972 1524.5 c 128,-1,65
 979 1540 979 1540 979 1558 c 2,66,-1
 979 1742 l 2,67,68
 979 1768 979 1768 994 1783 c 128,-1,69
 1009 1798 1009 1798 1035 1798 c 256,70,71
 1061 1798 1061 1798 1076.5 1783 c 128,-1,72
 1092 1768 1092 1768 1092 1742 c 2,73,-1
 1092 1558 l 2,74,75
 1092 1517 1092 1517 1076 1481 c 128,-1,76
 1060 1445 1060 1445 1032.5 1418 c 128,-1,77
 1005 1391 1005 1391 969 1375.5 c 128,-1,78
 933 1360 933 1360 893 1360 c 0,21,22
EndSplineSet
EndChar

StartChar: uniE8F5
Encoding: 59637 59637 99
Width: 1500
Flags: W
LayerCount: 2
Fore
SplineSet
174 36 m 2,0,1
 164 29 164 29 154.5 26.5 c 128,-1,2
 145 24 145 24 136 24 c 0,3,4
 126 24 126 24 115.5 30 c 128,-1,5
 105 36 105 36 96.5 46 c 128,-1,6
 88 56 88 56 82.5 68.5 c 128,-1,7
 77 81 77 81 77 93 c 0,8,9
 77 119 77 119 108 140 c 2,10,-1
 1325 903 l 2,11,12
 1344 915 1344 915 1362 915 c 0,13,14
 1372 915 1372 915 1382.5 909 c 128,-1,15
 1393 903 1393 903 1402 893.5 c 128,-1,16
 1411 884 1411 884 1416.5 871 c 128,-1,17
 1422 858 1422 858 1422 845 c 0,18,19
 1422 818 1422 818 1391 799 c 2,20,-1
 174 36 l 2,0,1
778 1627 m 0,21,22
 742 1627 742 1627 716.5 1650.5 c 128,-1,23
 691 1674 691 1674 691 1710 c 0,24,25
 691 1745 691 1745 717 1768.5 c 128,-1,26
 743 1792 743 1792 778 1792 c 0,27,28
 814 1792 814 1792 838.5 1768.5 c 128,-1,29
 863 1745 863 1745 863 1710 c 256,30,31
 863 1675 863 1675 839.5 1651 c 128,-1,32
 816 1627 816 1627 778 1627 c 0,21,22
372 1180 m 2,33,34
 366 1178 366 1178 360.5 1176.5 c 128,-1,35
 355 1175 355 1175 347 1175 c 0,36,37
 324 1175 324 1175 308.5 1193 c 128,-1,38
 293 1211 293 1211 293 1234 c 0,39,40
 293 1253 293 1253 303.5 1264.5 c 128,-1,41
 314 1276 314 1276 329 1282 c 2,42,-1
 866 1499 l 1,43,-1
 352 1499 l 2,44,45
 317 1499 317 1499 305 1520 c 128,-1,46
 293 1541 293 1541 293 1565 c 2,47,-1
 293 1738 l 2,48,49
 293 1764 293 1764 309 1778 c 128,-1,50
 325 1792 325 1792 351 1792 c 256,51,52
 377 1792 377 1792 392.5 1778 c 128,-1,53
 408 1764 408 1764 408 1738 c 2,54,-1
 408 1609 l 1,55,-1
 1146 1609 l 1,56,-1
 1153 1609 l 2,57,58
 1181 1609 1181 1609 1194 1589.5 c 128,-1,59
 1207 1570 1207 1570 1207 1552 c 0,60,61
 1207 1532 1207 1532 1195.5 1519 c 128,-1,62
 1184 1506 1184 1506 1167 1501 c 2,63,-1
 372 1180 l 2,33,34
EndSplineSet
EndChar

StartChar: uniE8F6
Encoding: 59638 59638 100
Width: 1500
Flags: W
LayerCount: 2
Fore
SplineSet
174 36 m 2,0,1
 164 29 164 29 154.5 26.5 c 128,-1,2
 145 24 145 24 136 24 c 0,3,4
 126 24 126 24 115.5 30 c 128,-1,5
 105 36 105 36 96.5 46 c 128,-1,6
 88 56 88 56 82.5 68.5 c 128,-1,7
 77 81 77 81 77 93 c 0,8,9
 77 119 77 119 108 140 c 2,10,-1
 1325 903 l 2,11,12
 1344 915 1344 915 1362 915 c 0,13,14
 1372 915 1372 915 1382.5 909 c 128,-1,15
 1393 903 1393 903 1402 893.5 c 128,-1,16
 1411 884 1411 884 1416.5 871 c 128,-1,17
 1422 858 1422 858 1422 845 c 0,18,19
 1422 818 1422 818 1391 799 c 2,20,-1
 174 36 l 2,0,1
749 1178 m 0,21,22
 707 1178 707 1178 669.5 1195 c 128,-1,23
 632 1212 632 1212 604.5 1241 c 128,-1,24
 577 1270 577 1270 561 1309.5 c 128,-1,25
 545 1349 545 1349 545 1394 c 0,26,27
 545 1490 545 1490 611 1555 c 1,28,29
 577 1587 577 1587 561 1628 c 128,-1,30
 545 1669 545 1669 545 1717 c 0,31,32
 545 1762 545 1762 561 1801.5 c 128,-1,33
 577 1841 577 1841 605 1870.5 c 128,-1,34
 633 1900 633 1900 670 1917 c 128,-1,35
 707 1934 707 1934 749 1934 c 256,36,37
 791 1934 791 1934 828.5 1916.5 c 128,-1,38
 866 1899 866 1899 894 1869.5 c 128,-1,39
 922 1840 922 1840 938 1800.5 c 128,-1,40
 954 1761 954 1761 954 1717 c 0,41,42
 954 1620 954 1620 887 1555 c 1,43,44
 954 1491 954 1491 954 1394 c 0,45,46
 954 1349 954 1349 938 1310 c 128,-1,47
 922 1271 922 1271 894 1241.5 c 128,-1,48
 866 1212 866 1212 829 1195 c 128,-1,49
 792 1178 792 1178 749 1178 c 0,21,22
751 1821 m 0,50,51
 731 1821 731 1821 713.5 1812.5 c 128,-1,52
 696 1804 696 1804 682.5 1790 c 128,-1,53
 669 1776 669 1776 661 1757 c 128,-1,54
 653 1738 653 1738 653 1717 c 256,55,56
 653 1696 653 1696 660 1676.5 c 128,-1,57
 667 1657 667 1657 679 1643 c 128,-1,58
 691 1629 691 1629 707.5 1620.5 c 128,-1,59
 724 1612 724 1612 742 1612 c 2,60,-1
 749 1612 l 1,61,-1
 759 1612 l 2,62,63
 777 1612 777 1612 793.5 1620.5 c 128,-1,64
 810 1629 810 1629 822.5 1643 c 128,-1,65
 835 1657 835 1657 842.5 1676.5 c 128,-1,66
 850 1696 850 1696 850 1717 c 256,67,68
 850 1738 850 1738 842.5 1757 c 128,-1,69
 835 1776 835 1776 821.5 1790 c 128,-1,70
 808 1804 808 1804 790 1812.5 c 128,-1,71
 772 1821 772 1821 751 1821 c 0,50,51
749 1499 m 1,72,-1
 742 1499 l 2,73,74
 724 1499 724 1499 707.5 1490.5 c 128,-1,75
 691 1482 691 1482 679 1468 c 128,-1,76
 667 1454 667 1454 660 1434.5 c 128,-1,77
 653 1415 653 1415 653 1394 c 256,78,79
 653 1373 653 1373 661 1354 c 128,-1,80
 669 1335 669 1335 682.5 1321 c 128,-1,81
 696 1307 696 1307 713.5 1298.5 c 128,-1,82
 731 1290 731 1290 751 1290 c 256,83,84
 771 1290 771 1290 789 1298.5 c 128,-1,85
 807 1307 807 1307 820.5 1321 c 128,-1,86
 834 1335 834 1335 842 1354 c 128,-1,87
 850 1373 850 1373 850 1394 c 256,88,89
 850 1415 850 1415 842.5 1434.5 c 128,-1,90
 835 1454 835 1454 822.5 1468 c 128,-1,91
 810 1482 810 1482 793.5 1490.5 c 128,-1,92
 777 1499 777 1499 759 1499 c 2,93,-1
 749 1499 l 1,72,-1
EndSplineSet
EndChar

StartChar: uniE8F7
Encoding: 59639 59639 101
Width: 1500
Flags: W
LayerCount: 2
Fore
SplineSet
174 36 m 2,0,1
 164 29 164 29 154.5 26.5 c 128,-1,2
 145 24 145 24 136 24 c 0,3,4
 126 24 126 24 115.5 30 c 128,-1,5
 105 36 105 36 96.5 46 c 128,-1,6
 88 56 88 56 82.5 68.5 c 128,-1,7
 77 81 77 81 77 93 c 0,8,9
 77 119 77 119 108 140 c 2,10,-1
 1325 903 l 2,11,12
 1344 915 1344 915 1362 915 c 0,13,14
 1372 915 1372 915 1382.5 909 c 128,-1,15
 1393 903 1393 903 1402 893.5 c 128,-1,16
 1411 884 1411 884 1416.5 871 c 128,-1,17
 1422 858 1422 858 1422 845 c 0,18,19
 1422 818 1422 818 1391 799 c 2,20,-1
 174 36 l 2,0,1
805 1183 m 0,21,22
 763 1183 763 1183 723.5 1200.5 c 128,-1,23
 684 1218 684 1218 654 1248.5 c 128,-1,24
 624 1279 624 1279 606 1319 c 128,-1,25
 588 1359 588 1359 588 1404 c 0,26,27
 588 1450 588 1450 603.5 1491 c 128,-1,28
 619 1532 619 1532 647.5 1562.5 c 128,-1,29
 676 1593 676 1593 714.5 1610.5 c 128,-1,30
 753 1628 753 1628 800 1628 c 0,31,32
 825 1628 825 1628 849 1622 c 1,33,34
 800 1694 800 1694 715.5 1752.5 c 128,-1,35
 631 1811 631 1811 519 1849 c 0,36,37
 502 1854 502 1854 491.5 1867 c 128,-1,38
 481 1880 481 1880 481 1901 c 0,39,40
 481 1926 481 1926 494.5 1942.5 c 128,-1,41
 508 1959 508 1959 534 1959 c 0,42,43
 547 1959 547 1959 553 1956 c 0,44,45
 658 1920 658 1920 744 1866.5 c 128,-1,46
 830 1813 830 1813 891 1746 c 128,-1,47
 952 1679 952 1679 985 1599 c 128,-1,48
 1018 1519 1018 1519 1018 1431 c 0,49,50
 1018 1384 1018 1384 1001.5 1339.5 c 128,-1,51
 985 1295 985 1295 956.5 1260 c 128,-1,52
 928 1225 928 1225 889 1204 c 128,-1,53
 850 1183 850 1183 805 1183 c 0,21,22
800 1515 m 0,54,55
 754 1515 754 1515 725.5 1485 c 128,-1,56
 697 1455 697 1455 697 1404 c 0,57,58
 697 1383 697 1383 706.5 1363 c 128,-1,59
 716 1343 716 1343 731.5 1328 c 128,-1,60
 747 1313 747 1313 766 1304 c 128,-1,61
 785 1295 785 1295 805 1295 c 0,62,63
 823 1295 823 1295 841.5 1305.5 c 128,-1,64
 860 1316 860 1316 875 1334 c 128,-1,65
 890 1352 890 1352 899.5 1376.5 c 128,-1,66
 909 1401 909 1401 910 1428 c 1,67,68
 905 1444 905 1444 893.5 1460 c 128,-1,69
 882 1476 882 1476 866.5 1488 c 128,-1,70
 851 1500 851 1500 833.5 1507.5 c 128,-1,71
 816 1515 816 1515 800 1515 c 0,54,55
EndSplineSet
EndChar

StartChar: uniE8F8
Encoding: 59640 59640 102
Width: 1500
Flags: W
LayerCount: 2
Fore
SplineSet
174 36 m 2,0,1
 164 29 164 29 154.5 26.5 c 128,-1,2
 145 24 145 24 136 24 c 0,3,4
 126 24 126 24 115.5 30 c 128,-1,5
 105 36 105 36 96.5 46 c 128,-1,6
 88 56 88 56 82.5 68.5 c 128,-1,7
 77 81 77 81 77 93 c 0,8,9
 77 119 77 119 108 140 c 2,10,-1
 1325 903 l 2,11,12
 1344 915 1344 915 1362 915 c 0,13,14
 1372 915 1372 915 1382.5 909 c 128,-1,15
 1393 903 1393 903 1402 893.5 c 128,-1,16
 1411 884 1411 884 1416.5 871 c 128,-1,17
 1422 858 1422 858 1422 845 c 0,18,19
 1422 818 1422 818 1391 799 c 2,20,-1
 174 36 l 2,0,1
805 1183 m 0,21,22
 763 1183 763 1183 723.5 1201 c 128,-1,23
 684 1219 684 1219 654 1249 c 128,-1,24
 624 1279 624 1279 606 1319.5 c 128,-1,25
 588 1360 588 1360 588 1405 c 0,26,27
 588 1451 588 1451 603.5 1492 c 128,-1,28
 619 1533 619 1533 647.5 1563.5 c 128,-1,29
 676 1594 676 1594 714.5 1611.5 c 128,-1,30
 753 1629 753 1629 800 1629 c 0,31,32
 826 1629 826 1629 850 1623 c 1,33,34
 829 1655 829 1655 801 1684.5 c 128,-1,35
 773 1714 773 1714 735 1740 c 1,36,-1
 617 1636 l 2,37,38
 609 1630 609 1630 600.5 1626 c 128,-1,39
 592 1622 592 1622 581 1622 c 0,40,41
 558 1622 558 1622 542.5 1639 c 128,-1,42
 527 1656 527 1656 526 1678 c 0,43,44
 524 1694 524 1694 531 1704 c 128,-1,45
 538 1714 538 1714 545 1721 c 2,46,-1
 634 1802 l 1,47,48
 607 1816 607 1816 578 1828 c 128,-1,49
 549 1840 549 1840 519 1851 c 0,50,51
 502 1856 502 1856 491.5 1869 c 128,-1,52
 481 1882 481 1882 481 1903 c 0,53,54
 481 1928 481 1928 494.5 1945 c 128,-1,55
 508 1962 508 1962 534 1962 c 0,56,57
 546 1962 546 1962 553 1958 c 0,58,59
 647 1926 647 1926 721 1882 c 1,60,-1
 822 1974 l 2,61,62
 829 1980 829 1980 837.5 1984 c 128,-1,63
 846 1988 846 1988 857 1988 c 0,64,65
 880 1988 880 1988 896.5 1971 c 128,-1,66
 913 1954 913 1954 913 1931 c 0,67,68
 913 1916 913 1916 907 1906 c 128,-1,69
 901 1896 901 1896 893 1889 c 2,70,-1
 816 1819 l 1,71,72
 1018 1659 1018 1659 1018 1432 c 0,73,74
 1018 1384 1018 1384 1001.5 1339.5 c 128,-1,75
 985 1295 985 1295 956.5 1260 c 128,-1,76
 928 1225 928 1225 889 1204 c 128,-1,77
 850 1183 850 1183 805 1183 c 0,21,22
800 1516 m 0,78,79
 754 1516 754 1516 725.5 1486 c 128,-1,80
 697 1456 697 1456 697 1405 c 0,81,82
 697 1384 697 1384 706.5 1364 c 128,-1,83
 716 1344 716 1344 731.5 1328.5 c 128,-1,84
 747 1313 747 1313 766 1304 c 128,-1,85
 785 1295 785 1295 805 1295 c 0,86,87
 823 1295 823 1295 841.5 1305.5 c 128,-1,88
 860 1316 860 1316 875 1334 c 128,-1,89
 890 1352 890 1352 899.5 1376.5 c 128,-1,90
 909 1401 909 1401 910 1429 c 1,91,92
 905 1445 905 1445 893.5 1461 c 128,-1,93
 882 1477 882 1477 866.5 1489 c 128,-1,94
 851 1501 851 1501 833.5 1508.5 c 128,-1,95
 816 1516 816 1516 800 1516 c 0,78,79
EndSplineSet
EndChar

StartChar: uniE8F9
Encoding: 59641 59641 103
Width: 1500
Flags: W
LayerCount: 2
Fore
SplineSet
623 1599 m 256,0,1
 588 1599 588 1599 564 1623.5 c 128,-1,2
 540 1648 540 1648 540 1684 c 0,3,4
 540 1719 540 1719 564 1743.5 c 128,-1,5
 588 1768 588 1768 623 1768 c 256,6,7
 658 1768 658 1768 682 1743.5 c 128,-1,8
 706 1719 706 1719 706 1684 c 0,9,10
 706 1648 706 1648 682 1623.5 c 128,-1,11
 658 1599 658 1599 623 1599 c 256,0,1
710 1179 m 0,12,13
 658 1179 658 1179 607.5 1195.5 c 128,-1,14
 557 1212 557 1212 517 1241.5 c 128,-1,15
 477 1271 477 1271 452 1312.5 c 128,-1,16
 427 1354 427 1354 427 1404 c 0,17,18
 427 1442 427 1442 446 1472 c 128,-1,19
 465 1502 465 1502 495 1522.5 c 128,-1,20
 525 1543 525 1543 562 1554 c 128,-1,21
 599 1565 599 1565 636 1565 c 0,22,23
 675 1565 675 1565 715.5 1554 c 128,-1,24
 756 1543 756 1543 790.5 1522.5 c 128,-1,25
 825 1502 825 1502 849 1472 c 128,-1,26
 873 1442 873 1442 878 1404 c 2,27,-1
 879 1397 l 2,28,29
 880 1394 880 1394 880 1388 c 0,30,31
 880 1362 880 1362 864 1347.5 c 128,-1,32
 848 1333 848 1333 824 1333 c 0,33,34
 805 1333 805 1333 791 1342.5 c 128,-1,35
 777 1352 777 1352 771 1372 c 0,36,37
 766 1388 766 1388 753.5 1402.5 c 128,-1,38
 741 1417 741 1417 722.5 1428 c 128,-1,39
 704 1439 704 1439 682 1445.5 c 128,-1,40
 660 1452 660 1452 636 1452 c 0,41,42
 613 1452 613 1452 595 1446.5 c 128,-1,43
 577 1441 577 1441 564 1433.5 c 128,-1,44
 551 1426 551 1426 544.5 1417.5 c 128,-1,45
 538 1409 538 1409 538 1404 c 0,46,47
 538 1384 538 1384 551.5 1364 c 128,-1,48
 565 1344 565 1344 588.5 1327.5 c 128,-1,49
 612 1311 612 1311 643 1301 c 128,-1,50
 674 1291 674 1291 710 1291 c 0,51,52
 765 1291 765 1291 811 1309.5 c 128,-1,53
 857 1328 857 1328 890.5 1361 c 128,-1,54
 924 1394 924 1394 942.5 1440 c 128,-1,55
 961 1486 961 1486 961 1541 c 0,56,57
 961 1700 961 1700 898.5 1772.5 c 128,-1,58
 836 1845 836 1845 710 1845 c 0,59,60
 693 1845 693 1845 671 1838 c 128,-1,61
 649 1831 649 1831 626.5 1820 c 128,-1,62
 604 1809 604 1809 584.5 1796 c 128,-1,63
 565 1783 565 1783 555 1770 c 0,64,65
 548 1762 548 1762 538.5 1755.5 c 128,-1,66
 529 1749 529 1749 514 1749 c 0,67,68
 491 1749 491 1749 474 1766 c 128,-1,69
 457 1783 457 1783 457 1806 c 0,70,71
 457 1817 457 1817 468.5 1833 c 128,-1,72
 480 1849 480 1849 498 1865.5 c 128,-1,73
 516 1882 516 1882 537.5 1897.5 c 128,-1,74
 559 1913 559 1913 580 1923 c 0,75,76
 614 1940 614 1940 646 1948.5 c 128,-1,77
 678 1957 678 1957 710 1957 c 0,78,79
 799 1957 799 1957 867 1928.5 c 128,-1,80
 935 1900 935 1900 980.5 1846.5 c 128,-1,81
 1026 1793 1026 1793 1049 1715.5 c 128,-1,82
 1072 1638 1072 1638 1072 1541 c 0,83,84
 1072 1463 1072 1463 1044.5 1396.5 c 128,-1,85
 1017 1330 1017 1330 969 1281.5 c 128,-1,86
 921 1233 921 1233 854.5 1206 c 128,-1,87
 788 1179 788 1179 710 1179 c 0,12,13
174 36 m 2,88,89
 164 29 164 29 154.5 26.5 c 128,-1,90
 145 24 145 24 136 24 c 0,91,92
 126 24 126 24 115.5 30 c 128,-1,93
 105 36 105 36 96.5 46 c 128,-1,94
 88 56 88 56 82.5 68.5 c 128,-1,95
 77 81 77 81 77 93 c 0,96,97
 77 119 77 119 108 140 c 2,98,-1
 1325 903 l 2,99,100
 1344 915 1344 915 1362 915 c 0,101,102
 1372 915 1372 915 1382.5 909 c 128,-1,103
 1393 903 1393 903 1402 893.5 c 128,-1,104
 1411 884 1411 884 1416.5 871 c 128,-1,105
 1422 858 1422 858 1422 845 c 0,106,107
 1422 818 1422 818 1391 799 c 2,108,-1
 174 36 l 2,88,89
EndSplineSet
EndChar

StartChar: uniE8FA
Encoding: 59642 59642 104
Width: 1500
Flags: W
LayerCount: 2
Fore
SplineSet
174 36 m 2,0,1
 164 29 164 29 154.5 26.5 c 128,-1,2
 145 24 145 24 136 24 c 0,3,4
 126 24 126 24 115.5 30 c 128,-1,5
 105 36 105 36 96.5 46 c 128,-1,6
 88 56 88 56 82.5 68.5 c 128,-1,7
 77 81 77 81 77 93 c 0,8,9
 77 119 77 119 108 140 c 2,10,-1
 1325 903 l 2,11,12
 1344 915 1344 915 1362 915 c 0,13,14
 1372 915 1372 915 1382.5 909 c 128,-1,15
 1393 903 1393 903 1402 893.5 c 128,-1,16
 1411 884 1411 884 1416.5 871 c 128,-1,17
 1422 858 1422 858 1422 845 c 0,18,19
 1422 818 1422 818 1391 799 c 2,20,-1
 174 36 l 2,0,1
858 1728 m 0,21,22
 835 1728 835 1728 821 1743 c 128,-1,23
 807 1758 807 1758 807 1784 c 256,24,25
 807 1810 807 1810 789 1829.5 c 128,-1,26
 771 1849 771 1849 747 1849 c 0,27,28
 735 1849 735 1849 724.5 1843.5 c 128,-1,29
 714 1838 714 1838 705.5 1829 c 128,-1,30
 697 1820 697 1820 692 1808.5 c 128,-1,31
 687 1797 687 1797 687 1784 c 2,32,-1
 687 1239 l 2,33,34
 687 1212 687 1212 673.5 1197.5 c 128,-1,35
 660 1183 660 1183 636 1183 c 256,36,37
 612 1183 612 1183 598.5 1197.5 c 128,-1,38
 585 1212 585 1212 585 1239 c 2,39,-1
 585 1784 l 2,40,41
 585 1821 585 1821 598 1853.5 c 128,-1,42
 611 1886 611 1886 633 1910 c 128,-1,43
 655 1934 655 1934 684.5 1947.5 c 128,-1,44
 714 1961 714 1961 747 1961 c 256,45,46
 780 1961 780 1961 810 1947 c 128,-1,47
 840 1933 840 1933 862 1908.5 c 128,-1,48
 884 1884 884 1884 897 1852 c 128,-1,49
 910 1820 910 1820 910 1784 c 0,50,51
 910 1758 910 1758 896 1743 c 128,-1,52
 882 1728 882 1728 858 1728 c 0,21,22
837 1459 m 0,53,54
 804 1459 804 1459 781.5 1484 c 128,-1,55
 759 1509 759 1509 759 1544 c 0,56,57
 759 1580 759 1580 782 1604.5 c 128,-1,58
 805 1629 805 1629 837 1629 c 0,59,60
 868 1629 868 1629 891 1604.5 c 128,-1,61
 914 1580 914 1580 914 1544 c 0,62,63
 914 1527 914 1527 908 1511.5 c 128,-1,64
 902 1496 902 1496 891.5 1484.5 c 128,-1,65
 881 1473 881 1473 867 1466 c 128,-1,66
 853 1459 853 1459 837 1459 c 0,53,54
EndSplineSet
EndChar

StartChar: uniE902
Encoding: 59650 59650 105
Width: 1500
Flags: W
LayerCount: 2
Fore
SplineSet
814 581 m 1,0,-1
 814 933 l 1,1,-1
 515 933 l 2,2,3
 441 933 441 933 390 882 c 0,4,5
 339 832 339 832 339 757 c 256,6,7
 339 682 339 682 390 632 c 0,8,9
 440 581 440 581 515 581 c 2,10,-1
 814 581 l 1,0,-1
937 0 m 2,11,12
 937 -61 937 -61 876 -61 c 0,13,14
 814 -61 814 -61 814 0 c 2,15,-1
 814 368 l 1,16,-1
 502 -35 l 2,17,18
 480 -63 480 -63 456 -63 c 0,19,20
 444 -63 444 -63 432 -57 c 128,-1,21
 420 -51 420 -51 410.5 -41.5 c 128,-1,22
 401 -32 401 -32 394.5 -21 c 128,-1,23
 388 -10 388 -10 388 0 c 0,24,25
 388 20 388 20 404 40 c 2,26,-1
 728 458 l 1,27,-1
 560 458 l 1,28,-1
 435 468 l 1,29,30
 339 495 339 495 277 575 c 0,31,32
 216 654 216 654 216 757 c 0,33,34
 216 880 216 880 304 968 c 0,35,36
 349 1013 349 1013 400.5 1034 c 128,-1,37
 452 1055 452 1055 515 1056 c 2,38,-1
 876 1057 l 2,39,40
 937 1057 937 1057 937 996 c 2,41,-1
 937 729 l 1,42,-1
 1170 1030 l 2,43,44
 1189 1057 1189 1057 1216 1057 c 0,45,46
 1227 1057 1227 1057 1239 1051 c 128,-1,47
 1251 1045 1251 1045 1261 1036 c 128,-1,48
 1271 1027 1271 1027 1277.5 1016 c 128,-1,49
 1284 1005 1284 1005 1284 995 c 0,50,51
 1284 976 1284 976 1268 955 c 2,52,-1
 937 527 l 1,53,-1
 937 0 l 2,11,12
750 1181 m 0,54,55
 689 1181 689 1181 689 1237 c 2,56,-1
 689 1904 l 2,57,58
 689 1930 689 1930 705.5 1944.5 c 128,-1,59
 722 1959 722 1959 750 1959 c 0,60,61
 777 1959 777 1959 793.5 1944.5 c 128,-1,62
 810 1930 810 1930 810 1904 c 2,63,-1
 810 1237 l 2,64,65
 810 1210 810 1210 794 1195.5 c 128,-1,66
 778 1181 778 1181 750 1181 c 0,54,55
EndSplineSet
EndChar

StartChar: uniE903
Encoding: 59651 59651 106
Width: 1500
Flags: W
LayerCount: 2
Fore
SplineSet
814 581 m 1,0,-1
 814 933 l 1,1,-1
 515 933 l 2,2,3
 441 933 441 933 390 882 c 0,4,5
 339 832 339 832 339 757 c 256,6,7
 339 682 339 682 390 632 c 0,8,9
 440 581 440 581 515 581 c 2,10,-1
 814 581 l 1,0,-1
937 0 m 2,11,12
 937 -61 937 -61 876 -61 c 0,13,14
 814 -61 814 -61 814 0 c 2,15,-1
 814 368 l 1,16,-1
 502 -35 l 2,17,18
 480 -63 480 -63 456 -63 c 0,19,20
 444 -63 444 -63 432 -57 c 128,-1,21
 420 -51 420 -51 410.5 -41.5 c 128,-1,22
 401 -32 401 -32 394.5 -21 c 128,-1,23
 388 -10 388 -10 388 0 c 0,24,25
 388 20 388 20 404 40 c 2,26,-1
 728 458 l 1,27,-1
 560 458 l 1,28,-1
 435 468 l 1,29,30
 339 495 339 495 277 575 c 0,31,32
 216 654 216 654 216 757 c 0,33,34
 216 880 216 880 304 968 c 0,35,36
 349 1013 349 1013 400.5 1034 c 128,-1,37
 452 1055 452 1055 515 1056 c 2,38,-1
 876 1057 l 2,39,40
 937 1057 937 1057 937 996 c 2,41,-1
 937 729 l 1,42,-1
 1170 1030 l 2,43,44
 1189 1057 1189 1057 1216 1057 c 0,45,46
 1227 1057 1227 1057 1239 1051 c 128,-1,47
 1251 1045 1251 1045 1261 1036 c 128,-1,48
 1271 1027 1271 1027 1277.5 1016 c 128,-1,49
 1284 1005 1284 1005 1284 995 c 0,50,51
 1284 976 1284 976 1268 955 c 2,52,-1
 937 527 l 1,53,-1
 937 0 l 2,11,12
634 1289 m 1,54,-1
 1147 1289 l 2,55,56
 1174 1289 1174 1289 1189.5 1275 c 128,-1,57
 1205 1261 1205 1261 1205 1236 c 256,58,59
 1205 1211 1205 1211 1189 1197 c 128,-1,60
 1173 1183 1173 1183 1147 1183 c 2,61,-1
 356 1183 l 1,62,-1
 346 1183 l 2,63,64
 332 1183 332 1183 322 1188.5 c 128,-1,65
 312 1194 312 1194 305.5 1202 c 128,-1,66
 299 1210 299 1210 296 1219.5 c 128,-1,67
 293 1229 293 1229 293 1238 c 0,68,69
 293 1257 293 1257 304.5 1268.5 c 128,-1,70
 316 1280 316 1280 333 1287 c 2,71,-1
 1127 1595 l 2,72,73
 1132 1597 1132 1597 1138.5 1598 c 128,-1,74
 1145 1599 1145 1599 1152 1599 c 0,75,76
 1175 1599 1175 1599 1191 1582 c 128,-1,77
 1207 1565 1207 1565 1207 1543 c 0,78,79
 1207 1525 1207 1525 1195.5 1513.5 c 128,-1,80
 1184 1502 1184 1502 1170 1497 c 2,81,-1
 634 1289 l 1,54,-1
EndSplineSet
EndChar

StartChar: uniE904
Encoding: 59652 59652 107
Width: 1500
Flags: W
LayerCount: 2
Fore
SplineSet
814 581 m 1,0,-1
 814 933 l 1,1,-1
 515 933 l 2,2,3
 441 933 441 933 390 882 c 0,4,5
 339 832 339 832 339 757 c 256,6,7
 339 682 339 682 390 632 c 0,8,9
 440 581 440 581 515 581 c 2,10,-1
 814 581 l 1,0,-1
937 0 m 2,11,12
 937 -61 937 -61 876 -61 c 0,13,14
 814 -61 814 -61 814 0 c 2,15,-1
 814 368 l 1,16,-1
 502 -35 l 2,17,18
 480 -63 480 -63 456 -63 c 0,19,20
 444 -63 444 -63 432 -57 c 128,-1,21
 420 -51 420 -51 410.5 -41.5 c 128,-1,22
 401 -32 401 -32 394.5 -21 c 128,-1,23
 388 -10 388 -10 388 0 c 0,24,25
 388 20 388 20 404 40 c 2,26,-1
 728 458 l 1,27,-1
 560 458 l 1,28,-1
 435 468 l 1,29,30
 339 495 339 495 277 575 c 0,31,32
 216 654 216 654 216 757 c 0,33,34
 216 880 216 880 304 968 c 0,35,36
 349 1013 349 1013 400.5 1034 c 128,-1,37
 452 1055 452 1055 515 1056 c 2,38,-1
 876 1057 l 2,39,40
 937 1057 937 1057 937 996 c 2,41,-1
 937 729 l 1,42,-1
 1170 1030 l 2,43,44
 1189 1057 1189 1057 1216 1057 c 0,45,46
 1227 1057 1227 1057 1239 1051 c 128,-1,47
 1251 1045 1251 1045 1261 1036 c 128,-1,48
 1271 1027 1271 1027 1277.5 1016 c 128,-1,49
 1284 1005 1284 1005 1284 995 c 0,50,51
 1284 976 1284 976 1268 955 c 2,52,-1
 937 527 l 1,53,-1
 937 0 l 2,11,12
893 1360 m 0,54,55
 805 1360 805 1360 750 1420 c 1,56,57
 693 1360 693 1360 606 1360 c 0,58,59
 562 1360 562 1360 520 1380 c 1,60,-1
 520 1238 l 2,61,62
 520 1212 520 1212 504.5 1198 c 128,-1,63
 489 1184 489 1184 464 1184 c 0,64,65
 438 1184 438 1184 423 1198 c 128,-1,66
 408 1212 408 1212 408 1238 c 2,67,-1
 408 1742 l 2,68,69
 408 1768 408 1768 423 1783 c 128,-1,70
 438 1798 438 1798 464 1798 c 256,71,72
 490 1798 490 1798 504 1782.5 c 128,-1,73
 518 1767 518 1767 519 1742 c 2,74,-1
 520 1546 l 2,75,76
 520 1531 520 1531 527 1517.5 c 128,-1,77
 534 1504 534 1504 546 1493.5 c 128,-1,78
 558 1483 558 1483 573.5 1477 c 128,-1,79
 589 1471 589 1471 606 1471 c 0,80,81
 642 1471 642 1471 667.5 1496.5 c 128,-1,82
 693 1522 693 1522 693 1558 c 2,83,-1
 693 1742 l 2,84,85
 693 1768 693 1768 708.5 1783 c 128,-1,86
 724 1798 724 1798 750 1798 c 256,87,88
 776 1798 776 1798 791 1783 c 128,-1,89
 806 1768 806 1768 806 1742 c 2,90,-1
 806 1558 l 2,91,92
 806 1521 806 1521 831 1496 c 128,-1,93
 856 1471 856 1471 893 1471 c 0,94,95
 910 1471 910 1471 925.5 1478 c 128,-1,96
 941 1485 941 1485 953 1497 c 128,-1,97
 965 1509 965 1509 972 1524.5 c 128,-1,98
 979 1540 979 1540 979 1558 c 2,99,-1
 979 1742 l 2,100,101
 979 1768 979 1768 994 1783 c 128,-1,102
 1009 1798 1009 1798 1035 1798 c 256,103,104
 1061 1798 1061 1798 1076.5 1783 c 128,-1,105
 1092 1768 1092 1768 1092 1742 c 2,106,-1
 1092 1558 l 2,107,108
 1092 1517 1092 1517 1076 1481 c 128,-1,109
 1060 1445 1060 1445 1032.5 1418 c 128,-1,110
 1005 1391 1005 1391 969 1375.5 c 128,-1,111
 933 1360 933 1360 893 1360 c 0,54,55
EndSplineSet
EndChar

StartChar: uniE905
Encoding: 59653 59653 108
Width: 1500
Flags: W
LayerCount: 2
Fore
SplineSet
814 581 m 1,0,-1
 814 933 l 1,1,-1
 515 933 l 2,2,3
 441 933 441 933 390 882 c 0,4,5
 339 832 339 832 339 757 c 256,6,7
 339 682 339 682 390 632 c 0,8,9
 440 581 440 581 515 581 c 2,10,-1
 814 581 l 1,0,-1
937 0 m 2,11,12
 937 -61 937 -61 876 -61 c 0,13,14
 814 -61 814 -61 814 0 c 2,15,-1
 814 368 l 1,16,-1
 502 -35 l 2,17,18
 480 -63 480 -63 456 -63 c 0,19,20
 444 -63 444 -63 432 -57 c 128,-1,21
 420 -51 420 -51 410.5 -41.5 c 128,-1,22
 401 -32 401 -32 394.5 -21 c 128,-1,23
 388 -10 388 -10 388 0 c 0,24,25
 388 20 388 20 404 40 c 2,26,-1
 728 458 l 1,27,-1
 560 458 l 1,28,-1
 435 468 l 1,29,30
 339 495 339 495 277 575 c 0,31,32
 216 654 216 654 216 757 c 0,33,34
 216 880 216 880 304 968 c 0,35,36
 349 1013 349 1013 400.5 1034 c 128,-1,37
 452 1055 452 1055 515 1056 c 2,38,-1
 876 1057 l 2,39,40
 937 1057 937 1057 937 996 c 2,41,-1
 937 729 l 1,42,-1
 1170 1030 l 2,43,44
 1189 1057 1189 1057 1216 1057 c 0,45,46
 1227 1057 1227 1057 1239 1051 c 128,-1,47
 1251 1045 1251 1045 1261 1036 c 128,-1,48
 1271 1027 1271 1027 1277.5 1016 c 128,-1,49
 1284 1005 1284 1005 1284 995 c 0,50,51
 1284 976 1284 976 1268 955 c 2,52,-1
 937 527 l 1,53,-1
 937 0 l 2,11,12
778 1627 m 0,54,55
 742 1627 742 1627 716.5 1650.5 c 128,-1,56
 691 1674 691 1674 691 1710 c 0,57,58
 691 1745 691 1745 717 1768.5 c 128,-1,59
 743 1792 743 1792 778 1792 c 0,60,61
 814 1792 814 1792 838.5 1768.5 c 128,-1,62
 863 1745 863 1745 863 1710 c 256,63,64
 863 1675 863 1675 839.5 1651 c 128,-1,65
 816 1627 816 1627 778 1627 c 0,54,55
372 1180 m 2,66,67
 366 1178 366 1178 360.5 1176.5 c 128,-1,68
 355 1175 355 1175 347 1175 c 0,69,70
 324 1175 324 1175 308.5 1193 c 128,-1,71
 293 1211 293 1211 293 1234 c 0,72,73
 293 1253 293 1253 303.5 1264.5 c 128,-1,74
 314 1276 314 1276 329 1282 c 2,75,-1
 866 1499 l 1,76,-1
 352 1499 l 2,77,78
 317 1499 317 1499 305 1520 c 128,-1,79
 293 1541 293 1541 293 1565 c 2,80,-1
 293 1738 l 2,81,82
 293 1764 293 1764 309 1778 c 128,-1,83
 325 1792 325 1792 351 1792 c 256,84,85
 377 1792 377 1792 392.5 1778 c 128,-1,86
 408 1764 408 1764 408 1738 c 2,87,-1
 408 1609 l 1,88,-1
 1146 1609 l 1,89,-1
 1153 1609 l 2,90,91
 1181 1609 1181 1609 1194 1589.5 c 128,-1,92
 1207 1570 1207 1570 1207 1552 c 0,93,94
 1207 1532 1207 1532 1195.5 1519 c 128,-1,95
 1184 1506 1184 1506 1167 1501 c 2,96,-1
 372 1180 l 2,66,67
EndSplineSet
EndChar

StartChar: uniE906
Encoding: 59654 59654 109
Width: 1500
Flags: W
LayerCount: 2
Fore
SplineSet
814 581 m 1,0,-1
 814 933 l 1,1,-1
 515 933 l 2,2,3
 441 933 441 933 390 882 c 0,4,5
 339 832 339 832 339 757 c 256,6,7
 339 682 339 682 390 632 c 0,8,9
 440 581 440 581 515 581 c 2,10,-1
 814 581 l 1,0,-1
937 0 m 2,11,12
 937 -61 937 -61 876 -61 c 0,13,14
 814 -61 814 -61 814 0 c 2,15,-1
 814 368 l 1,16,-1
 502 -35 l 2,17,18
 480 -63 480 -63 456 -63 c 0,19,20
 444 -63 444 -63 432 -57 c 128,-1,21
 420 -51 420 -51 410.5 -41.5 c 128,-1,22
 401 -32 401 -32 394.5 -21 c 128,-1,23
 388 -10 388 -10 388 0 c 0,24,25
 388 20 388 20 404 40 c 2,26,-1
 728 458 l 1,27,-1
 560 458 l 1,28,-1
 435 468 l 1,29,30
 339 495 339 495 277 575 c 0,31,32
 216 654 216 654 216 757 c 0,33,34
 216 880 216 880 304 968 c 0,35,36
 349 1013 349 1013 400.5 1034 c 128,-1,37
 452 1055 452 1055 515 1056 c 2,38,-1
 876 1057 l 2,39,40
 937 1057 937 1057 937 996 c 2,41,-1
 937 729 l 1,42,-1
 1170 1030 l 2,43,44
 1189 1057 1189 1057 1216 1057 c 0,45,46
 1227 1057 1227 1057 1239 1051 c 128,-1,47
 1251 1045 1251 1045 1261 1036 c 128,-1,48
 1271 1027 1271 1027 1277.5 1016 c 128,-1,49
 1284 1005 1284 1005 1284 995 c 0,50,51
 1284 976 1284 976 1268 955 c 2,52,-1
 937 527 l 1,53,-1
 937 0 l 2,11,12
749 1178 m 0,54,55
 707 1178 707 1178 669.5 1195 c 128,-1,56
 632 1212 632 1212 604.5 1241 c 128,-1,57
 577 1270 577 1270 561 1309.5 c 128,-1,58
 545 1349 545 1349 545 1394 c 0,59,60
 545 1490 545 1490 611 1555 c 1,61,62
 577 1587 577 1587 561 1628 c 128,-1,63
 545 1669 545 1669 545 1717 c 0,64,65
 545 1762 545 1762 561 1801.5 c 128,-1,66
 577 1841 577 1841 605 1870.5 c 128,-1,67
 633 1900 633 1900 670 1917 c 128,-1,68
 707 1934 707 1934 749 1934 c 256,69,70
 791 1934 791 1934 828.5 1916.5 c 128,-1,71
 866 1899 866 1899 894 1869.5 c 128,-1,72
 922 1840 922 1840 938 1800.5 c 128,-1,73
 954 1761 954 1761 954 1717 c 0,74,75
 954 1620 954 1620 887 1555 c 1,76,77
 954 1491 954 1491 954 1394 c 0,78,79
 954 1349 954 1349 938 1310 c 128,-1,80
 922 1271 922 1271 894 1241.5 c 128,-1,81
 866 1212 866 1212 829 1195 c 128,-1,82
 792 1178 792 1178 749 1178 c 0,54,55
751 1821 m 0,83,84
 731 1821 731 1821 713.5 1812.5 c 128,-1,85
 696 1804 696 1804 682.5 1790 c 128,-1,86
 669 1776 669 1776 661 1757 c 128,-1,87
 653 1738 653 1738 653 1717 c 256,88,89
 653 1696 653 1696 660 1676.5 c 128,-1,90
 667 1657 667 1657 679 1643 c 128,-1,91
 691 1629 691 1629 707.5 1620.5 c 128,-1,92
 724 1612 724 1612 742 1612 c 2,93,-1
 749 1612 l 1,94,-1
 759 1612 l 2,95,96
 777 1612 777 1612 793.5 1620.5 c 128,-1,97
 810 1629 810 1629 822.5 1643 c 128,-1,98
 835 1657 835 1657 842.5 1676.5 c 128,-1,99
 850 1696 850 1696 850 1717 c 256,100,101
 850 1738 850 1738 842.5 1757 c 128,-1,102
 835 1776 835 1776 821.5 1790 c 128,-1,103
 808 1804 808 1804 790 1812.5 c 128,-1,104
 772 1821 772 1821 751 1821 c 0,83,84
749 1499 m 1,105,-1
 742 1499 l 2,106,107
 724 1499 724 1499 707.5 1490.5 c 128,-1,108
 691 1482 691 1482 679 1468 c 128,-1,109
 667 1454 667 1454 660 1434.5 c 128,-1,110
 653 1415 653 1415 653 1394 c 256,111,112
 653 1373 653 1373 661 1354 c 128,-1,113
 669 1335 669 1335 682.5 1321 c 128,-1,114
 696 1307 696 1307 713.5 1298.5 c 128,-1,115
 731 1290 731 1290 751 1290 c 256,116,117
 771 1290 771 1290 789 1298.5 c 128,-1,118
 807 1307 807 1307 820.5 1321 c 128,-1,119
 834 1335 834 1335 842 1354 c 128,-1,120
 850 1373 850 1373 850 1394 c 256,121,122
 850 1415 850 1415 842.5 1434.5 c 128,-1,123
 835 1454 835 1454 822.5 1468 c 128,-1,124
 810 1482 810 1482 793.5 1490.5 c 128,-1,125
 777 1499 777 1499 759 1499 c 2,126,-1
 749 1499 l 1,105,-1
EndSplineSet
EndChar

StartChar: uniE907
Encoding: 59655 59655 110
Width: 1500
Flags: W
LayerCount: 2
Fore
SplineSet
814 581 m 1,0,-1
 814 933 l 1,1,-1
 515 933 l 2,2,3
 441 933 441 933 390 882 c 0,4,5
 339 832 339 832 339 757 c 256,6,7
 339 682 339 682 390 632 c 0,8,9
 440 581 440 581 515 581 c 2,10,-1
 814 581 l 1,0,-1
937 0 m 2,11,12
 937 -61 937 -61 876 -61 c 0,13,14
 814 -61 814 -61 814 0 c 2,15,-1
 814 368 l 1,16,-1
 502 -35 l 2,17,18
 480 -63 480 -63 456 -63 c 0,19,20
 444 -63 444 -63 432 -57 c 128,-1,21
 420 -51 420 -51 410.5 -41.5 c 128,-1,22
 401 -32 401 -32 394.5 -21 c 128,-1,23
 388 -10 388 -10 388 0 c 0,24,25
 388 20 388 20 404 40 c 2,26,-1
 728 458 l 1,27,-1
 560 458 l 1,28,-1
 435 468 l 1,29,30
 339 495 339 495 277 575 c 0,31,32
 216 654 216 654 216 757 c 0,33,34
 216 880 216 880 304 968 c 0,35,36
 349 1013 349 1013 400.5 1034 c 128,-1,37
 452 1055 452 1055 515 1056 c 2,38,-1
 876 1057 l 2,39,40
 937 1057 937 1057 937 996 c 2,41,-1
 937 729 l 1,42,-1
 1170 1030 l 2,43,44
 1189 1057 1189 1057 1216 1057 c 0,45,46
 1227 1057 1227 1057 1239 1051 c 128,-1,47
 1251 1045 1251 1045 1261 1036 c 128,-1,48
 1271 1027 1271 1027 1277.5 1016 c 128,-1,49
 1284 1005 1284 1005 1284 995 c 0,50,51
 1284 976 1284 976 1268 955 c 2,52,-1
 937 527 l 1,53,-1
 937 0 l 2,11,12
805 1183 m 0,54,55
 763 1183 763 1183 723.5 1200.5 c 128,-1,56
 684 1218 684 1218 654 1248.5 c 128,-1,57
 624 1279 624 1279 606 1319 c 128,-1,58
 588 1359 588 1359 588 1404 c 0,59,60
 588 1450 588 1450 603.5 1491 c 128,-1,61
 619 1532 619 1532 647.5 1562.5 c 128,-1,62
 676 1593 676 1593 714.5 1610.5 c 128,-1,63
 753 1628 753 1628 800 1628 c 0,64,65
 825 1628 825 1628 849 1622 c 1,66,67
 800 1694 800 1694 715.5 1752.5 c 128,-1,68
 631 1811 631 1811 519 1849 c 0,69,70
 502 1854 502 1854 491.5 1867 c 128,-1,71
 481 1880 481 1880 481 1901 c 0,72,73
 481 1926 481 1926 494.5 1942.5 c 128,-1,74
 508 1959 508 1959 534 1959 c 0,75,76
 547 1959 547 1959 553 1956 c 0,77,78
 658 1920 658 1920 744 1866.5 c 128,-1,79
 830 1813 830 1813 891 1746 c 128,-1,80
 952 1679 952 1679 985 1599 c 128,-1,81
 1018 1519 1018 1519 1018 1431 c 0,82,83
 1018 1384 1018 1384 1001.5 1339.5 c 128,-1,84
 985 1295 985 1295 956.5 1260 c 128,-1,85
 928 1225 928 1225 889 1204 c 128,-1,86
 850 1183 850 1183 805 1183 c 0,54,55
800 1515 m 0,87,88
 754 1515 754 1515 725.5 1485 c 128,-1,89
 697 1455 697 1455 697 1404 c 0,90,91
 697 1383 697 1383 706.5 1363 c 128,-1,92
 716 1343 716 1343 731.5 1328 c 128,-1,93
 747 1313 747 1313 766 1304 c 128,-1,94
 785 1295 785 1295 805 1295 c 0,95,96
 823 1295 823 1295 841.5 1305.5 c 128,-1,97
 860 1316 860 1316 875 1334 c 128,-1,98
 890 1352 890 1352 899.5 1376.5 c 128,-1,99
 909 1401 909 1401 910 1428 c 1,100,101
 905 1444 905 1444 893.5 1460 c 128,-1,102
 882 1476 882 1476 866.5 1488 c 128,-1,103
 851 1500 851 1500 833.5 1507.5 c 128,-1,104
 816 1515 816 1515 800 1515 c 0,87,88
EndSplineSet
EndChar

StartChar: uniE908
Encoding: 59656 59656 111
Width: 1500
Flags: W
LayerCount: 2
Fore
SplineSet
814 581 m 1,0,-1
 814 933 l 1,1,-1
 515 933 l 2,2,3
 441 933 441 933 390 882 c 0,4,5
 339 832 339 832 339 757 c 256,6,7
 339 682 339 682 390 632 c 0,8,9
 440 581 440 581 515 581 c 2,10,-1
 814 581 l 1,0,-1
937 0 m 2,11,12
 937 -61 937 -61 876 -61 c 0,13,14
 814 -61 814 -61 814 0 c 2,15,-1
 814 368 l 1,16,-1
 502 -35 l 2,17,18
 480 -63 480 -63 456 -63 c 0,19,20
 444 -63 444 -63 432 -57 c 128,-1,21
 420 -51 420 -51 410.5 -41.5 c 128,-1,22
 401 -32 401 -32 394.5 -21 c 128,-1,23
 388 -10 388 -10 388 0 c 0,24,25
 388 20 388 20 404 40 c 2,26,-1
 728 458 l 1,27,-1
 560 458 l 1,28,-1
 435 468 l 1,29,30
 339 495 339 495 277 575 c 0,31,32
 216 654 216 654 216 757 c 0,33,34
 216 880 216 880 304 968 c 0,35,36
 349 1013 349 1013 400.5 1034 c 128,-1,37
 452 1055 452 1055 515 1056 c 2,38,-1
 876 1057 l 2,39,40
 937 1057 937 1057 937 996 c 2,41,-1
 937 729 l 1,42,-1
 1170 1030 l 2,43,44
 1189 1057 1189 1057 1216 1057 c 0,45,46
 1227 1057 1227 1057 1239 1051 c 128,-1,47
 1251 1045 1251 1045 1261 1036 c 128,-1,48
 1271 1027 1271 1027 1277.5 1016 c 128,-1,49
 1284 1005 1284 1005 1284 995 c 0,50,51
 1284 976 1284 976 1268 955 c 2,52,-1
 937 527 l 1,53,-1
 937 0 l 2,11,12
805 1183 m 0,54,55
 763 1183 763 1183 723.5 1201 c 128,-1,56
 684 1219 684 1219 654 1249 c 128,-1,57
 624 1279 624 1279 606 1319.5 c 128,-1,58
 588 1360 588 1360 588 1405 c 0,59,60
 588 1451 588 1451 603.5 1492 c 128,-1,61
 619 1533 619 1533 647.5 1563.5 c 128,-1,62
 676 1594 676 1594 714.5 1611.5 c 128,-1,63
 753 1629 753 1629 800 1629 c 0,64,65
 826 1629 826 1629 850 1623 c 1,66,67
 829 1655 829 1655 801 1684.5 c 128,-1,68
 773 1714 773 1714 735 1740 c 1,69,-1
 617 1636 l 2,70,71
 609 1630 609 1630 600.5 1626 c 128,-1,72
 592 1622 592 1622 581 1622 c 0,73,74
 558 1622 558 1622 542.5 1639 c 128,-1,75
 527 1656 527 1656 526 1678 c 0,76,77
 524 1694 524 1694 531 1704 c 128,-1,78
 538 1714 538 1714 545 1721 c 2,79,-1
 634 1802 l 1,80,81
 607 1816 607 1816 578 1828 c 128,-1,82
 549 1840 549 1840 519 1851 c 0,83,84
 502 1856 502 1856 491.5 1869 c 128,-1,85
 481 1882 481 1882 481 1903 c 0,86,87
 481 1928 481 1928 494.5 1945 c 128,-1,88
 508 1962 508 1962 534 1962 c 0,89,90
 546 1962 546 1962 553 1958 c 0,91,92
 647 1926 647 1926 721 1882 c 1,93,-1
 822 1974 l 2,94,95
 829 1980 829 1980 837.5 1984 c 128,-1,96
 846 1988 846 1988 857 1988 c 0,97,98
 880 1988 880 1988 896.5 1971 c 128,-1,99
 913 1954 913 1954 913 1931 c 0,100,101
 913 1916 913 1916 907 1906 c 128,-1,102
 901 1896 901 1896 893 1889 c 2,103,-1
 816 1819 l 1,104,105
 1018 1659 1018 1659 1018 1432 c 0,106,107
 1018 1384 1018 1384 1001.5 1339.5 c 128,-1,108
 985 1295 985 1295 956.5 1260 c 128,-1,109
 928 1225 928 1225 889 1204 c 128,-1,110
 850 1183 850 1183 805 1183 c 0,54,55
800 1516 m 0,111,112
 754 1516 754 1516 725.5 1486 c 128,-1,113
 697 1456 697 1456 697 1405 c 0,114,115
 697 1384 697 1384 706.5 1364 c 128,-1,116
 716 1344 716 1344 731.5 1328.5 c 128,-1,117
 747 1313 747 1313 766 1304 c 128,-1,118
 785 1295 785 1295 805 1295 c 0,119,120
 823 1295 823 1295 841.5 1305.5 c 128,-1,121
 860 1316 860 1316 875 1334 c 128,-1,122
 890 1352 890 1352 899.5 1376.5 c 128,-1,123
 909 1401 909 1401 910 1429 c 1,124,125
 905 1445 905 1445 893.5 1461 c 128,-1,126
 882 1477 882 1477 866.5 1489 c 128,-1,127
 851 1501 851 1501 833.5 1508.5 c 128,-1,128
 816 1516 816 1516 800 1516 c 0,111,112
EndSplineSet
EndChar

StartChar: uniE909
Encoding: 59657 59657 112
Width: 1500
Flags: W
LayerCount: 2
Fore
SplineSet
623 1599 m 256,0,1
 588 1599 588 1599 564 1623.5 c 128,-1,2
 540 1648 540 1648 540 1684 c 0,3,4
 540 1719 540 1719 564 1743.5 c 128,-1,5
 588 1768 588 1768 623 1768 c 256,6,7
 658 1768 658 1768 682 1743.5 c 128,-1,8
 706 1719 706 1719 706 1684 c 0,9,10
 706 1648 706 1648 682 1623.5 c 128,-1,11
 658 1599 658 1599 623 1599 c 256,0,1
710 1179 m 0,12,13
 658 1179 658 1179 607.5 1195.5 c 128,-1,14
 557 1212 557 1212 517 1241.5 c 128,-1,15
 477 1271 477 1271 452 1312.5 c 128,-1,16
 427 1354 427 1354 427 1404 c 0,17,18
 427 1442 427 1442 446 1472 c 128,-1,19
 465 1502 465 1502 495 1522.5 c 128,-1,20
 525 1543 525 1543 562 1554 c 128,-1,21
 599 1565 599 1565 636 1565 c 0,22,23
 675 1565 675 1565 715.5 1554 c 128,-1,24
 756 1543 756 1543 790.5 1522.5 c 128,-1,25
 825 1502 825 1502 849 1472 c 128,-1,26
 873 1442 873 1442 878 1404 c 2,27,-1
 879 1397 l 2,28,29
 880 1394 880 1394 880 1388 c 0,30,31
 880 1362 880 1362 864 1347.5 c 128,-1,32
 848 1333 848 1333 824 1333 c 0,33,34
 805 1333 805 1333 791 1342.5 c 128,-1,35
 777 1352 777 1352 771 1372 c 0,36,37
 766 1388 766 1388 753.5 1402.5 c 128,-1,38
 741 1417 741 1417 722.5 1428 c 128,-1,39
 704 1439 704 1439 682 1445.5 c 128,-1,40
 660 1452 660 1452 636 1452 c 0,41,42
 613 1452 613 1452 595 1446.5 c 128,-1,43
 577 1441 577 1441 564 1433.5 c 128,-1,44
 551 1426 551 1426 544.5 1417.5 c 128,-1,45
 538 1409 538 1409 538 1404 c 0,46,47
 538 1384 538 1384 551.5 1364 c 128,-1,48
 565 1344 565 1344 588.5 1327.5 c 128,-1,49
 612 1311 612 1311 643 1301 c 128,-1,50
 674 1291 674 1291 710 1291 c 0,51,52
 765 1291 765 1291 811 1309.5 c 128,-1,53
 857 1328 857 1328 890.5 1361 c 128,-1,54
 924 1394 924 1394 942.5 1440 c 128,-1,55
 961 1486 961 1486 961 1541 c 0,56,57
 961 1700 961 1700 898.5 1772.5 c 128,-1,58
 836 1845 836 1845 710 1845 c 0,59,60
 693 1845 693 1845 671 1838 c 128,-1,61
 649 1831 649 1831 626.5 1820 c 128,-1,62
 604 1809 604 1809 584.5 1796 c 128,-1,63
 565 1783 565 1783 555 1770 c 0,64,65
 548 1762 548 1762 538.5 1755.5 c 128,-1,66
 529 1749 529 1749 514 1749 c 0,67,68
 491 1749 491 1749 474 1766 c 128,-1,69
 457 1783 457 1783 457 1806 c 0,70,71
 457 1817 457 1817 468.5 1833 c 128,-1,72
 480 1849 480 1849 498 1865.5 c 128,-1,73
 516 1882 516 1882 537.5 1897.5 c 128,-1,74
 559 1913 559 1913 580 1923 c 0,75,76
 614 1940 614 1940 646 1948.5 c 128,-1,77
 678 1957 678 1957 710 1957 c 0,78,79
 799 1957 799 1957 867 1928.5 c 128,-1,80
 935 1900 935 1900 980.5 1846.5 c 128,-1,81
 1026 1793 1026 1793 1049 1715.5 c 128,-1,82
 1072 1638 1072 1638 1072 1541 c 0,83,84
 1072 1463 1072 1463 1044.5 1396.5 c 128,-1,85
 1017 1330 1017 1330 969 1281.5 c 128,-1,86
 921 1233 921 1233 854.5 1206 c 128,-1,87
 788 1179 788 1179 710 1179 c 0,12,13
937 0 m 2,88,89
 937 -61 937 -61 876 -61 c 0,90,91
 814 -61 814 -61 814 0 c 2,92,-1
 814 368 l 1,93,-1
 502 -35 l 2,94,95
 480 -63 480 -63 456 -63 c 0,96,97
 444 -63 444 -63 432 -57 c 128,-1,98
 420 -51 420 -51 410.5 -41.5 c 128,-1,99
 401 -32 401 -32 394.5 -21 c 128,-1,100
 388 -10 388 -10 388 0 c 0,101,102
 388 20 388 20 404 40 c 2,103,-1
 728 458 l 1,104,-1
 560 458 l 1,105,-1
 435 468 l 1,106,107
 339 495 339 495 277 575 c 0,108,109
 216 654 216 654 216 757 c 0,110,111
 216 880 216 880 304 968 c 0,112,113
 349 1013 349 1013 400.5 1034 c 128,-1,114
 452 1055 452 1055 515 1056 c 2,115,-1
 876 1057 l 2,116,117
 937 1057 937 1057 937 996 c 2,118,-1
 937 729 l 1,119,-1
 1170 1030 l 2,120,121
 1189 1057 1189 1057 1216 1057 c 0,122,123
 1227 1057 1227 1057 1239 1051 c 128,-1,124
 1251 1045 1251 1045 1261 1036 c 128,-1,125
 1271 1027 1271 1027 1277.5 1016 c 128,-1,126
 1284 1005 1284 1005 1284 995 c 0,127,128
 1284 976 1284 976 1268 955 c 2,129,-1
 937 527 l 1,130,-1
 937 0 l 2,88,89
814 581 m 1,131,-1
 814 933 l 1,132,-1
 515 933 l 2,133,134
 441 933 441 933 390 882 c 0,135,136
 339 832 339 832 339 757 c 256,137,138
 339 682 339 682 390 632 c 0,139,140
 440 581 440 581 515 581 c 2,141,-1
 814 581 l 1,131,-1
EndSplineSet
EndChar

StartChar: uniE90A
Encoding: 59658 59658 113
Width: 1500
Flags: W
LayerCount: 2
Fore
SplineSet
814 581 m 1,0,-1
 814 933 l 1,1,-1
 515 933 l 2,2,3
 441 933 441 933 390 882 c 0,4,5
 339 832 339 832 339 757 c 256,6,7
 339 682 339 682 390 632 c 0,8,9
 440 581 440 581 515 581 c 2,10,-1
 814 581 l 1,0,-1
937 0 m 2,11,12
 937 -61 937 -61 876 -61 c 0,13,14
 814 -61 814 -61 814 0 c 2,15,-1
 814 368 l 1,16,-1
 502 -35 l 2,17,18
 480 -63 480 -63 456 -63 c 0,19,20
 444 -63 444 -63 432 -57 c 128,-1,21
 420 -51 420 -51 410.5 -41.5 c 128,-1,22
 401 -32 401 -32 394.5 -21 c 128,-1,23
 388 -10 388 -10 388 0 c 0,24,25
 388 20 388 20 404 40 c 2,26,-1
 728 458 l 1,27,-1
 560 458 l 1,28,-1
 435 468 l 1,29,30
 339 495 339 495 277 575 c 0,31,32
 216 654 216 654 216 757 c 0,33,34
 216 880 216 880 304 968 c 0,35,36
 349 1013 349 1013 400.5 1034 c 128,-1,37
 452 1055 452 1055 515 1056 c 2,38,-1
 876 1057 l 2,39,40
 937 1057 937 1057 937 996 c 2,41,-1
 937 729 l 1,42,-1
 1170 1030 l 2,43,44
 1189 1057 1189 1057 1216 1057 c 0,45,46
 1227 1057 1227 1057 1239 1051 c 128,-1,47
 1251 1045 1251 1045 1261 1036 c 128,-1,48
 1271 1027 1271 1027 1277.5 1016 c 128,-1,49
 1284 1005 1284 1005 1284 995 c 0,50,51
 1284 976 1284 976 1268 955 c 2,52,-1
 937 527 l 1,53,-1
 937 0 l 2,11,12
858 1728 m 0,54,55
 835 1728 835 1728 821 1743 c 128,-1,56
 807 1758 807 1758 807 1784 c 256,57,58
 807 1810 807 1810 789 1829.5 c 128,-1,59
 771 1849 771 1849 747 1849 c 0,60,61
 735 1849 735 1849 724.5 1843.5 c 128,-1,62
 714 1838 714 1838 705.5 1829 c 128,-1,63
 697 1820 697 1820 692 1808.5 c 128,-1,64
 687 1797 687 1797 687 1784 c 2,65,-1
 687 1239 l 2,66,67
 687 1212 687 1212 673.5 1197.5 c 128,-1,68
 660 1183 660 1183 636 1183 c 256,69,70
 612 1183 612 1183 598.5 1197.5 c 128,-1,71
 585 1212 585 1212 585 1239 c 2,72,-1
 585 1784 l 2,73,74
 585 1821 585 1821 598 1853.5 c 128,-1,75
 611 1886 611 1886 633 1910 c 128,-1,76
 655 1934 655 1934 684.5 1947.5 c 128,-1,77
 714 1961 714 1961 747 1961 c 256,78,79
 780 1961 780 1961 810 1947 c 128,-1,80
 840 1933 840 1933 862 1908.5 c 128,-1,81
 884 1884 884 1884 897 1852 c 128,-1,82
 910 1820 910 1820 910 1784 c 0,83,84
 910 1758 910 1758 896 1743 c 128,-1,85
 882 1728 882 1728 858 1728 c 0,54,55
837 1459 m 0,86,87
 804 1459 804 1459 781.5 1484 c 128,-1,88
 759 1509 759 1509 759 1544 c 0,89,90
 759 1580 759 1580 782 1604.5 c 128,-1,91
 805 1629 805 1629 837 1629 c 0,92,93
 868 1629 868 1629 891 1604.5 c 128,-1,94
 914 1580 914 1580 914 1544 c 0,95,96
 914 1527 914 1527 908 1511.5 c 128,-1,97
 902 1496 902 1496 891.5 1484.5 c 128,-1,98
 881 1473 881 1473 867 1466 c 128,-1,99
 853 1459 853 1459 837 1459 c 0,86,87
EndSplineSet
EndChar

StartChar: uniE912
Encoding: 59666 59666 114
Width: 1500
Flags: W
LayerCount: 2
Fore
SplineSet
1155 747 m 2,0,1
 1155 686 1155 686 1094 686 c 0,2,3
 1032 686 1032 686 1032 747 c 2,4,-1
 1032 996 l 2,5,6
 1032 1057 1032 1057 1094 1057 c 0,7,8
 1155 1057 1155 1057 1155 996 c 2,9,-1
 1155 747 l 2,0,1
839 747 m 2,10,11
 839 686 839 686 778 686 c 0,12,13
 716 686 716 686 716 747 c 2,14,-1
 716 996 l 2,15,16
 716 1057 716 1057 778 1057 c 0,17,18
 839 1057 839 1057 839 996 c 2,19,-1
 839 747 l 2,10,11
344 262 m 0,20,21
 344 324 344 324 406 324 c 0,22,23
 467 324 467 324 467 262 c 0,24,25
 467 221 467 221 483 185 c 128,-1,26
 499 149 499 149 526.5 121.5 c 128,-1,27
 554 94 554 94 591 78 c 128,-1,28
 628 62 628 62 670 62 c 0,29,30
 711 62 711 62 747.5 78.5 c 128,-1,31
 784 95 784 95 811.5 122.5 c 128,-1,32
 839 150 839 150 855 186 c 128,-1,33
 871 222 871 222 871 262 c 2,34,-1
 871 629 l 2,35,36
 871 690 871 690 932 690 c 0,37,38
 994 690 994 690 994 629 c 2,39,-1
 994 262 l 2,40,41
 994 196 994 196 968 137 c 128,-1,42
 942 78 942 78 898 34 c 128,-1,43
 854 -10 854 -10 795 -35.5 c 128,-1,44
 736 -61 736 -61 670 -61 c 0,45,46
 603 -61 603 -61 544 -35.5 c 128,-1,47
 485 -10 485 -10 440.5 33.5 c 128,-1,48
 396 77 396 77 370 136 c 128,-1,49
 344 195 344 195 344 262 c 0,20,21
929 1181 m 0,50,51
 868 1181 868 1181 868 1237 c 2,52,-1
 868 1904 l 2,53,54
 868 1930 868 1930 884.5 1944.5 c 128,-1,55
 901 1959 901 1959 929 1959 c 0,56,57
 956 1959 956 1959 972.5 1944.5 c 128,-1,58
 989 1930 989 1930 989 1904 c 2,59,-1
 989 1237 l 2,60,61
 989 1210 989 1210 973 1195.5 c 128,-1,62
 957 1181 957 1181 929 1181 c 0,50,51
EndSplineSet
EndChar

StartChar: uniE913
Encoding: 59667 59667 115
Width: 1500
Flags: W
LayerCount: 2
Fore
SplineSet
1155 747 m 2,0,1
 1155 686 1155 686 1094 686 c 0,2,3
 1032 686 1032 686 1032 747 c 2,4,-1
 1032 996 l 2,5,6
 1032 1057 1032 1057 1094 1057 c 0,7,8
 1155 1057 1155 1057 1155 996 c 2,9,-1
 1155 747 l 2,0,1
839 747 m 2,10,11
 839 686 839 686 778 686 c 0,12,13
 716 686 716 686 716 747 c 2,14,-1
 716 996 l 2,15,16
 716 1057 716 1057 778 1057 c 0,17,18
 839 1057 839 1057 839 996 c 2,19,-1
 839 747 l 2,10,11
344 262 m 0,20,21
 344 324 344 324 406 324 c 0,22,23
 467 324 467 324 467 262 c 0,24,25
 467 221 467 221 483 185 c 128,-1,26
 499 149 499 149 526.5 121.5 c 128,-1,27
 554 94 554 94 591 78 c 128,-1,28
 628 62 628 62 670 62 c 0,29,30
 711 62 711 62 747.5 78.5 c 128,-1,31
 784 95 784 95 811.5 122.5 c 128,-1,32
 839 150 839 150 855 186 c 128,-1,33
 871 222 871 222 871 262 c 2,34,-1
 871 629 l 2,35,36
 871 690 871 690 932 690 c 0,37,38
 994 690 994 690 994 629 c 2,39,-1
 994 262 l 2,40,41
 994 196 994 196 968 137 c 128,-1,42
 942 78 942 78 898 34 c 128,-1,43
 854 -10 854 -10 795 -35.5 c 128,-1,44
 736 -61 736 -61 670 -61 c 0,45,46
 603 -61 603 -61 544 -35.5 c 128,-1,47
 485 -10 485 -10 440.5 33.5 c 128,-1,48
 396 77 396 77 370 136 c 128,-1,49
 344 195 344 195 344 262 c 0,20,21
634 1289 m 1,50,-1
 1147 1289 l 2,51,52
 1174 1289 1174 1289 1189.5 1275 c 128,-1,53
 1205 1261 1205 1261 1205 1236 c 256,54,55
 1205 1211 1205 1211 1189 1197 c 128,-1,56
 1173 1183 1173 1183 1147 1183 c 2,57,-1
 356 1183 l 1,58,-1
 346 1183 l 2,59,60
 332 1183 332 1183 322 1188.5 c 128,-1,61
 312 1194 312 1194 305.5 1202 c 128,-1,62
 299 1210 299 1210 296 1219.5 c 128,-1,63
 293 1229 293 1229 293 1238 c 0,64,65
 293 1257 293 1257 304.5 1268.5 c 128,-1,66
 316 1280 316 1280 333 1287 c 2,67,-1
 1127 1595 l 2,68,69
 1132 1597 1132 1597 1138.5 1598 c 128,-1,70
 1145 1599 1145 1599 1152 1599 c 0,71,72
 1175 1599 1175 1599 1191 1582 c 128,-1,73
 1207 1565 1207 1565 1207 1543 c 0,74,75
 1207 1525 1207 1525 1195.5 1513.5 c 128,-1,76
 1184 1502 1184 1502 1170 1497 c 2,77,-1
 634 1289 l 1,50,-1
EndSplineSet
EndChar

StartChar: uniE914
Encoding: 59668 59668 116
Width: 1500
Flags: W
LayerCount: 2
Fore
SplineSet
1155 747 m 2,0,1
 1155 686 1155 686 1094 686 c 0,2,3
 1032 686 1032 686 1032 747 c 2,4,-1
 1032 996 l 2,5,6
 1032 1057 1032 1057 1094 1057 c 0,7,8
 1155 1057 1155 1057 1155 996 c 2,9,-1
 1155 747 l 2,0,1
839 747 m 2,10,11
 839 686 839 686 778 686 c 0,12,13
 716 686 716 686 716 747 c 2,14,-1
 716 996 l 2,15,16
 716 1057 716 1057 778 1057 c 0,17,18
 839 1057 839 1057 839 996 c 2,19,-1
 839 747 l 2,10,11
344 262 m 0,20,21
 344 324 344 324 406 324 c 0,22,23
 467 324 467 324 467 262 c 0,24,25
 467 221 467 221 483 185 c 128,-1,26
 499 149 499 149 526.5 121.5 c 128,-1,27
 554 94 554 94 591 78 c 128,-1,28
 628 62 628 62 670 62 c 0,29,30
 711 62 711 62 747.5 78.5 c 128,-1,31
 784 95 784 95 811.5 122.5 c 128,-1,32
 839 150 839 150 855 186 c 128,-1,33
 871 222 871 222 871 262 c 2,34,-1
 871 629 l 2,35,36
 871 690 871 690 932 690 c 0,37,38
 994 690 994 690 994 629 c 2,39,-1
 994 262 l 2,40,41
 994 196 994 196 968 137 c 128,-1,42
 942 78 942 78 898 34 c 128,-1,43
 854 -10 854 -10 795 -35.5 c 128,-1,44
 736 -61 736 -61 670 -61 c 0,45,46
 603 -61 603 -61 544 -35.5 c 128,-1,47
 485 -10 485 -10 440.5 33.5 c 128,-1,48
 396 77 396 77 370 136 c 128,-1,49
 344 195 344 195 344 262 c 0,20,21
893 1360 m 0,50,51
 805 1360 805 1360 750 1420 c 1,52,53
 693 1360 693 1360 606 1360 c 0,54,55
 562 1360 562 1360 520 1380 c 1,56,-1
 520 1238 l 2,57,58
 520 1212 520 1212 504.5 1198 c 128,-1,59
 489 1184 489 1184 464 1184 c 0,60,61
 438 1184 438 1184 423 1198 c 128,-1,62
 408 1212 408 1212 408 1238 c 2,63,-1
 408 1742 l 2,64,65
 408 1768 408 1768 423 1783 c 128,-1,66
 438 1798 438 1798 464 1798 c 256,67,68
 490 1798 490 1798 504 1782.5 c 128,-1,69
 518 1767 518 1767 519 1742 c 2,70,-1
 520 1546 l 2,71,72
 520 1531 520 1531 527 1517.5 c 128,-1,73
 534 1504 534 1504 546 1493.5 c 128,-1,74
 558 1483 558 1483 573.5 1477 c 128,-1,75
 589 1471 589 1471 606 1471 c 0,76,77
 642 1471 642 1471 667.5 1496.5 c 128,-1,78
 693 1522 693 1522 693 1558 c 2,79,-1
 693 1742 l 2,80,81
 693 1768 693 1768 708.5 1783 c 128,-1,82
 724 1798 724 1798 750 1798 c 256,83,84
 776 1798 776 1798 791 1783 c 128,-1,85
 806 1768 806 1768 806 1742 c 2,86,-1
 806 1558 l 2,87,88
 806 1521 806 1521 831 1496 c 128,-1,89
 856 1471 856 1471 893 1471 c 0,90,91
 910 1471 910 1471 925.5 1478 c 128,-1,92
 941 1485 941 1485 953 1497 c 128,-1,93
 965 1509 965 1509 972 1524.5 c 128,-1,94
 979 1540 979 1540 979 1558 c 2,95,-1
 979 1742 l 2,96,97
 979 1768 979 1768 994 1783 c 128,-1,98
 1009 1798 1009 1798 1035 1798 c 256,99,100
 1061 1798 1061 1798 1076.5 1783 c 128,-1,101
 1092 1768 1092 1768 1092 1742 c 2,102,-1
 1092 1558 l 2,103,104
 1092 1517 1092 1517 1076 1481 c 128,-1,105
 1060 1445 1060 1445 1032.5 1418 c 128,-1,106
 1005 1391 1005 1391 969 1375.5 c 128,-1,107
 933 1360 933 1360 893 1360 c 0,50,51
EndSplineSet
EndChar

StartChar: uniE915
Encoding: 59669 59669 117
Width: 1500
Flags: W
LayerCount: 2
Fore
SplineSet
1155 747 m 2,0,1
 1155 686 1155 686 1094 686 c 0,2,3
 1032 686 1032 686 1032 747 c 2,4,-1
 1032 996 l 2,5,6
 1032 1057 1032 1057 1094 1057 c 0,7,8
 1155 1057 1155 1057 1155 996 c 2,9,-1
 1155 747 l 2,0,1
839 747 m 2,10,11
 839 686 839 686 778 686 c 0,12,13
 716 686 716 686 716 747 c 2,14,-1
 716 996 l 2,15,16
 716 1057 716 1057 778 1057 c 0,17,18
 839 1057 839 1057 839 996 c 2,19,-1
 839 747 l 2,10,11
344 262 m 0,20,21
 344 324 344 324 406 324 c 0,22,23
 467 324 467 324 467 262 c 0,24,25
 467 221 467 221 483 185 c 128,-1,26
 499 149 499 149 526.5 121.5 c 128,-1,27
 554 94 554 94 591 78 c 128,-1,28
 628 62 628 62 670 62 c 0,29,30
 711 62 711 62 747.5 78.5 c 128,-1,31
 784 95 784 95 811.5 122.5 c 128,-1,32
 839 150 839 150 855 186 c 128,-1,33
 871 222 871 222 871 262 c 2,34,-1
 871 629 l 2,35,36
 871 690 871 690 932 690 c 0,37,38
 994 690 994 690 994 629 c 2,39,-1
 994 262 l 2,40,41
 994 196 994 196 968 137 c 128,-1,42
 942 78 942 78 898 34 c 128,-1,43
 854 -10 854 -10 795 -35.5 c 128,-1,44
 736 -61 736 -61 670 -61 c 0,45,46
 603 -61 603 -61 544 -35.5 c 128,-1,47
 485 -10 485 -10 440.5 33.5 c 128,-1,48
 396 77 396 77 370 136 c 128,-1,49
 344 195 344 195 344 262 c 0,20,21
778 1627 m 0,50,51
 742 1627 742 1627 716.5 1650.5 c 128,-1,52
 691 1674 691 1674 691 1710 c 0,53,54
 691 1745 691 1745 717 1768.5 c 128,-1,55
 743 1792 743 1792 778 1792 c 0,56,57
 814 1792 814 1792 838.5 1768.5 c 128,-1,58
 863 1745 863 1745 863 1710 c 256,59,60
 863 1675 863 1675 839.5 1651 c 128,-1,61
 816 1627 816 1627 778 1627 c 0,50,51
372 1180 m 2,62,63
 366 1178 366 1178 360.5 1176.5 c 128,-1,64
 355 1175 355 1175 347 1175 c 0,65,66
 324 1175 324 1175 308.5 1193 c 128,-1,67
 293 1211 293 1211 293 1234 c 0,68,69
 293 1253 293 1253 303.5 1264.5 c 128,-1,70
 314 1276 314 1276 329 1282 c 2,71,-1
 866 1499 l 1,72,-1
 352 1499 l 2,73,74
 317 1499 317 1499 305 1520 c 128,-1,75
 293 1541 293 1541 293 1565 c 2,76,-1
 293 1738 l 2,77,78
 293 1764 293 1764 309 1778 c 128,-1,79
 325 1792 325 1792 351 1792 c 256,80,81
 377 1792 377 1792 392.5 1778 c 128,-1,82
 408 1764 408 1764 408 1738 c 2,83,-1
 408 1609 l 1,84,-1
 1146 1609 l 1,85,-1
 1153 1609 l 2,86,87
 1181 1609 1181 1609 1194 1589.5 c 128,-1,88
 1207 1570 1207 1570 1207 1552 c 0,89,90
 1207 1532 1207 1532 1195.5 1519 c 128,-1,91
 1184 1506 1184 1506 1167 1501 c 2,92,-1
 372 1180 l 2,62,63
EndSplineSet
EndChar

StartChar: uniE916
Encoding: 59670 59670 118
Width: 1500
Flags: W
LayerCount: 2
Fore
SplineSet
1155 747 m 2,0,1
 1155 686 1155 686 1094 686 c 0,2,3
 1032 686 1032 686 1032 747 c 2,4,-1
 1032 996 l 2,5,6
 1032 1057 1032 1057 1094 1057 c 0,7,8
 1155 1057 1155 1057 1155 996 c 2,9,-1
 1155 747 l 2,0,1
839 747 m 2,10,11
 839 686 839 686 778 686 c 0,12,13
 716 686 716 686 716 747 c 2,14,-1
 716 996 l 2,15,16
 716 1057 716 1057 778 1057 c 0,17,18
 839 1057 839 1057 839 996 c 2,19,-1
 839 747 l 2,10,11
344 262 m 0,20,21
 344 324 344 324 406 324 c 0,22,23
 467 324 467 324 467 262 c 0,24,25
 467 221 467 221 483 185 c 128,-1,26
 499 149 499 149 526.5 121.5 c 128,-1,27
 554 94 554 94 591 78 c 128,-1,28
 628 62 628 62 670 62 c 0,29,30
 711 62 711 62 747.5 78.5 c 128,-1,31
 784 95 784 95 811.5 122.5 c 128,-1,32
 839 150 839 150 855 186 c 128,-1,33
 871 222 871 222 871 262 c 2,34,-1
 871 629 l 2,35,36
 871 690 871 690 932 690 c 0,37,38
 994 690 994 690 994 629 c 2,39,-1
 994 262 l 2,40,41
 994 196 994 196 968 137 c 128,-1,42
 942 78 942 78 898 34 c 128,-1,43
 854 -10 854 -10 795 -35.5 c 128,-1,44
 736 -61 736 -61 670 -61 c 0,45,46
 603 -61 603 -61 544 -35.5 c 128,-1,47
 485 -10 485 -10 440.5 33.5 c 128,-1,48
 396 77 396 77 370 136 c 128,-1,49
 344 195 344 195 344 262 c 0,20,21
943 1178 m 256,50,51
 900 1178 900 1178 863 1195 c 128,-1,52
 826 1212 826 1212 798.5 1241 c 128,-1,53
 771 1270 771 1270 755 1309.5 c 128,-1,54
 739 1349 739 1349 739 1394 c 0,55,56
 739 1490 739 1490 805 1555 c 1,57,58
 771 1587 771 1587 755 1628 c 128,-1,59
 739 1669 739 1669 739 1717 c 0,60,61
 739 1762 739 1762 755 1801.5 c 128,-1,62
 771 1841 771 1841 798.5 1870.5 c 128,-1,63
 826 1900 826 1900 863.5 1917 c 128,-1,64
 901 1934 901 1934 943 1934 c 256,65,66
 985 1934 985 1934 1022.5 1916.5 c 128,-1,67
 1060 1899 1060 1899 1088 1869.5 c 128,-1,68
 1116 1840 1116 1840 1132 1800.5 c 128,-1,69
 1148 1761 1148 1761 1148 1717 c 0,70,71
 1148 1620 1148 1620 1081 1555 c 1,72,73
 1148 1491 1148 1491 1148 1394 c 0,74,75
 1148 1349 1148 1349 1132 1310 c 128,-1,76
 1116 1271 1116 1271 1088 1241.5 c 128,-1,77
 1060 1212 1060 1212 1023 1195 c 128,-1,78
 986 1178 986 1178 943 1178 c 256,50,51
945 1821 m 0,79,80
 925 1821 925 1821 907.5 1812.5 c 128,-1,81
 890 1804 890 1804 876.5 1790 c 128,-1,82
 863 1776 863 1776 855 1757 c 128,-1,83
 847 1738 847 1738 847 1717 c 256,84,85
 847 1696 847 1696 854 1676.5 c 128,-1,86
 861 1657 861 1657 873 1643 c 128,-1,87
 885 1629 885 1629 901.5 1620.5 c 128,-1,88
 918 1612 918 1612 936 1612 c 2,89,-1
 943 1612 l 1,90,-1
 953 1612 l 2,91,92
 971 1612 971 1612 987.5 1620.5 c 128,-1,93
 1004 1629 1004 1629 1016.5 1643 c 128,-1,94
 1029 1657 1029 1657 1036.5 1676.5 c 128,-1,95
 1044 1696 1044 1696 1044 1717 c 256,96,97
 1044 1738 1044 1738 1036.5 1757 c 128,-1,98
 1029 1776 1029 1776 1015.5 1790 c 128,-1,99
 1002 1804 1002 1804 984 1812.5 c 128,-1,100
 966 1821 966 1821 945 1821 c 0,79,80
943 1499 m 1,101,-1
 936 1499 l 2,102,103
 918 1499 918 1499 901.5 1490.5 c 128,-1,104
 885 1482 885 1482 873 1468 c 128,-1,105
 861 1454 861 1454 854 1434.5 c 128,-1,106
 847 1415 847 1415 847 1394 c 256,107,108
 847 1373 847 1373 855 1354 c 128,-1,109
 863 1335 863 1335 876.5 1321 c 128,-1,110
 890 1307 890 1307 907.5 1298.5 c 128,-1,111
 925 1290 925 1290 945 1290 c 256,112,113
 965 1290 965 1290 983 1298.5 c 128,-1,114
 1001 1307 1001 1307 1014.5 1321 c 128,-1,115
 1028 1335 1028 1335 1036 1354 c 128,-1,116
 1044 1373 1044 1373 1044 1394 c 256,117,118
 1044 1415 1044 1415 1036.5 1434.5 c 128,-1,119
 1029 1454 1029 1454 1016.5 1468 c 128,-1,120
 1004 1482 1004 1482 987.5 1490.5 c 128,-1,121
 971 1499 971 1499 953 1499 c 2,122,-1
 943 1499 l 1,101,-1
EndSplineSet
EndChar

StartChar: uniE917
Encoding: 59671 59671 119
Width: 1500
Flags: W
LayerCount: 2
Fore
SplineSet
1155 747 m 2,0,1
 1155 686 1155 686 1094 686 c 0,2,3
 1032 686 1032 686 1032 747 c 2,4,-1
 1032 996 l 2,5,6
 1032 1057 1032 1057 1094 1057 c 0,7,8
 1155 1057 1155 1057 1155 996 c 2,9,-1
 1155 747 l 2,0,1
839 747 m 2,10,11
 839 686 839 686 778 686 c 0,12,13
 716 686 716 686 716 747 c 2,14,-1
 716 996 l 2,15,16
 716 1057 716 1057 778 1057 c 0,17,18
 839 1057 839 1057 839 996 c 2,19,-1
 839 747 l 2,10,11
344 262 m 0,20,21
 344 324 344 324 406 324 c 0,22,23
 467 324 467 324 467 262 c 0,24,25
 467 221 467 221 483 185 c 128,-1,26
 499 149 499 149 526.5 121.5 c 128,-1,27
 554 94 554 94 591 78 c 128,-1,28
 628 62 628 62 670 62 c 0,29,30
 711 62 711 62 747.5 78.5 c 128,-1,31
 784 95 784 95 811.5 122.5 c 128,-1,32
 839 150 839 150 855 186 c 128,-1,33
 871 222 871 222 871 262 c 2,34,-1
 871 629 l 2,35,36
 871 690 871 690 932 690 c 0,37,38
 994 690 994 690 994 629 c 2,39,-1
 994 262 l 2,40,41
 994 196 994 196 968 137 c 128,-1,42
 942 78 942 78 898 34 c 128,-1,43
 854 -10 854 -10 795 -35.5 c 128,-1,44
 736 -61 736 -61 670 -61 c 0,45,46
 603 -61 603 -61 544 -35.5 c 128,-1,47
 485 -10 485 -10 440.5 33.5 c 128,-1,48
 396 77 396 77 370 136 c 128,-1,49
 344 195 344 195 344 262 c 0,20,21
922 1183 m 0,50,51
 879 1183 879 1183 840 1200.5 c 128,-1,52
 801 1218 801 1218 771 1248.5 c 128,-1,53
 741 1279 741 1279 723 1319 c 128,-1,54
 705 1359 705 1359 705 1404 c 0,55,56
 705 1450 705 1450 720.5 1491 c 128,-1,57
 736 1532 736 1532 764.5 1562.5 c 128,-1,58
 793 1593 793 1593 831.5 1610.5 c 128,-1,59
 870 1628 870 1628 917 1628 c 0,60,61
 942 1628 942 1628 966 1622 c 1,62,63
 917 1694 917 1694 832 1752.5 c 128,-1,64
 747 1811 747 1811 636 1849 c 0,65,66
 598 1860 598 1860 598 1901 c 0,67,68
 598 1926 598 1926 611.5 1942.5 c 128,-1,69
 625 1959 625 1959 651 1959 c 0,70,71
 664 1959 664 1959 670 1956 c 0,72,73
 775 1920 775 1920 861 1866.5 c 128,-1,74
 947 1813 947 1813 1008 1746 c 128,-1,75
 1069 1679 1069 1679 1102 1599 c 128,-1,76
 1135 1519 1135 1519 1135 1431 c 0,77,78
 1135 1384 1135 1384 1118.5 1339.5 c 128,-1,79
 1102 1295 1102 1295 1073.5 1260 c 128,-1,80
 1045 1225 1045 1225 1006 1204 c 128,-1,81
 967 1183 967 1183 922 1183 c 0,50,51
917 1515 m 0,82,83
 871 1515 871 1515 842.5 1485 c 128,-1,84
 814 1455 814 1455 814 1404 c 0,85,86
 814 1383 814 1383 823.5 1363 c 128,-1,87
 833 1343 833 1343 848.5 1328 c 128,-1,88
 864 1313 864 1313 883 1304 c 128,-1,89
 902 1295 902 1295 922 1295 c 0,90,91
 940 1295 940 1295 958.5 1305.5 c 128,-1,92
 977 1316 977 1316 992 1334 c 128,-1,93
 1007 1352 1007 1352 1016.5 1376.5 c 128,-1,94
 1026 1401 1026 1401 1027 1428 c 1,95,96
 1022 1444 1022 1444 1010.5 1460 c 128,-1,97
 999 1476 999 1476 983.5 1488 c 128,-1,98
 968 1500 968 1500 950.5 1507.5 c 128,-1,99
 933 1515 933 1515 917 1515 c 0,82,83
EndSplineSet
EndChar

StartChar: uniE918
Encoding: 59672 59672 120
Width: 1500
Flags: W
LayerCount: 2
Fore
SplineSet
1155 747 m 2,0,1
 1155 686 1155 686 1094 686 c 0,2,3
 1032 686 1032 686 1032 747 c 2,4,-1
 1032 996 l 2,5,6
 1032 1057 1032 1057 1094 1057 c 0,7,8
 1155 1057 1155 1057 1155 996 c 2,9,-1
 1155 747 l 2,0,1
839 747 m 2,10,11
 839 686 839 686 778 686 c 0,12,13
 716 686 716 686 716 747 c 2,14,-1
 716 996 l 2,15,16
 716 1057 716 1057 778 1057 c 0,17,18
 839 1057 839 1057 839 996 c 2,19,-1
 839 747 l 2,10,11
344 262 m 0,20,21
 344 324 344 324 406 324 c 0,22,23
 467 324 467 324 467 262 c 0,24,25
 467 221 467 221 483 185 c 128,-1,26
 499 149 499 149 526.5 121.5 c 128,-1,27
 554 94 554 94 591 78 c 128,-1,28
 628 62 628 62 670 62 c 0,29,30
 711 62 711 62 747.5 78.5 c 128,-1,31
 784 95 784 95 811.5 122.5 c 128,-1,32
 839 150 839 150 855 186 c 128,-1,33
 871 222 871 222 871 262 c 2,34,-1
 871 629 l 2,35,36
 871 690 871 690 932 690 c 0,37,38
 994 690 994 690 994 629 c 2,39,-1
 994 262 l 2,40,41
 994 196 994 196 968 137 c 128,-1,42
 942 78 942 78 898 34 c 128,-1,43
 854 -10 854 -10 795 -35.5 c 128,-1,44
 736 -61 736 -61 670 -61 c 0,45,46
 603 -61 603 -61 544 -35.5 c 128,-1,47
 485 -10 485 -10 440.5 33.5 c 128,-1,48
 396 77 396 77 370 136 c 128,-1,49
 344 195 344 195 344 262 c 0,20,21
922 1183 m 0,50,51
 879 1183 879 1183 840 1201 c 128,-1,52
 801 1219 801 1219 771 1249 c 128,-1,53
 741 1279 741 1279 723 1319.5 c 128,-1,54
 705 1360 705 1360 705 1405 c 0,55,56
 705 1451 705 1451 720.5 1492 c 128,-1,57
 736 1533 736 1533 764.5 1563.5 c 128,-1,58
 793 1594 793 1594 831.5 1611.5 c 128,-1,59
 870 1629 870 1629 917 1629 c 0,60,61
 943 1629 943 1629 967 1623 c 1,62,63
 946 1655 946 1655 918 1684.5 c 128,-1,64
 890 1714 890 1714 852 1740 c 1,65,-1
 734 1636 l 2,66,67
 726 1630 726 1630 717.5 1626 c 128,-1,68
 709 1622 709 1622 698 1622 c 0,69,70
 675 1622 675 1622 659.5 1639 c 128,-1,71
 644 1656 644 1656 643 1678 c 0,72,73
 641 1694 641 1694 648 1704 c 128,-1,74
 655 1714 655 1714 662 1721 c 2,75,-1
 751 1802 l 1,76,77
 724 1816 724 1816 695 1828 c 128,-1,78
 666 1840 666 1840 636 1851 c 0,79,80
 619 1856 619 1856 608.5 1869 c 128,-1,81
 598 1882 598 1882 598 1903 c 0,82,83
 598 1928 598 1928 611.5 1945 c 128,-1,84
 625 1962 625 1962 651 1962 c 0,85,86
 663 1962 663 1962 670 1958 c 0,87,88
 764 1926 764 1926 838 1882 c 1,89,-1
 939 1974 l 2,90,91
 946 1980 946 1980 954.5 1984 c 128,-1,92
 963 1988 963 1988 974 1988 c 0,93,94
 997 1988 997 1988 1013.5 1971 c 128,-1,95
 1030 1954 1030 1954 1030 1931 c 0,96,97
 1030 1916 1030 1916 1024 1906 c 128,-1,98
 1018 1896 1018 1896 1010 1889 c 2,99,-1
 933 1819 l 1,100,101
 1135 1659 1135 1659 1135 1432 c 0,102,103
 1135 1384 1135 1384 1118.5 1339.5 c 128,-1,104
 1102 1295 1102 1295 1073.5 1260 c 128,-1,105
 1045 1225 1045 1225 1006 1204 c 128,-1,106
 967 1183 967 1183 922 1183 c 0,50,51
917 1516 m 0,107,108
 871 1516 871 1516 842.5 1486 c 128,-1,109
 814 1456 814 1456 814 1405 c 0,110,111
 814 1384 814 1384 823.5 1364 c 128,-1,112
 833 1344 833 1344 848.5 1328.5 c 128,-1,113
 864 1313 864 1313 883 1304 c 128,-1,114
 902 1295 902 1295 922 1295 c 0,115,116
 940 1295 940 1295 958.5 1305.5 c 128,-1,117
 977 1316 977 1316 992 1334 c 128,-1,118
 1007 1352 1007 1352 1016.5 1376.5 c 128,-1,119
 1026 1401 1026 1401 1027 1429 c 1,120,121
 1022 1445 1022 1445 1010.5 1461 c 128,-1,122
 999 1477 999 1477 983.5 1489 c 128,-1,123
 968 1501 968 1501 950.5 1508.5 c 128,-1,124
 933 1516 933 1516 917 1516 c 0,107,108
EndSplineSet
EndChar

StartChar: uniE919
Encoding: 59673 59673 121
Width: 1500
Flags: W
LayerCount: 2
Fore
SplineSet
623 1599 m 256,0,1
 588 1599 588 1599 564 1623.5 c 128,-1,2
 540 1648 540 1648 540 1684 c 0,3,4
 540 1719 540 1719 564 1743.5 c 128,-1,5
 588 1768 588 1768 623 1768 c 256,6,7
 658 1768 658 1768 682 1743.5 c 128,-1,8
 706 1719 706 1719 706 1684 c 0,9,10
 706 1648 706 1648 682 1623.5 c 128,-1,11
 658 1599 658 1599 623 1599 c 256,0,1
710 1179 m 0,12,13
 658 1179 658 1179 607.5 1195.5 c 128,-1,14
 557 1212 557 1212 517 1241.5 c 128,-1,15
 477 1271 477 1271 452 1312.5 c 128,-1,16
 427 1354 427 1354 427 1404 c 0,17,18
 427 1442 427 1442 446 1472 c 128,-1,19
 465 1502 465 1502 495 1522.5 c 128,-1,20
 525 1543 525 1543 562 1554 c 128,-1,21
 599 1565 599 1565 636 1565 c 0,22,23
 675 1565 675 1565 715.5 1554 c 128,-1,24
 756 1543 756 1543 790.5 1522.5 c 128,-1,25
 825 1502 825 1502 849 1472 c 128,-1,26
 873 1442 873 1442 878 1404 c 2,27,-1
 879 1397 l 2,28,29
 880 1394 880 1394 880 1388 c 0,30,31
 880 1362 880 1362 864 1347.5 c 128,-1,32
 848 1333 848 1333 824 1333 c 0,33,34
 805 1333 805 1333 791 1342.5 c 128,-1,35
 777 1352 777 1352 771 1372 c 0,36,37
 766 1388 766 1388 753.5 1402.5 c 128,-1,38
 741 1417 741 1417 722.5 1428 c 128,-1,39
 704 1439 704 1439 682 1445.5 c 128,-1,40
 660 1452 660 1452 636 1452 c 0,41,42
 613 1452 613 1452 595 1446.5 c 128,-1,43
 577 1441 577 1441 564 1433.5 c 128,-1,44
 551 1426 551 1426 544.5 1417.5 c 128,-1,45
 538 1409 538 1409 538 1404 c 0,46,47
 538 1384 538 1384 551.5 1364 c 128,-1,48
 565 1344 565 1344 588.5 1327.5 c 128,-1,49
 612 1311 612 1311 643 1301 c 128,-1,50
 674 1291 674 1291 710 1291 c 0,51,52
 765 1291 765 1291 811 1309.5 c 128,-1,53
 857 1328 857 1328 890.5 1361 c 128,-1,54
 924 1394 924 1394 942.5 1440 c 128,-1,55
 961 1486 961 1486 961 1541 c 0,56,57
 961 1700 961 1700 898.5 1772.5 c 128,-1,58
 836 1845 836 1845 710 1845 c 0,59,60
 693 1845 693 1845 671 1838 c 128,-1,61
 649 1831 649 1831 626.5 1820 c 128,-1,62
 604 1809 604 1809 584.5 1796 c 128,-1,63
 565 1783 565 1783 555 1770 c 0,64,65
 548 1762 548 1762 538.5 1755.5 c 128,-1,66
 529 1749 529 1749 514 1749 c 0,67,68
 491 1749 491 1749 474 1766 c 128,-1,69
 457 1783 457 1783 457 1806 c 0,70,71
 457 1817 457 1817 468.5 1833 c 128,-1,72
 480 1849 480 1849 498 1865.5 c 128,-1,73
 516 1882 516 1882 537.5 1897.5 c 128,-1,74
 559 1913 559 1913 580 1923 c 0,75,76
 614 1940 614 1940 646 1948.5 c 128,-1,77
 678 1957 678 1957 710 1957 c 0,78,79
 799 1957 799 1957 867 1928.5 c 128,-1,80
 935 1900 935 1900 980.5 1846.5 c 128,-1,81
 1026 1793 1026 1793 1049 1715.5 c 128,-1,82
 1072 1638 1072 1638 1072 1541 c 0,83,84
 1072 1463 1072 1463 1044.5 1396.5 c 128,-1,85
 1017 1330 1017 1330 969 1281.5 c 128,-1,86
 921 1233 921 1233 854.5 1206 c 128,-1,87
 788 1179 788 1179 710 1179 c 0,12,13
344 262 m 0,88,89
 344 324 344 324 406 324 c 0,90,91
 467 324 467 324 467 262 c 0,92,93
 467 221 467 221 483 185 c 128,-1,94
 499 149 499 149 526.5 121.5 c 128,-1,95
 554 94 554 94 591 78 c 128,-1,96
 628 62 628 62 670 62 c 0,97,98
 711 62 711 62 747.5 78.5 c 128,-1,99
 784 95 784 95 811.5 122.5 c 128,-1,100
 839 150 839 150 855 186 c 128,-1,101
 871 222 871 222 871 262 c 2,102,-1
 871 629 l 2,103,104
 871 690 871 690 932 690 c 0,105,106
 994 690 994 690 994 629 c 2,107,-1
 994 262 l 2,108,109
 994 196 994 196 968 137 c 128,-1,110
 942 78 942 78 898 34 c 128,-1,111
 854 -10 854 -10 795 -35.5 c 128,-1,112
 736 -61 736 -61 670 -61 c 0,113,114
 603 -61 603 -61 544 -35.5 c 128,-1,115
 485 -10 485 -10 440.5 33.5 c 128,-1,116
 396 77 396 77 370 136 c 128,-1,117
 344 195 344 195 344 262 c 0,88,89
839 747 m 2,118,119
 839 686 839 686 778 686 c 0,120,121
 716 686 716 686 716 747 c 2,122,-1
 716 996 l 2,123,124
 716 1057 716 1057 778 1057 c 0,125,126
 839 1057 839 1057 839 996 c 2,127,-1
 839 747 l 2,118,119
1155 747 m 2,128,129
 1155 686 1155 686 1094 686 c 0,130,131
 1032 686 1032 686 1032 747 c 2,132,-1
 1032 996 l 2,133,134
 1032 1057 1032 1057 1094 1057 c 0,135,136
 1155 1057 1155 1057 1155 996 c 2,137,-1
 1155 747 l 2,128,129
EndSplineSet
EndChar

StartChar: uniE91A
Encoding: 59674 59674 122
Width: 1500
Flags: W
LayerCount: 2
Fore
SplineSet
1155 747 m 2,0,1
 1155 686 1155 686 1094 686 c 0,2,3
 1032 686 1032 686 1032 747 c 2,4,-1
 1032 996 l 2,5,6
 1032 1057 1032 1057 1094 1057 c 0,7,8
 1155 1057 1155 1057 1155 996 c 2,9,-1
 1155 747 l 2,0,1
839 747 m 2,10,11
 839 686 839 686 778 686 c 0,12,13
 716 686 716 686 716 747 c 2,14,-1
 716 996 l 2,15,16
 716 1057 716 1057 778 1057 c 0,17,18
 839 1057 839 1057 839 996 c 2,19,-1
 839 747 l 2,10,11
344 262 m 0,20,21
 344 324 344 324 406 324 c 0,22,23
 467 324 467 324 467 262 c 0,24,25
 467 221 467 221 483 185 c 128,-1,26
 499 149 499 149 526.5 121.5 c 128,-1,27
 554 94 554 94 591 78 c 128,-1,28
 628 62 628 62 670 62 c 0,29,30
 711 62 711 62 747.5 78.5 c 128,-1,31
 784 95 784 95 811.5 122.5 c 128,-1,32
 839 150 839 150 855 186 c 128,-1,33
 871 222 871 222 871 262 c 2,34,-1
 871 629 l 2,35,36
 871 690 871 690 932 690 c 0,37,38
 994 690 994 690 994 629 c 2,39,-1
 994 262 l 2,40,41
 994 196 994 196 968 137 c 128,-1,42
 942 78 942 78 898 34 c 128,-1,43
 854 -10 854 -10 795 -35.5 c 128,-1,44
 736 -61 736 -61 670 -61 c 0,45,46
 603 -61 603 -61 544 -35.5 c 128,-1,47
 485 -10 485 -10 440.5 33.5 c 128,-1,48
 396 77 396 77 370 136 c 128,-1,49
 344 195 344 195 344 262 c 0,20,21
1151 1728 m 0,50,51
 1128 1728 1128 1728 1114 1743 c 128,-1,52
 1100 1758 1100 1758 1100 1784 c 256,53,54
 1100 1810 1100 1810 1082 1829.5 c 128,-1,55
 1064 1849 1064 1849 1040 1849 c 0,56,57
 1028 1849 1028 1849 1017.5 1843.5 c 128,-1,58
 1007 1838 1007 1838 998.5 1829 c 128,-1,59
 990 1820 990 1820 985 1808.5 c 128,-1,60
 980 1797 980 1797 980 1784 c 2,61,-1
 980 1239 l 2,62,63
 980 1212 980 1212 966.5 1197.5 c 128,-1,64
 953 1183 953 1183 929 1183 c 256,65,66
 905 1183 905 1183 891.5 1197.5 c 128,-1,67
 878 1212 878 1212 878 1239 c 2,68,-1
 878 1784 l 2,69,70
 878 1821 878 1821 891 1853.5 c 128,-1,71
 904 1886 904 1886 926 1910 c 128,-1,72
 948 1934 948 1934 977.5 1947.5 c 128,-1,73
 1007 1961 1007 1961 1040 1961 c 256,74,75
 1073 1961 1073 1961 1103 1947 c 128,-1,76
 1133 1933 1133 1933 1155 1908.5 c 128,-1,77
 1177 1884 1177 1884 1190 1852 c 128,-1,78
 1203 1820 1203 1820 1203 1784 c 0,79,80
 1203 1758 1203 1758 1189 1743 c 128,-1,81
 1175 1728 1175 1728 1151 1728 c 0,50,51
1129 1459 m 0,82,83
 1096 1459 1096 1459 1073.5 1484 c 128,-1,84
 1051 1509 1051 1509 1051 1544 c 0,85,86
 1051 1580 1051 1580 1074 1604.5 c 128,-1,87
 1097 1629 1097 1629 1129 1629 c 0,88,89
 1160 1629 1160 1629 1183 1604.5 c 128,-1,90
 1206 1580 1206 1580 1206 1544 c 0,91,92
 1206 1527 1206 1527 1200 1511.5 c 128,-1,93
 1194 1496 1194 1496 1183.5 1484.5 c 128,-1,94
 1173 1473 1173 1473 1159 1466 c 128,-1,95
 1145 1459 1145 1459 1129 1459 c 0,82,83
EndSplineSet
EndChar

StartChar: uniE922
Encoding: 59682 59682 123
Width: 1500
Flags: W
LayerCount: 2
Fore
SplineSet
598 747 m 2,0,1
 598 686 598 686 537 686 c 0,2,3
 475 686 475 686 475 747 c 2,4,-1
 475 996 l 2,5,6
 475 1057 475 1057 537 1057 c 0,7,8
 598 1057 598 1057 598 996 c 2,9,-1
 598 747 l 2,0,1
1230 747 m 2,10,11
 1230 686 1230 686 1169 686 c 0,12,13
 1107 686 1107 686 1107 747 c 2,14,-1
 1107 996 l 2,15,16
 1107 1057 1107 1057 1169 1057 c 0,17,18
 1230 1057 1230 1057 1230 996 c 2,19,-1
 1230 747 l 2,10,11
914 747 m 2,20,21
 914 686 914 686 853 686 c 0,22,23
 791 686 791 686 791 747 c 2,24,-1
 791 996 l 2,25,26
 791 1057 791 1057 853 1057 c 0,27,28
 914 1057 914 1057 914 996 c 2,29,-1
 914 747 l 2,20,21
269 262 m 0,30,31
 269 324 269 324 331 324 c 0,32,33
 392 324 392 324 392 262 c 0,34,35
 392 221 392 221 408 185 c 128,-1,36
 424 149 424 149 451.5 121.5 c 128,-1,37
 479 94 479 94 516 78 c 128,-1,38
 553 62 553 62 595 62 c 0,39,40
 636 62 636 62 672.5 78.5 c 128,-1,41
 709 95 709 95 736.5 122.5 c 128,-1,42
 764 150 764 150 780 186.5 c 128,-1,43
 796 223 796 223 796 262 c 2,44,-1
 796 574 l 2,45,46
 796 635 796 635 857 635 c 0,47,48
 919 635 919 635 919 574 c 2,49,-1
 919 262 l 2,50,51
 919 196 919 196 893 137.5 c 128,-1,52
 867 79 867 79 823 34.5 c 128,-1,53
 779 -10 779 -10 720 -35.5 c 128,-1,54
 661 -61 661 -61 595 -61 c 0,55,56
 528 -61 528 -61 469 -35.5 c 128,-1,57
 410 -10 410 -10 365.5 33.5 c 128,-1,58
 321 77 321 77 295 136 c 128,-1,59
 269 195 269 195 269 262 c 0,30,31
750 1181 m 0,60,61
 689 1181 689 1181 689 1237 c 2,62,-1
 689 1904 l 2,63,64
 689 1930 689 1930 705.5 1944.5 c 128,-1,65
 722 1959 722 1959 750 1959 c 0,66,67
 777 1959 777 1959 793.5 1944.5 c 128,-1,68
 810 1930 810 1930 810 1904 c 2,69,-1
 810 1237 l 2,70,71
 810 1210 810 1210 794 1195.5 c 128,-1,72
 778 1181 778 1181 750 1181 c 0,60,61
EndSplineSet
EndChar

StartChar: uniE923
Encoding: 59683 59683 124
Width: 1500
Flags: W
LayerCount: 2
Fore
SplineSet
598 747 m 2,0,1
 598 686 598 686 537 686 c 0,2,3
 475 686 475 686 475 747 c 2,4,-1
 475 996 l 2,5,6
 475 1057 475 1057 537 1057 c 0,7,8
 598 1057 598 1057 598 996 c 2,9,-1
 598 747 l 2,0,1
1230 747 m 2,10,11
 1230 686 1230 686 1169 686 c 0,12,13
 1107 686 1107 686 1107 747 c 2,14,-1
 1107 996 l 2,15,16
 1107 1057 1107 1057 1169 1057 c 0,17,18
 1230 1057 1230 1057 1230 996 c 2,19,-1
 1230 747 l 2,10,11
914 747 m 2,20,21
 914 686 914 686 853 686 c 0,22,23
 791 686 791 686 791 747 c 2,24,-1
 791 996 l 2,25,26
 791 1057 791 1057 853 1057 c 0,27,28
 914 1057 914 1057 914 996 c 2,29,-1
 914 747 l 2,20,21
269 262 m 0,30,31
 269 324 269 324 331 324 c 0,32,33
 392 324 392 324 392 262 c 0,34,35
 392 221 392 221 408 185 c 128,-1,36
 424 149 424 149 451.5 121.5 c 128,-1,37
 479 94 479 94 516 78 c 128,-1,38
 553 62 553 62 595 62 c 0,39,40
 636 62 636 62 672.5 78.5 c 128,-1,41
 709 95 709 95 736.5 122.5 c 128,-1,42
 764 150 764 150 780 186.5 c 128,-1,43
 796 223 796 223 796 262 c 2,44,-1
 796 574 l 2,45,46
 796 635 796 635 857 635 c 0,47,48
 919 635 919 635 919 574 c 2,49,-1
 919 262 l 2,50,51
 919 196 919 196 893 137.5 c 128,-1,52
 867 79 867 79 823 34.5 c 128,-1,53
 779 -10 779 -10 720 -35.5 c 128,-1,54
 661 -61 661 -61 595 -61 c 0,55,56
 528 -61 528 -61 469 -35.5 c 128,-1,57
 410 -10 410 -10 365.5 33.5 c 128,-1,58
 321 77 321 77 295 136 c 128,-1,59
 269 195 269 195 269 262 c 0,30,31
634 1289 m 1,60,-1
 1147 1289 l 2,61,62
 1174 1289 1174 1289 1189.5 1275 c 128,-1,63
 1205 1261 1205 1261 1205 1236 c 256,64,65
 1205 1211 1205 1211 1189 1197 c 128,-1,66
 1173 1183 1173 1183 1147 1183 c 2,67,-1
 356 1183 l 1,68,-1
 346 1183 l 2,69,70
 332 1183 332 1183 322 1188.5 c 128,-1,71
 312 1194 312 1194 305.5 1202 c 128,-1,72
 299 1210 299 1210 296 1219.5 c 128,-1,73
 293 1229 293 1229 293 1238 c 0,74,75
 293 1257 293 1257 304.5 1268.5 c 128,-1,76
 316 1280 316 1280 333 1287 c 2,77,-1
 1127 1595 l 2,78,79
 1132 1597 1132 1597 1138.5 1598 c 128,-1,80
 1145 1599 1145 1599 1152 1599 c 0,81,82
 1175 1599 1175 1599 1191 1582 c 128,-1,83
 1207 1565 1207 1565 1207 1543 c 0,84,85
 1207 1525 1207 1525 1195.5 1513.5 c 128,-1,86
 1184 1502 1184 1502 1170 1497 c 2,87,-1
 634 1289 l 1,60,-1
EndSplineSet
EndChar

StartChar: uniE924
Encoding: 59684 59684 125
Width: 1500
Flags: W
LayerCount: 2
Fore
SplineSet
598 747 m 2,0,1
 598 686 598 686 537 686 c 0,2,3
 475 686 475 686 475 747 c 2,4,-1
 475 996 l 2,5,6
 475 1057 475 1057 537 1057 c 0,7,8
 598 1057 598 1057 598 996 c 2,9,-1
 598 747 l 2,0,1
1230 747 m 2,10,11
 1230 686 1230 686 1169 686 c 0,12,13
 1107 686 1107 686 1107 747 c 2,14,-1
 1107 996 l 2,15,16
 1107 1057 1107 1057 1169 1057 c 0,17,18
 1230 1057 1230 1057 1230 996 c 2,19,-1
 1230 747 l 2,10,11
914 747 m 2,20,21
 914 686 914 686 853 686 c 0,22,23
 791 686 791 686 791 747 c 2,24,-1
 791 996 l 2,25,26
 791 1057 791 1057 853 1057 c 0,27,28
 914 1057 914 1057 914 996 c 2,29,-1
 914 747 l 2,20,21
269 262 m 0,30,31
 269 324 269 324 331 324 c 0,32,33
 392 324 392 324 392 262 c 0,34,35
 392 221 392 221 408 185 c 128,-1,36
 424 149 424 149 451.5 121.5 c 128,-1,37
 479 94 479 94 516 78 c 128,-1,38
 553 62 553 62 595 62 c 0,39,40
 636 62 636 62 672.5 78.5 c 128,-1,41
 709 95 709 95 736.5 122.5 c 128,-1,42
 764 150 764 150 780 186.5 c 128,-1,43
 796 223 796 223 796 262 c 2,44,-1
 796 574 l 2,45,46
 796 635 796 635 857 635 c 0,47,48
 919 635 919 635 919 574 c 2,49,-1
 919 262 l 2,50,51
 919 196 919 196 893 137.5 c 128,-1,52
 867 79 867 79 823 34.5 c 128,-1,53
 779 -10 779 -10 720 -35.5 c 128,-1,54
 661 -61 661 -61 595 -61 c 0,55,56
 528 -61 528 -61 469 -35.5 c 128,-1,57
 410 -10 410 -10 365.5 33.5 c 128,-1,58
 321 77 321 77 295 136 c 128,-1,59
 269 195 269 195 269 262 c 0,30,31
893 1360 m 0,60,61
 805 1360 805 1360 750 1420 c 1,62,63
 693 1360 693 1360 606 1360 c 0,64,65
 562 1360 562 1360 520 1380 c 1,66,-1
 520 1238 l 2,67,68
 520 1212 520 1212 504.5 1198 c 128,-1,69
 489 1184 489 1184 464 1184 c 0,70,71
 438 1184 438 1184 423 1198 c 128,-1,72
 408 1212 408 1212 408 1238 c 2,73,-1
 408 1742 l 2,74,75
 408 1768 408 1768 423 1783 c 128,-1,76
 438 1798 438 1798 464 1798 c 256,77,78
 490 1798 490 1798 504 1782.5 c 128,-1,79
 518 1767 518 1767 519 1742 c 2,80,-1
 520 1546 l 2,81,82
 520 1531 520 1531 527 1517.5 c 128,-1,83
 534 1504 534 1504 546 1493.5 c 128,-1,84
 558 1483 558 1483 573.5 1477 c 128,-1,85
 589 1471 589 1471 606 1471 c 0,86,87
 642 1471 642 1471 667.5 1496.5 c 128,-1,88
 693 1522 693 1522 693 1558 c 2,89,-1
 693 1742 l 2,90,91
 693 1768 693 1768 708.5 1783 c 128,-1,92
 724 1798 724 1798 750 1798 c 256,93,94
 776 1798 776 1798 791 1783 c 128,-1,95
 806 1768 806 1768 806 1742 c 2,96,-1
 806 1558 l 2,97,98
 806 1521 806 1521 831 1496 c 128,-1,99
 856 1471 856 1471 893 1471 c 0,100,101
 910 1471 910 1471 925.5 1478 c 128,-1,102
 941 1485 941 1485 953 1497 c 128,-1,103
 965 1509 965 1509 972 1524.5 c 128,-1,104
 979 1540 979 1540 979 1558 c 2,105,-1
 979 1742 l 2,106,107
 979 1768 979 1768 994 1783 c 128,-1,108
 1009 1798 1009 1798 1035 1798 c 256,109,110
 1061 1798 1061 1798 1076.5 1783 c 128,-1,111
 1092 1768 1092 1768 1092 1742 c 2,112,-1
 1092 1558 l 2,113,114
 1092 1517 1092 1517 1076 1481 c 128,-1,115
 1060 1445 1060 1445 1032.5 1418 c 128,-1,116
 1005 1391 1005 1391 969 1375.5 c 128,-1,117
 933 1360 933 1360 893 1360 c 0,60,61
EndSplineSet
EndChar

StartChar: uniE925
Encoding: 59685 59685 126
Width: 1500
Flags: W
LayerCount: 2
Fore
SplineSet
598 747 m 2,0,1
 598 686 598 686 537 686 c 0,2,3
 475 686 475 686 475 747 c 2,4,-1
 475 996 l 2,5,6
 475 1057 475 1057 537 1057 c 0,7,8
 598 1057 598 1057 598 996 c 2,9,-1
 598 747 l 2,0,1
1230 747 m 2,10,11
 1230 686 1230 686 1169 686 c 0,12,13
 1107 686 1107 686 1107 747 c 2,14,-1
 1107 996 l 2,15,16
 1107 1057 1107 1057 1169 1057 c 0,17,18
 1230 1057 1230 1057 1230 996 c 2,19,-1
 1230 747 l 2,10,11
914 747 m 2,20,21
 914 686 914 686 853 686 c 0,22,23
 791 686 791 686 791 747 c 2,24,-1
 791 996 l 2,25,26
 791 1057 791 1057 853 1057 c 0,27,28
 914 1057 914 1057 914 996 c 2,29,-1
 914 747 l 2,20,21
269 262 m 0,30,31
 269 324 269 324 331 324 c 0,32,33
 392 324 392 324 392 262 c 0,34,35
 392 221 392 221 408 185 c 128,-1,36
 424 149 424 149 451.5 121.5 c 128,-1,37
 479 94 479 94 516 78 c 128,-1,38
 553 62 553 62 595 62 c 0,39,40
 636 62 636 62 672.5 78.5 c 128,-1,41
 709 95 709 95 736.5 122.5 c 128,-1,42
 764 150 764 150 780 186.5 c 128,-1,43
 796 223 796 223 796 262 c 2,44,-1
 796 574 l 2,45,46
 796 635 796 635 857 635 c 0,47,48
 919 635 919 635 919 574 c 2,49,-1
 919 262 l 2,50,51
 919 196 919 196 893 137.5 c 128,-1,52
 867 79 867 79 823 34.5 c 128,-1,53
 779 -10 779 -10 720 -35.5 c 128,-1,54
 661 -61 661 -61 595 -61 c 0,55,56
 528 -61 528 -61 469 -35.5 c 128,-1,57
 410 -10 410 -10 365.5 33.5 c 128,-1,58
 321 77 321 77 295 136 c 128,-1,59
 269 195 269 195 269 262 c 0,30,31
778 1627 m 0,60,61
 742 1627 742 1627 716.5 1650.5 c 128,-1,62
 691 1674 691 1674 691 1710 c 0,63,64
 691 1745 691 1745 717 1768.5 c 128,-1,65
 743 1792 743 1792 778 1792 c 0,66,67
 814 1792 814 1792 838.5 1768.5 c 128,-1,68
 863 1745 863 1745 863 1710 c 256,69,70
 863 1675 863 1675 839.5 1651 c 128,-1,71
 816 1627 816 1627 778 1627 c 0,60,61
372 1180 m 2,72,73
 366 1178 366 1178 360.5 1176.5 c 128,-1,74
 355 1175 355 1175 347 1175 c 0,75,76
 324 1175 324 1175 308.5 1193 c 128,-1,77
 293 1211 293 1211 293 1234 c 0,78,79
 293 1253 293 1253 303.5 1264.5 c 128,-1,80
 314 1276 314 1276 329 1282 c 2,81,-1
 866 1499 l 1,82,-1
 352 1499 l 2,83,84
 317 1499 317 1499 305 1520 c 128,-1,85
 293 1541 293 1541 293 1565 c 2,86,-1
 293 1738 l 2,87,88
 293 1764 293 1764 309 1778 c 128,-1,89
 325 1792 325 1792 351 1792 c 256,90,91
 377 1792 377 1792 392.5 1778 c 128,-1,92
 408 1764 408 1764 408 1738 c 2,93,-1
 408 1609 l 1,94,-1
 1146 1609 l 1,95,-1
 1153 1609 l 2,96,97
 1181 1609 1181 1609 1194 1589.5 c 128,-1,98
 1207 1570 1207 1570 1207 1552 c 0,99,100
 1207 1532 1207 1532 1195.5 1519 c 128,-1,101
 1184 1506 1184 1506 1167 1501 c 2,102,-1
 372 1180 l 2,72,73
EndSplineSet
EndChar

StartChar: uniE926
Encoding: 59686 59686 127
Width: 1500
Flags: W
LayerCount: 2
Fore
SplineSet
598 747 m 2,0,1
 598 686 598 686 537 686 c 0,2,3
 475 686 475 686 475 747 c 2,4,-1
 475 996 l 2,5,6
 475 1057 475 1057 537 1057 c 0,7,8
 598 1057 598 1057 598 996 c 2,9,-1
 598 747 l 2,0,1
1230 747 m 2,10,11
 1230 686 1230 686 1169 686 c 0,12,13
 1107 686 1107 686 1107 747 c 2,14,-1
 1107 996 l 2,15,16
 1107 1057 1107 1057 1169 1057 c 0,17,18
 1230 1057 1230 1057 1230 996 c 2,19,-1
 1230 747 l 2,10,11
914 747 m 2,20,21
 914 686 914 686 853 686 c 0,22,23
 791 686 791 686 791 747 c 2,24,-1
 791 996 l 2,25,26
 791 1057 791 1057 853 1057 c 0,27,28
 914 1057 914 1057 914 996 c 2,29,-1
 914 747 l 2,20,21
269 262 m 0,30,31
 269 324 269 324 331 324 c 0,32,33
 392 324 392 324 392 262 c 0,34,35
 392 221 392 221 408 185 c 128,-1,36
 424 149 424 149 451.5 121.5 c 128,-1,37
 479 94 479 94 516 78 c 128,-1,38
 553 62 553 62 595 62 c 0,39,40
 636 62 636 62 672.5 78.5 c 128,-1,41
 709 95 709 95 736.5 122.5 c 128,-1,42
 764 150 764 150 780 186.5 c 128,-1,43
 796 223 796 223 796 262 c 2,44,-1
 796 574 l 2,45,46
 796 635 796 635 857 635 c 0,47,48
 919 635 919 635 919 574 c 2,49,-1
 919 262 l 2,50,51
 919 196 919 196 893 137.5 c 128,-1,52
 867 79 867 79 823 34.5 c 128,-1,53
 779 -10 779 -10 720 -35.5 c 128,-1,54
 661 -61 661 -61 595 -61 c 0,55,56
 528 -61 528 -61 469 -35.5 c 128,-1,57
 410 -10 410 -10 365.5 33.5 c 128,-1,58
 321 77 321 77 295 136 c 128,-1,59
 269 195 269 195 269 262 c 0,30,31
853 1178 m 256,60,61
 810 1178 810 1178 773 1195 c 128,-1,62
 736 1212 736 1212 708.5 1241 c 128,-1,63
 681 1270 681 1270 665 1309.5 c 128,-1,64
 649 1349 649 1349 649 1394 c 0,65,66
 649 1490 649 1490 715 1555 c 1,67,68
 681 1587 681 1587 665 1628 c 128,-1,69
 649 1669 649 1669 649 1717 c 0,70,71
 649 1762 649 1762 665 1801.5 c 128,-1,72
 681 1841 681 1841 708.5 1870.5 c 128,-1,73
 736 1900 736 1900 773.5 1917 c 128,-1,74
 811 1934 811 1934 853 1934 c 256,75,76
 895 1934 895 1934 932.5 1916.5 c 128,-1,77
 970 1899 970 1899 998 1869.5 c 128,-1,78
 1026 1840 1026 1840 1042 1800.5 c 128,-1,79
 1058 1761 1058 1761 1058 1717 c 0,80,81
 1058 1620 1058 1620 991 1555 c 1,82,83
 1058 1491 1058 1491 1058 1394 c 0,84,85
 1058 1349 1058 1349 1042 1310 c 128,-1,86
 1026 1271 1026 1271 998 1241.5 c 128,-1,87
 970 1212 970 1212 933 1195 c 128,-1,88
 896 1178 896 1178 853 1178 c 256,60,61
855 1821 m 0,89,90
 835 1821 835 1821 817.5 1812.5 c 128,-1,91
 800 1804 800 1804 786.5 1790 c 128,-1,92
 773 1776 773 1776 765 1757 c 128,-1,93
 757 1738 757 1738 757 1717 c 256,94,95
 757 1696 757 1696 764 1676.5 c 128,-1,96
 771 1657 771 1657 783 1643 c 128,-1,97
 795 1629 795 1629 811.5 1620.5 c 128,-1,98
 828 1612 828 1612 846 1612 c 2,99,-1
 853 1612 l 1,100,-1
 863 1612 l 2,101,102
 881 1612 881 1612 897.5 1620.5 c 128,-1,103
 914 1629 914 1629 926.5 1643 c 128,-1,104
 939 1657 939 1657 946.5 1676.5 c 128,-1,105
 954 1696 954 1696 954 1717 c 256,106,107
 954 1738 954 1738 946.5 1757 c 128,-1,108
 939 1776 939 1776 925.5 1790 c 128,-1,109
 912 1804 912 1804 894 1812.5 c 128,-1,110
 876 1821 876 1821 855 1821 c 0,89,90
853 1499 m 1,111,-1
 846 1499 l 2,112,113
 828 1499 828 1499 811.5 1490.5 c 128,-1,114
 795 1482 795 1482 783 1468 c 128,-1,115
 771 1454 771 1454 764 1434.5 c 128,-1,116
 757 1415 757 1415 757 1394 c 256,117,118
 757 1373 757 1373 765 1354 c 128,-1,119
 773 1335 773 1335 786.5 1321 c 128,-1,120
 800 1307 800 1307 817.5 1298.5 c 128,-1,121
 835 1290 835 1290 855 1290 c 256,122,123
 875 1290 875 1290 893 1298.5 c 128,-1,124
 911 1307 911 1307 924.5 1321 c 128,-1,125
 938 1335 938 1335 946 1354 c 128,-1,126
 954 1373 954 1373 954 1394 c 256,127,128
 954 1415 954 1415 946.5 1434.5 c 128,-1,129
 939 1454 939 1454 926.5 1468 c 128,-1,130
 914 1482 914 1482 897.5 1490.5 c 128,-1,131
 881 1499 881 1499 863 1499 c 2,132,-1
 853 1499 l 1,111,-1
EndSplineSet
EndChar

StartChar: uniE927
Encoding: 59687 59687 128
Width: 1500
Flags: W
LayerCount: 2
Fore
SplineSet
598 747 m 2,0,1
 598 686 598 686 537 686 c 0,2,3
 475 686 475 686 475 747 c 2,4,-1
 475 996 l 2,5,6
 475 1057 475 1057 537 1057 c 0,7,8
 598 1057 598 1057 598 996 c 2,9,-1
 598 747 l 2,0,1
1230 747 m 2,10,11
 1230 686 1230 686 1169 686 c 0,12,13
 1107 686 1107 686 1107 747 c 2,14,-1
 1107 996 l 2,15,16
 1107 1057 1107 1057 1169 1057 c 0,17,18
 1230 1057 1230 1057 1230 996 c 2,19,-1
 1230 747 l 2,10,11
914 747 m 2,20,21
 914 686 914 686 853 686 c 0,22,23
 791 686 791 686 791 747 c 2,24,-1
 791 996 l 2,25,26
 791 1057 791 1057 853 1057 c 0,27,28
 914 1057 914 1057 914 996 c 2,29,-1
 914 747 l 2,20,21
269 262 m 0,30,31
 269 324 269 324 331 324 c 0,32,33
 392 324 392 324 392 262 c 0,34,35
 392 221 392 221 408 185 c 128,-1,36
 424 149 424 149 451.5 121.5 c 128,-1,37
 479 94 479 94 516 78 c 128,-1,38
 553 62 553 62 595 62 c 0,39,40
 636 62 636 62 672.5 78.5 c 128,-1,41
 709 95 709 95 736.5 122.5 c 128,-1,42
 764 150 764 150 780 186.5 c 128,-1,43
 796 223 796 223 796 262 c 2,44,-1
 796 574 l 2,45,46
 796 635 796 635 857 635 c 0,47,48
 919 635 919 635 919 574 c 2,49,-1
 919 262 l 2,50,51
 919 196 919 196 893 137.5 c 128,-1,52
 867 79 867 79 823 34.5 c 128,-1,53
 779 -10 779 -10 720 -35.5 c 128,-1,54
 661 -61 661 -61 595 -61 c 0,55,56
 528 -61 528 -61 469 -35.5 c 128,-1,57
 410 -10 410 -10 365.5 33.5 c 128,-1,58
 321 77 321 77 295 136 c 128,-1,59
 269 195 269 195 269 262 c 0,30,31
848 1183 m 0,60,61
 805 1183 805 1183 766 1200.5 c 128,-1,62
 727 1218 727 1218 697 1248.5 c 128,-1,63
 667 1279 667 1279 649 1319 c 128,-1,64
 631 1359 631 1359 631 1404 c 0,65,66
 631 1450 631 1450 646.5 1491 c 128,-1,67
 662 1532 662 1532 690.5 1562.5 c 128,-1,68
 719 1593 719 1593 757.5 1610.5 c 128,-1,69
 796 1628 796 1628 843 1628 c 0,70,71
 868 1628 868 1628 892 1622 c 1,72,73
 843 1694 843 1694 758 1752.5 c 128,-1,74
 673 1811 673 1811 562 1849 c 0,75,76
 524 1860 524 1860 524 1901 c 0,77,78
 524 1926 524 1926 537.5 1942.5 c 128,-1,79
 551 1959 551 1959 577 1959 c 0,80,81
 590 1959 590 1959 596 1956 c 0,82,83
 701 1920 701 1920 787 1866.5 c 128,-1,84
 873 1813 873 1813 934 1746 c 128,-1,85
 995 1679 995 1679 1028 1599 c 128,-1,86
 1061 1519 1061 1519 1061 1431 c 0,87,88
 1061 1384 1061 1384 1044.5 1339.5 c 128,-1,89
 1028 1295 1028 1295 999.5 1260 c 128,-1,90
 971 1225 971 1225 932 1204 c 128,-1,91
 893 1183 893 1183 848 1183 c 0,60,61
843 1515 m 0,92,93
 797 1515 797 1515 768.5 1485 c 128,-1,94
 740 1455 740 1455 740 1404 c 0,95,96
 740 1383 740 1383 749.5 1363 c 128,-1,97
 759 1343 759 1343 774.5 1328 c 128,-1,98
 790 1313 790 1313 809 1304 c 128,-1,99
 828 1295 828 1295 848 1295 c 0,100,101
 866 1295 866 1295 884.5 1305.5 c 128,-1,102
 903 1316 903 1316 918 1334 c 128,-1,103
 933 1352 933 1352 942.5 1376.5 c 128,-1,104
 952 1401 952 1401 953 1428 c 1,105,106
 948 1444 948 1444 936.5 1460 c 128,-1,107
 925 1476 925 1476 909.5 1488 c 128,-1,108
 894 1500 894 1500 876.5 1507.5 c 128,-1,109
 859 1515 859 1515 843 1515 c 0,92,93
EndSplineSet
EndChar

StartChar: uniE928
Encoding: 59688 59688 129
Width: 1500
Flags: W
LayerCount: 2
Fore
SplineSet
598 747 m 2,0,1
 598 686 598 686 537 686 c 0,2,3
 475 686 475 686 475 747 c 2,4,-1
 475 996 l 2,5,6
 475 1057 475 1057 537 1057 c 0,7,8
 598 1057 598 1057 598 996 c 2,9,-1
 598 747 l 2,0,1
1230 747 m 2,10,11
 1230 686 1230 686 1169 686 c 0,12,13
 1107 686 1107 686 1107 747 c 2,14,-1
 1107 996 l 2,15,16
 1107 1057 1107 1057 1169 1057 c 0,17,18
 1230 1057 1230 1057 1230 996 c 2,19,-1
 1230 747 l 2,10,11
914 747 m 2,20,21
 914 686 914 686 853 686 c 0,22,23
 791 686 791 686 791 747 c 2,24,-1
 791 996 l 2,25,26
 791 1057 791 1057 853 1057 c 0,27,28
 914 1057 914 1057 914 996 c 2,29,-1
 914 747 l 2,20,21
269 262 m 0,30,31
 269 324 269 324 331 324 c 0,32,33
 392 324 392 324 392 262 c 0,34,35
 392 221 392 221 408 185 c 128,-1,36
 424 149 424 149 451.5 121.5 c 128,-1,37
 479 94 479 94 516 78 c 128,-1,38
 553 62 553 62 595 62 c 0,39,40
 636 62 636 62 672.5 78.5 c 128,-1,41
 709 95 709 95 736.5 122.5 c 128,-1,42
 764 150 764 150 780 186.5 c 128,-1,43
 796 223 796 223 796 262 c 2,44,-1
 796 574 l 2,45,46
 796 635 796 635 857 635 c 0,47,48
 919 635 919 635 919 574 c 2,49,-1
 919 262 l 2,50,51
 919 196 919 196 893 137.5 c 128,-1,52
 867 79 867 79 823 34.5 c 128,-1,53
 779 -10 779 -10 720 -35.5 c 128,-1,54
 661 -61 661 -61 595 -61 c 0,55,56
 528 -61 528 -61 469 -35.5 c 128,-1,57
 410 -10 410 -10 365.5 33.5 c 128,-1,58
 321 77 321 77 295 136 c 128,-1,59
 269 195 269 195 269 262 c 0,30,31
856 1183 m 0,60,61
 813 1183 813 1183 774 1201 c 128,-1,62
 735 1219 735 1219 705 1249 c 128,-1,63
 675 1279 675 1279 657 1319.5 c 128,-1,64
 639 1360 639 1360 639 1405 c 0,65,66
 639 1451 639 1451 654.5 1492 c 128,-1,67
 670 1533 670 1533 698.5 1563.5 c 128,-1,68
 727 1594 727 1594 765.5 1611.5 c 128,-1,69
 804 1629 804 1629 851 1629 c 0,70,71
 877 1629 877 1629 901 1623 c 1,72,73
 880 1655 880 1655 852 1684.5 c 128,-1,74
 824 1714 824 1714 786 1740 c 1,75,-1
 668 1636 l 2,76,77
 660 1630 660 1630 651.5 1626 c 128,-1,78
 643 1622 643 1622 632 1622 c 0,79,80
 609 1622 609 1622 593.5 1639 c 128,-1,81
 578 1656 578 1656 577 1678 c 0,82,83
 575 1694 575 1694 582 1704 c 128,-1,84
 589 1714 589 1714 596 1721 c 2,85,-1
 685 1802 l 1,86,87
 658 1816 658 1816 629 1828 c 128,-1,88
 600 1840 600 1840 570 1851 c 0,89,90
 553 1856 553 1856 542.5 1869 c 128,-1,91
 532 1882 532 1882 532 1903 c 0,92,93
 532 1928 532 1928 545.5 1945 c 128,-1,94
 559 1962 559 1962 585 1962 c 0,95,96
 597 1962 597 1962 604 1958 c 0,97,98
 698 1926 698 1926 772 1882 c 1,99,-1
 873 1974 l 2,100,101
 880 1980 880 1980 888.5 1984 c 128,-1,102
 897 1988 897 1988 908 1988 c 0,103,104
 931 1988 931 1988 947.5 1971 c 128,-1,105
 964 1954 964 1954 964 1931 c 0,106,107
 964 1916 964 1916 958 1906 c 128,-1,108
 952 1896 952 1896 944 1889 c 2,109,-1
 867 1819 l 1,110,111
 1069 1659 1069 1659 1069 1432 c 0,112,113
 1069 1384 1069 1384 1052.5 1339.5 c 128,-1,114
 1036 1295 1036 1295 1007.5 1260 c 128,-1,115
 979 1225 979 1225 940 1204 c 128,-1,116
 901 1183 901 1183 856 1183 c 0,60,61
851 1516 m 0,117,118
 805 1516 805 1516 776.5 1486 c 128,-1,119
 748 1456 748 1456 748 1405 c 0,120,121
 748 1384 748 1384 757.5 1364 c 128,-1,122
 767 1344 767 1344 782.5 1328.5 c 128,-1,123
 798 1313 798 1313 817 1304 c 128,-1,124
 836 1295 836 1295 856 1295 c 0,125,126
 874 1295 874 1295 892.5 1305.5 c 128,-1,127
 911 1316 911 1316 926 1334 c 128,-1,128
 941 1352 941 1352 950.5 1376.5 c 128,-1,129
 960 1401 960 1401 961 1429 c 1,130,131
 956 1445 956 1445 944.5 1461 c 128,-1,132
 933 1477 933 1477 917.5 1489 c 128,-1,133
 902 1501 902 1501 884.5 1508.5 c 128,-1,134
 867 1516 867 1516 851 1516 c 0,117,118
EndSplineSet
EndChar

StartChar: uniE929
Encoding: 59689 59689 130
Width: 1500
Flags: W
LayerCount: 2
Fore
SplineSet
623 1599 m 256,0,1
 588 1599 588 1599 564 1623.5 c 128,-1,2
 540 1648 540 1648 540 1684 c 0,3,4
 540 1719 540 1719 564 1743.5 c 128,-1,5
 588 1768 588 1768 623 1768 c 256,6,7
 658 1768 658 1768 682 1743.5 c 128,-1,8
 706 1719 706 1719 706 1684 c 0,9,10
 706 1648 706 1648 682 1623.5 c 128,-1,11
 658 1599 658 1599 623 1599 c 256,0,1
710 1179 m 0,12,13
 658 1179 658 1179 607.5 1195.5 c 128,-1,14
 557 1212 557 1212 517 1241.5 c 128,-1,15
 477 1271 477 1271 452 1312.5 c 128,-1,16
 427 1354 427 1354 427 1404 c 0,17,18
 427 1442 427 1442 446 1472 c 128,-1,19
 465 1502 465 1502 495 1522.5 c 128,-1,20
 525 1543 525 1543 562 1554 c 128,-1,21
 599 1565 599 1565 636 1565 c 0,22,23
 675 1565 675 1565 715.5 1554 c 128,-1,24
 756 1543 756 1543 790.5 1522.5 c 128,-1,25
 825 1502 825 1502 849 1472 c 128,-1,26
 873 1442 873 1442 878 1404 c 2,27,-1
 879 1397 l 2,28,29
 880 1394 880 1394 880 1388 c 0,30,31
 880 1362 880 1362 864 1347.5 c 128,-1,32
 848 1333 848 1333 824 1333 c 0,33,34
 805 1333 805 1333 791 1342.5 c 128,-1,35
 777 1352 777 1352 771 1372 c 0,36,37
 766 1388 766 1388 753.5 1402.5 c 128,-1,38
 741 1417 741 1417 722.5 1428 c 128,-1,39
 704 1439 704 1439 682 1445.5 c 128,-1,40
 660 1452 660 1452 636 1452 c 0,41,42
 613 1452 613 1452 595 1446.5 c 128,-1,43
 577 1441 577 1441 564 1433.5 c 128,-1,44
 551 1426 551 1426 544.5 1417.5 c 128,-1,45
 538 1409 538 1409 538 1404 c 0,46,47
 538 1384 538 1384 551.5 1364 c 128,-1,48
 565 1344 565 1344 588.5 1327.5 c 128,-1,49
 612 1311 612 1311 643 1301 c 128,-1,50
 674 1291 674 1291 710 1291 c 0,51,52
 765 1291 765 1291 811 1309.5 c 128,-1,53
 857 1328 857 1328 890.5 1361 c 128,-1,54
 924 1394 924 1394 942.5 1440 c 128,-1,55
 961 1486 961 1486 961 1541 c 0,56,57
 961 1700 961 1700 898.5 1772.5 c 128,-1,58
 836 1845 836 1845 710 1845 c 0,59,60
 693 1845 693 1845 671 1838 c 128,-1,61
 649 1831 649 1831 626.5 1820 c 128,-1,62
 604 1809 604 1809 584.5 1796 c 128,-1,63
 565 1783 565 1783 555 1770 c 0,64,65
 548 1762 548 1762 538.5 1755.5 c 128,-1,66
 529 1749 529 1749 514 1749 c 0,67,68
 491 1749 491 1749 474 1766 c 128,-1,69
 457 1783 457 1783 457 1806 c 0,70,71
 457 1817 457 1817 468.5 1833 c 128,-1,72
 480 1849 480 1849 498 1865.5 c 128,-1,73
 516 1882 516 1882 537.5 1897.5 c 128,-1,74
 559 1913 559 1913 580 1923 c 0,75,76
 614 1940 614 1940 646 1948.5 c 128,-1,77
 678 1957 678 1957 710 1957 c 0,78,79
 799 1957 799 1957 867 1928.5 c 128,-1,80
 935 1900 935 1900 980.5 1846.5 c 128,-1,81
 1026 1793 1026 1793 1049 1715.5 c 128,-1,82
 1072 1638 1072 1638 1072 1541 c 0,83,84
 1072 1463 1072 1463 1044.5 1396.5 c 128,-1,85
 1017 1330 1017 1330 969 1281.5 c 128,-1,86
 921 1233 921 1233 854.5 1206 c 128,-1,87
 788 1179 788 1179 710 1179 c 0,12,13
269 262 m 0,88,89
 269 324 269 324 331 324 c 0,90,91
 392 324 392 324 392 262 c 0,92,93
 392 221 392 221 408 185 c 128,-1,94
 424 149 424 149 451.5 121.5 c 128,-1,95
 479 94 479 94 516 78 c 128,-1,96
 553 62 553 62 595 62 c 0,97,98
 636 62 636 62 672.5 78.5 c 128,-1,99
 709 95 709 95 736.5 122.5 c 128,-1,100
 764 150 764 150 780 186.5 c 128,-1,101
 796 223 796 223 796 262 c 2,102,-1
 796 574 l 2,103,104
 796 635 796 635 857 635 c 0,105,106
 919 635 919 635 919 574 c 2,107,-1
 919 262 l 2,108,109
 919 196 919 196 893 137.5 c 128,-1,110
 867 79 867 79 823 34.5 c 128,-1,111
 779 -10 779 -10 720 -35.5 c 128,-1,112
 661 -61 661 -61 595 -61 c 0,113,114
 528 -61 528 -61 469 -35.5 c 128,-1,115
 410 -10 410 -10 365.5 33.5 c 128,-1,116
 321 77 321 77 295 136 c 128,-1,117
 269 195 269 195 269 262 c 0,88,89
914 747 m 2,118,119
 914 686 914 686 853 686 c 0,120,121
 791 686 791 686 791 747 c 2,122,-1
 791 996 l 2,123,124
 791 1057 791 1057 853 1057 c 0,125,126
 914 1057 914 1057 914 996 c 2,127,-1
 914 747 l 2,118,119
1230 747 m 2,128,129
 1230 686 1230 686 1169 686 c 0,130,131
 1107 686 1107 686 1107 747 c 2,132,-1
 1107 996 l 2,133,134
 1107 1057 1107 1057 1169 1057 c 0,135,136
 1230 1057 1230 1057 1230 996 c 2,137,-1
 1230 747 l 2,128,129
598 747 m 2,138,139
 598 686 598 686 537 686 c 0,140,141
 475 686 475 686 475 747 c 2,142,-1
 475 996 l 2,143,144
 475 1057 475 1057 537 1057 c 0,145,146
 598 1057 598 1057 598 996 c 2,147,-1
 598 747 l 2,138,139
EndSplineSet
EndChar

StartChar: uniE92A
Encoding: 59690 59690 131
Width: 1500
Flags: W
LayerCount: 2
Fore
SplineSet
598 747 m 2,0,1
 598 686 598 686 537 686 c 0,2,3
 475 686 475 686 475 747 c 2,4,-1
 475 996 l 2,5,6
 475 1057 475 1057 537 1057 c 0,7,8
 598 1057 598 1057 598 996 c 2,9,-1
 598 747 l 2,0,1
1230 747 m 2,10,11
 1230 686 1230 686 1169 686 c 0,12,13
 1107 686 1107 686 1107 747 c 2,14,-1
 1107 996 l 2,15,16
 1107 1057 1107 1057 1169 1057 c 0,17,18
 1230 1057 1230 1057 1230 996 c 2,19,-1
 1230 747 l 2,10,11
914 747 m 2,20,21
 914 686 914 686 853 686 c 0,22,23
 791 686 791 686 791 747 c 2,24,-1
 791 996 l 2,25,26
 791 1057 791 1057 853 1057 c 0,27,28
 914 1057 914 1057 914 996 c 2,29,-1
 914 747 l 2,20,21
269 262 m 0,30,31
 269 324 269 324 331 324 c 0,32,33
 392 324 392 324 392 262 c 0,34,35
 392 221 392 221 408 185 c 128,-1,36
 424 149 424 149 451.5 121.5 c 128,-1,37
 479 94 479 94 516 78 c 128,-1,38
 553 62 553 62 595 62 c 0,39,40
 636 62 636 62 672.5 78.5 c 128,-1,41
 709 95 709 95 736.5 122.5 c 128,-1,42
 764 150 764 150 780 186.5 c 128,-1,43
 796 223 796 223 796 262 c 2,44,-1
 796 574 l 2,45,46
 796 635 796 635 857 635 c 0,47,48
 919 635 919 635 919 574 c 2,49,-1
 919 262 l 2,50,51
 919 196 919 196 893 137.5 c 128,-1,52
 867 79 867 79 823 34.5 c 128,-1,53
 779 -10 779 -10 720 -35.5 c 128,-1,54
 661 -61 661 -61 595 -61 c 0,55,56
 528 -61 528 -61 469 -35.5 c 128,-1,57
 410 -10 410 -10 365.5 33.5 c 128,-1,58
 321 77 321 77 295 136 c 128,-1,59
 269 195 269 195 269 262 c 0,30,31
1076 1728 m 0,60,61
 1053 1728 1053 1728 1039 1743 c 128,-1,62
 1025 1758 1025 1758 1025 1784 c 256,63,64
 1025 1810 1025 1810 1007 1829.5 c 128,-1,65
 989 1849 989 1849 965 1849 c 0,66,67
 953 1849 953 1849 942.5 1843.5 c 128,-1,68
 932 1838 932 1838 923.5 1829 c 128,-1,69
 915 1820 915 1820 910 1808.5 c 128,-1,70
 905 1797 905 1797 905 1784 c 2,71,-1
 905 1239 l 2,72,73
 905 1212 905 1212 891.5 1197.5 c 128,-1,74
 878 1183 878 1183 854 1183 c 256,75,76
 830 1183 830 1183 816.5 1197.5 c 128,-1,77
 803 1212 803 1212 803 1239 c 2,78,-1
 803 1784 l 2,79,80
 803 1821 803 1821 816 1853.5 c 128,-1,81
 829 1886 829 1886 851 1910 c 128,-1,82
 873 1934 873 1934 902.5 1947.5 c 128,-1,83
 932 1961 932 1961 965 1961 c 256,84,85
 998 1961 998 1961 1028 1947 c 128,-1,86
 1058 1933 1058 1933 1080 1908.5 c 128,-1,87
 1102 1884 1102 1884 1115 1852 c 128,-1,88
 1128 1820 1128 1820 1128 1784 c 0,89,90
 1128 1758 1128 1758 1114 1743 c 128,-1,91
 1100 1728 1100 1728 1076 1728 c 0,60,61
1054 1459 m 0,92,93
 1021 1459 1021 1459 998.5 1484 c 128,-1,94
 976 1509 976 1509 976 1544 c 0,95,96
 976 1580 976 1580 999 1604.5 c 128,-1,97
 1022 1629 1022 1629 1054 1629 c 0,98,99
 1085 1629 1085 1629 1108 1604.5 c 128,-1,100
 1131 1580 1131 1580 1131 1544 c 0,101,102
 1131 1527 1131 1527 1125 1511.5 c 128,-1,103
 1119 1496 1119 1496 1108.5 1484.5 c 128,-1,104
 1098 1473 1098 1473 1084 1466 c 128,-1,105
 1070 1459 1070 1459 1054 1459 c 0,92,93
EndSplineSet
EndChar

StartChar: uniE932
Encoding: 59698 59698 132
Width: 1500
Flags: W
LayerCount: 2
Fore
SplineSet
1314 747 m 2,0,1
 1314 686 1314 686 1253 686 c 0,2,3
 1191 686 1191 686 1191 747 c 2,4,-1
 1191 992 l 2,5,6
 1191 1053 1191 1053 1253 1053 c 0,7,8
 1314 1053 1314 1053 1314 992 c 2,9,-1
 1314 747 l 2,0,1
366 747 m 2,10,11
 366 686 366 686 305 686 c 0,12,13
 243 686 243 686 243 747 c 2,14,-1
 243 992 l 2,15,16
 243 1053 243 1053 305 1053 c 0,17,18
 366 1053 366 1053 366 992 c 2,19,-1
 366 747 l 2,10,11
997 747 m 2,20,21
 997 686 997 686 936 686 c 0,22,23
 874 686 874 686 874 747 c 2,24,-1
 874 992 l 2,25,26
 874 1053 874 1053 936 1053 c 0,27,28
 997 1053 997 1053 997 992 c 2,29,-1
 997 747 l 2,20,21
681 747 m 2,30,31
 681 686 681 686 620 686 c 0,32,33
 558 686 558 686 558 747 c 2,34,-1
 558 992 l 2,35,36
 558 1053 558 1053 620 1053 c 0,37,38
 681 1053 681 1053 681 992 c 2,39,-1
 681 747 l 2,30,31
186 262 m 0,40,41
 186 324 186 324 248 324 c 0,42,43
 309 324 309 324 309 262 c 0,44,45
 309 221 309 221 325 185 c 128,-1,46
 341 149 341 149 368.5 121.5 c 128,-1,47
 396 94 396 94 433 78 c 128,-1,48
 470 62 470 62 512 62 c 0,49,50
 553 62 553 62 589.5 78.5 c 128,-1,51
 626 95 626 95 653.5 122.5 c 128,-1,52
 681 150 681 150 697 186 c 128,-1,53
 713 222 713 222 713 262 c 2,54,-1
 713 629 l 2,55,56
 713 690 713 690 774 690 c 0,57,58
 836 690 836 690 836 629 c 2,59,-1
 836 262 l 2,60,61
 836 196 836 196 810 137 c 128,-1,62
 784 78 784 78 740 34 c 128,-1,63
 696 -10 696 -10 637 -35.5 c 128,-1,64
 578 -61 578 -61 512 -61 c 0,65,66
 445 -61 445 -61 386 -35.5 c 128,-1,67
 327 -10 327 -10 282.5 33.5 c 128,-1,68
 238 77 238 77 212 136 c 128,-1,69
 186 195 186 195 186 262 c 0,40,41
750 1181 m 0,70,71
 689 1181 689 1181 689 1237 c 2,72,-1
 689 1904 l 2,73,74
 689 1930 689 1930 705.5 1944.5 c 128,-1,75
 722 1959 722 1959 750 1959 c 0,76,77
 777 1959 777 1959 793.5 1944.5 c 128,-1,78
 810 1930 810 1930 810 1904 c 2,79,-1
 810 1237 l 2,80,81
 810 1210 810 1210 794 1195.5 c 128,-1,82
 778 1181 778 1181 750 1181 c 0,70,71
EndSplineSet
EndChar

StartChar: uniE933
Encoding: 59699 59699 133
Width: 1500
Flags: W
LayerCount: 2
Fore
SplineSet
1314 747 m 2,0,1
 1314 686 1314 686 1253 686 c 0,2,3
 1191 686 1191 686 1191 747 c 2,4,-1
 1191 992 l 2,5,6
 1191 1053 1191 1053 1253 1053 c 0,7,8
 1314 1053 1314 1053 1314 992 c 2,9,-1
 1314 747 l 2,0,1
366 747 m 2,10,11
 366 686 366 686 305 686 c 0,12,13
 243 686 243 686 243 747 c 2,14,-1
 243 992 l 2,15,16
 243 1053 243 1053 305 1053 c 0,17,18
 366 1053 366 1053 366 992 c 2,19,-1
 366 747 l 2,10,11
997 747 m 2,20,21
 997 686 997 686 936 686 c 0,22,23
 874 686 874 686 874 747 c 2,24,-1
 874 992 l 2,25,26
 874 1053 874 1053 936 1053 c 0,27,28
 997 1053 997 1053 997 992 c 2,29,-1
 997 747 l 2,20,21
681 747 m 2,30,31
 681 686 681 686 620 686 c 0,32,33
 558 686 558 686 558 747 c 2,34,-1
 558 992 l 2,35,36
 558 1053 558 1053 620 1053 c 0,37,38
 681 1053 681 1053 681 992 c 2,39,-1
 681 747 l 2,30,31
186 262 m 0,40,41
 186 324 186 324 248 324 c 0,42,43
 309 324 309 324 309 262 c 0,44,45
 309 221 309 221 325 185 c 128,-1,46
 341 149 341 149 368.5 121.5 c 128,-1,47
 396 94 396 94 433 78 c 128,-1,48
 470 62 470 62 512 62 c 0,49,50
 553 62 553 62 589.5 78.5 c 128,-1,51
 626 95 626 95 653.5 122.5 c 128,-1,52
 681 150 681 150 697 186 c 128,-1,53
 713 222 713 222 713 262 c 2,54,-1
 713 629 l 2,55,56
 713 690 713 690 774 690 c 0,57,58
 836 690 836 690 836 629 c 2,59,-1
 836 262 l 2,60,61
 836 196 836 196 810 137 c 128,-1,62
 784 78 784 78 740 34 c 128,-1,63
 696 -10 696 -10 637 -35.5 c 128,-1,64
 578 -61 578 -61 512 -61 c 0,65,66
 445 -61 445 -61 386 -35.5 c 128,-1,67
 327 -10 327 -10 282.5 33.5 c 128,-1,68
 238 77 238 77 212 136 c 128,-1,69
 186 195 186 195 186 262 c 0,40,41
634 1289 m 1,70,-1
 1147 1289 l 2,71,72
 1174 1289 1174 1289 1189.5 1275 c 128,-1,73
 1205 1261 1205 1261 1205 1236 c 256,74,75
 1205 1211 1205 1211 1189 1197 c 128,-1,76
 1173 1183 1173 1183 1147 1183 c 2,77,-1
 356 1183 l 1,78,-1
 346 1183 l 2,79,80
 332 1183 332 1183 322 1188.5 c 128,-1,81
 312 1194 312 1194 305.5 1202 c 128,-1,82
 299 1210 299 1210 296 1219.5 c 128,-1,83
 293 1229 293 1229 293 1238 c 0,84,85
 293 1257 293 1257 304.5 1268.5 c 128,-1,86
 316 1280 316 1280 333 1287 c 2,87,-1
 1127 1595 l 2,88,89
 1132 1597 1132 1597 1138.5 1598 c 128,-1,90
 1145 1599 1145 1599 1152 1599 c 0,91,92
 1175 1599 1175 1599 1191 1582 c 128,-1,93
 1207 1565 1207 1565 1207 1543 c 0,94,95
 1207 1525 1207 1525 1195.5 1513.5 c 128,-1,96
 1184 1502 1184 1502 1170 1497 c 2,97,-1
 634 1289 l 1,70,-1
EndSplineSet
EndChar

StartChar: uniE934
Encoding: 59700 59700 134
Width: 1500
Flags: W
LayerCount: 2
Fore
SplineSet
1314 747 m 2,0,1
 1314 686 1314 686 1253 686 c 0,2,3
 1191 686 1191 686 1191 747 c 2,4,-1
 1191 992 l 2,5,6
 1191 1053 1191 1053 1253 1053 c 0,7,8
 1314 1053 1314 1053 1314 992 c 2,9,-1
 1314 747 l 2,0,1
366 747 m 2,10,11
 366 686 366 686 305 686 c 0,12,13
 243 686 243 686 243 747 c 2,14,-1
 243 992 l 2,15,16
 243 1053 243 1053 305 1053 c 0,17,18
 366 1053 366 1053 366 992 c 2,19,-1
 366 747 l 2,10,11
997 747 m 2,20,21
 997 686 997 686 936 686 c 0,22,23
 874 686 874 686 874 747 c 2,24,-1
 874 992 l 2,25,26
 874 1053 874 1053 936 1053 c 0,27,28
 997 1053 997 1053 997 992 c 2,29,-1
 997 747 l 2,20,21
681 747 m 2,30,31
 681 686 681 686 620 686 c 0,32,33
 558 686 558 686 558 747 c 2,34,-1
 558 992 l 2,35,36
 558 1053 558 1053 620 1053 c 0,37,38
 681 1053 681 1053 681 992 c 2,39,-1
 681 747 l 2,30,31
186 262 m 0,40,41
 186 324 186 324 248 324 c 0,42,43
 309 324 309 324 309 262 c 0,44,45
 309 221 309 221 325 185 c 128,-1,46
 341 149 341 149 368.5 121.5 c 128,-1,47
 396 94 396 94 433 78 c 128,-1,48
 470 62 470 62 512 62 c 0,49,50
 553 62 553 62 589.5 78.5 c 128,-1,51
 626 95 626 95 653.5 122.5 c 128,-1,52
 681 150 681 150 697 186 c 128,-1,53
 713 222 713 222 713 262 c 2,54,-1
 713 629 l 2,55,56
 713 690 713 690 774 690 c 0,57,58
 836 690 836 690 836 629 c 2,59,-1
 836 262 l 2,60,61
 836 196 836 196 810 137 c 128,-1,62
 784 78 784 78 740 34 c 128,-1,63
 696 -10 696 -10 637 -35.5 c 128,-1,64
 578 -61 578 -61 512 -61 c 0,65,66
 445 -61 445 -61 386 -35.5 c 128,-1,67
 327 -10 327 -10 282.5 33.5 c 128,-1,68
 238 77 238 77 212 136 c 128,-1,69
 186 195 186 195 186 262 c 0,40,41
893 1360 m 0,70,71
 805 1360 805 1360 750 1420 c 1,72,73
 693 1360 693 1360 606 1360 c 0,74,75
 562 1360 562 1360 520 1380 c 1,76,-1
 520 1238 l 2,77,78
 520 1212 520 1212 504.5 1198 c 128,-1,79
 489 1184 489 1184 464 1184 c 0,80,81
 438 1184 438 1184 423 1198 c 128,-1,82
 408 1212 408 1212 408 1238 c 2,83,-1
 408 1742 l 2,84,85
 408 1768 408 1768 423 1783 c 128,-1,86
 438 1798 438 1798 464 1798 c 256,87,88
 490 1798 490 1798 504 1782.5 c 128,-1,89
 518 1767 518 1767 519 1742 c 2,90,-1
 520 1546 l 2,91,92
 520 1531 520 1531 527 1517.5 c 128,-1,93
 534 1504 534 1504 546 1493.5 c 128,-1,94
 558 1483 558 1483 573.5 1477 c 128,-1,95
 589 1471 589 1471 606 1471 c 0,96,97
 642 1471 642 1471 667.5 1496.5 c 128,-1,98
 693 1522 693 1522 693 1558 c 2,99,-1
 693 1742 l 2,100,101
 693 1768 693 1768 708.5 1783 c 128,-1,102
 724 1798 724 1798 750 1798 c 256,103,104
 776 1798 776 1798 791 1783 c 128,-1,105
 806 1768 806 1768 806 1742 c 2,106,-1
 806 1558 l 2,107,108
 806 1521 806 1521 831 1496 c 128,-1,109
 856 1471 856 1471 893 1471 c 0,110,111
 910 1471 910 1471 925.5 1478 c 128,-1,112
 941 1485 941 1485 953 1497 c 128,-1,113
 965 1509 965 1509 972 1524.5 c 128,-1,114
 979 1540 979 1540 979 1558 c 2,115,-1
 979 1742 l 2,116,117
 979 1768 979 1768 994 1783 c 128,-1,118
 1009 1798 1009 1798 1035 1798 c 256,119,120
 1061 1798 1061 1798 1076.5 1783 c 128,-1,121
 1092 1768 1092 1768 1092 1742 c 2,122,-1
 1092 1558 l 2,123,124
 1092 1517 1092 1517 1076 1481 c 128,-1,125
 1060 1445 1060 1445 1032.5 1418 c 128,-1,126
 1005 1391 1005 1391 969 1375.5 c 128,-1,127
 933 1360 933 1360 893 1360 c 0,70,71
EndSplineSet
EndChar

StartChar: uniE935
Encoding: 59701 59701 135
Width: 1500
Flags: W
LayerCount: 2
Fore
SplineSet
1314 747 m 2,0,1
 1314 686 1314 686 1253 686 c 0,2,3
 1191 686 1191 686 1191 747 c 2,4,-1
 1191 992 l 2,5,6
 1191 1053 1191 1053 1253 1053 c 0,7,8
 1314 1053 1314 1053 1314 992 c 2,9,-1
 1314 747 l 2,0,1
366 747 m 2,10,11
 366 686 366 686 305 686 c 0,12,13
 243 686 243 686 243 747 c 2,14,-1
 243 992 l 2,15,16
 243 1053 243 1053 305 1053 c 0,17,18
 366 1053 366 1053 366 992 c 2,19,-1
 366 747 l 2,10,11
997 747 m 2,20,21
 997 686 997 686 936 686 c 0,22,23
 874 686 874 686 874 747 c 2,24,-1
 874 992 l 2,25,26
 874 1053 874 1053 936 1053 c 0,27,28
 997 1053 997 1053 997 992 c 2,29,-1
 997 747 l 2,20,21
681 747 m 2,30,31
 681 686 681 686 620 686 c 0,32,33
 558 686 558 686 558 747 c 2,34,-1
 558 992 l 2,35,36
 558 1053 558 1053 620 1053 c 0,37,38
 681 1053 681 1053 681 992 c 2,39,-1
 681 747 l 2,30,31
186 262 m 0,40,41
 186 324 186 324 248 324 c 0,42,43
 309 324 309 324 309 262 c 0,44,45
 309 221 309 221 325 185 c 128,-1,46
 341 149 341 149 368.5 121.5 c 128,-1,47
 396 94 396 94 433 78 c 128,-1,48
 470 62 470 62 512 62 c 0,49,50
 553 62 553 62 589.5 78.5 c 128,-1,51
 626 95 626 95 653.5 122.5 c 128,-1,52
 681 150 681 150 697 186 c 128,-1,53
 713 222 713 222 713 262 c 2,54,-1
 713 629 l 2,55,56
 713 690 713 690 774 690 c 0,57,58
 836 690 836 690 836 629 c 2,59,-1
 836 262 l 2,60,61
 836 196 836 196 810 137 c 128,-1,62
 784 78 784 78 740 34 c 128,-1,63
 696 -10 696 -10 637 -35.5 c 128,-1,64
 578 -61 578 -61 512 -61 c 0,65,66
 445 -61 445 -61 386 -35.5 c 128,-1,67
 327 -10 327 -10 282.5 33.5 c 128,-1,68
 238 77 238 77 212 136 c 128,-1,69
 186 195 186 195 186 262 c 0,40,41
778 1627 m 0,70,71
 742 1627 742 1627 716.5 1650.5 c 128,-1,72
 691 1674 691 1674 691 1710 c 0,73,74
 691 1745 691 1745 717 1768.5 c 128,-1,75
 743 1792 743 1792 778 1792 c 0,76,77
 814 1792 814 1792 838.5 1768.5 c 128,-1,78
 863 1745 863 1745 863 1710 c 256,79,80
 863 1675 863 1675 839.5 1651 c 128,-1,81
 816 1627 816 1627 778 1627 c 0,70,71
372 1180 m 2,82,83
 366 1178 366 1178 360.5 1176.5 c 128,-1,84
 355 1175 355 1175 347 1175 c 0,85,86
 324 1175 324 1175 308.5 1193 c 128,-1,87
 293 1211 293 1211 293 1234 c 0,88,89
 293 1253 293 1253 303.5 1264.5 c 128,-1,90
 314 1276 314 1276 329 1282 c 2,91,-1
 866 1499 l 1,92,-1
 352 1499 l 2,93,94
 317 1499 317 1499 305 1520 c 128,-1,95
 293 1541 293 1541 293 1565 c 2,96,-1
 293 1738 l 2,97,98
 293 1764 293 1764 309 1778 c 128,-1,99
 325 1792 325 1792 351 1792 c 256,100,101
 377 1792 377 1792 392.5 1778 c 128,-1,102
 408 1764 408 1764 408 1738 c 2,103,-1
 408 1609 l 1,104,-1
 1146 1609 l 1,105,-1
 1153 1609 l 2,106,107
 1181 1609 1181 1609 1194 1589.5 c 128,-1,108
 1207 1570 1207 1570 1207 1552 c 0,109,110
 1207 1532 1207 1532 1195.5 1519 c 128,-1,111
 1184 1506 1184 1506 1167 1501 c 2,112,-1
 372 1180 l 2,82,83
EndSplineSet
EndChar

StartChar: uniE936
Encoding: 59702 59702 136
Width: 1500
Flags: W
LayerCount: 2
Fore
SplineSet
1314 747 m 2,0,1
 1314 686 1314 686 1253 686 c 0,2,3
 1191 686 1191 686 1191 747 c 2,4,-1
 1191 992 l 2,5,6
 1191 1053 1191 1053 1253 1053 c 0,7,8
 1314 1053 1314 1053 1314 992 c 2,9,-1
 1314 747 l 2,0,1
366 747 m 2,10,11
 366 686 366 686 305 686 c 0,12,13
 243 686 243 686 243 747 c 2,14,-1
 243 992 l 2,15,16
 243 1053 243 1053 305 1053 c 0,17,18
 366 1053 366 1053 366 992 c 2,19,-1
 366 747 l 2,10,11
997 747 m 2,20,21
 997 686 997 686 936 686 c 0,22,23
 874 686 874 686 874 747 c 2,24,-1
 874 992 l 2,25,26
 874 1053 874 1053 936 1053 c 0,27,28
 997 1053 997 1053 997 992 c 2,29,-1
 997 747 l 2,20,21
681 747 m 2,30,31
 681 686 681 686 620 686 c 0,32,33
 558 686 558 686 558 747 c 2,34,-1
 558 992 l 2,35,36
 558 1053 558 1053 620 1053 c 0,37,38
 681 1053 681 1053 681 992 c 2,39,-1
 681 747 l 2,30,31
186 262 m 0,40,41
 186 324 186 324 248 324 c 0,42,43
 309 324 309 324 309 262 c 0,44,45
 309 221 309 221 325 185 c 128,-1,46
 341 149 341 149 368.5 121.5 c 128,-1,47
 396 94 396 94 433 78 c 128,-1,48
 470 62 470 62 512 62 c 0,49,50
 553 62 553 62 589.5 78.5 c 128,-1,51
 626 95 626 95 653.5 122.5 c 128,-1,52
 681 150 681 150 697 186 c 128,-1,53
 713 222 713 222 713 262 c 2,54,-1
 713 629 l 2,55,56
 713 690 713 690 774 690 c 0,57,58
 836 690 836 690 836 629 c 2,59,-1
 836 262 l 2,60,61
 836 196 836 196 810 137 c 128,-1,62
 784 78 784 78 740 34 c 128,-1,63
 696 -10 696 -10 637 -35.5 c 128,-1,64
 578 -61 578 -61 512 -61 c 0,65,66
 445 -61 445 -61 386 -35.5 c 128,-1,67
 327 -10 327 -10 282.5 33.5 c 128,-1,68
 238 77 238 77 212 136 c 128,-1,69
 186 195 186 195 186 262 c 0,40,41
749 1178 m 0,70,71
 707 1178 707 1178 669.5 1195 c 128,-1,72
 632 1212 632 1212 604.5 1241 c 128,-1,73
 577 1270 577 1270 561 1309.5 c 128,-1,74
 545 1349 545 1349 545 1394 c 0,75,76
 545 1490 545 1490 611 1555 c 1,77,78
 577 1587 577 1587 561 1628 c 128,-1,79
 545 1669 545 1669 545 1717 c 0,80,81
 545 1762 545 1762 561 1801.5 c 128,-1,82
 577 1841 577 1841 605 1870.5 c 128,-1,83
 633 1900 633 1900 670 1917 c 128,-1,84
 707 1934 707 1934 749 1934 c 256,85,86
 791 1934 791 1934 828.5 1916.5 c 128,-1,87
 866 1899 866 1899 894 1869.5 c 128,-1,88
 922 1840 922 1840 938 1800.5 c 128,-1,89
 954 1761 954 1761 954 1717 c 0,90,91
 954 1620 954 1620 887 1555 c 1,92,93
 954 1491 954 1491 954 1394 c 0,94,95
 954 1349 954 1349 938 1310 c 128,-1,96
 922 1271 922 1271 894 1241.5 c 128,-1,97
 866 1212 866 1212 829 1195 c 128,-1,98
 792 1178 792 1178 749 1178 c 0,70,71
751 1821 m 0,99,100
 731 1821 731 1821 713.5 1812.5 c 128,-1,101
 696 1804 696 1804 682.5 1790 c 128,-1,102
 669 1776 669 1776 661 1757 c 128,-1,103
 653 1738 653 1738 653 1717 c 256,104,105
 653 1696 653 1696 660 1676.5 c 128,-1,106
 667 1657 667 1657 679 1643 c 128,-1,107
 691 1629 691 1629 707.5 1620.5 c 128,-1,108
 724 1612 724 1612 742 1612 c 2,109,-1
 749 1612 l 1,110,-1
 759 1612 l 2,111,112
 777 1612 777 1612 793.5 1620.5 c 128,-1,113
 810 1629 810 1629 822.5 1643 c 128,-1,114
 835 1657 835 1657 842.5 1676.5 c 128,-1,115
 850 1696 850 1696 850 1717 c 256,116,117
 850 1738 850 1738 842.5 1757 c 128,-1,118
 835 1776 835 1776 821.5 1790 c 128,-1,119
 808 1804 808 1804 790 1812.5 c 128,-1,120
 772 1821 772 1821 751 1821 c 0,99,100
749 1499 m 1,121,-1
 742 1499 l 2,122,123
 724 1499 724 1499 707.5 1490.5 c 128,-1,124
 691 1482 691 1482 679 1468 c 128,-1,125
 667 1454 667 1454 660 1434.5 c 128,-1,126
 653 1415 653 1415 653 1394 c 256,127,128
 653 1373 653 1373 661 1354 c 128,-1,129
 669 1335 669 1335 682.5 1321 c 128,-1,130
 696 1307 696 1307 713.5 1298.5 c 128,-1,131
 731 1290 731 1290 751 1290 c 256,132,133
 771 1290 771 1290 789 1298.5 c 128,-1,134
 807 1307 807 1307 820.5 1321 c 128,-1,135
 834 1335 834 1335 842 1354 c 128,-1,136
 850 1373 850 1373 850 1394 c 256,137,138
 850 1415 850 1415 842.5 1434.5 c 128,-1,139
 835 1454 835 1454 822.5 1468 c 128,-1,140
 810 1482 810 1482 793.5 1490.5 c 128,-1,141
 777 1499 777 1499 759 1499 c 2,142,-1
 749 1499 l 1,121,-1
EndSplineSet
EndChar

StartChar: uniE937
Encoding: 59703 59703 137
Width: 1500
Flags: W
LayerCount: 2
Fore
SplineSet
1314 747 m 2,0,1
 1314 686 1314 686 1253 686 c 0,2,3
 1191 686 1191 686 1191 747 c 2,4,-1
 1191 992 l 2,5,6
 1191 1053 1191 1053 1253 1053 c 0,7,8
 1314 1053 1314 1053 1314 992 c 2,9,-1
 1314 747 l 2,0,1
366 747 m 2,10,11
 366 686 366 686 305 686 c 0,12,13
 243 686 243 686 243 747 c 2,14,-1
 243 992 l 2,15,16
 243 1053 243 1053 305 1053 c 0,17,18
 366 1053 366 1053 366 992 c 2,19,-1
 366 747 l 2,10,11
997 747 m 2,20,21
 997 686 997 686 936 686 c 0,22,23
 874 686 874 686 874 747 c 2,24,-1
 874 992 l 2,25,26
 874 1053 874 1053 936 1053 c 0,27,28
 997 1053 997 1053 997 992 c 2,29,-1
 997 747 l 2,20,21
681 747 m 2,30,31
 681 686 681 686 620 686 c 0,32,33
 558 686 558 686 558 747 c 2,34,-1
 558 992 l 2,35,36
 558 1053 558 1053 620 1053 c 0,37,38
 681 1053 681 1053 681 992 c 2,39,-1
 681 747 l 2,30,31
186 262 m 0,40,41
 186 324 186 324 248 324 c 0,42,43
 309 324 309 324 309 262 c 0,44,45
 309 221 309 221 325 185 c 128,-1,46
 341 149 341 149 368.5 121.5 c 128,-1,47
 396 94 396 94 433 78 c 128,-1,48
 470 62 470 62 512 62 c 0,49,50
 553 62 553 62 589.5 78.5 c 128,-1,51
 626 95 626 95 653.5 122.5 c 128,-1,52
 681 150 681 150 697 186 c 128,-1,53
 713 222 713 222 713 262 c 2,54,-1
 713 629 l 2,55,56
 713 690 713 690 774 690 c 0,57,58
 836 690 836 690 836 629 c 2,59,-1
 836 262 l 2,60,61
 836 196 836 196 810 137 c 128,-1,62
 784 78 784 78 740 34 c 128,-1,63
 696 -10 696 -10 637 -35.5 c 128,-1,64
 578 -61 578 -61 512 -61 c 0,65,66
 445 -61 445 -61 386 -35.5 c 128,-1,67
 327 -10 327 -10 282.5 33.5 c 128,-1,68
 238 77 238 77 212 136 c 128,-1,69
 186 195 186 195 186 262 c 0,40,41
805 1183 m 0,70,71
 763 1183 763 1183 723.5 1200.5 c 128,-1,72
 684 1218 684 1218 654 1248.5 c 128,-1,73
 624 1279 624 1279 606 1319 c 128,-1,74
 588 1359 588 1359 588 1404 c 0,75,76
 588 1450 588 1450 603.5 1491 c 128,-1,77
 619 1532 619 1532 647.5 1562.5 c 128,-1,78
 676 1593 676 1593 714.5 1610.5 c 128,-1,79
 753 1628 753 1628 800 1628 c 0,80,81
 825 1628 825 1628 849 1622 c 1,82,83
 800 1694 800 1694 715.5 1752.5 c 128,-1,84
 631 1811 631 1811 519 1849 c 0,85,86
 502 1854 502 1854 491.5 1867 c 128,-1,87
 481 1880 481 1880 481 1901 c 0,88,89
 481 1926 481 1926 494.5 1942.5 c 128,-1,90
 508 1959 508 1959 534 1959 c 0,91,92
 547 1959 547 1959 553 1956 c 0,93,94
 658 1920 658 1920 744 1866.5 c 128,-1,95
 830 1813 830 1813 891 1746 c 128,-1,96
 952 1679 952 1679 985 1599 c 128,-1,97
 1018 1519 1018 1519 1018 1431 c 0,98,99
 1018 1384 1018 1384 1001.5 1339.5 c 128,-1,100
 985 1295 985 1295 956.5 1260 c 128,-1,101
 928 1225 928 1225 889 1204 c 128,-1,102
 850 1183 850 1183 805 1183 c 0,70,71
800 1515 m 0,103,104
 754 1515 754 1515 725.5 1485 c 128,-1,105
 697 1455 697 1455 697 1404 c 0,106,107
 697 1383 697 1383 706.5 1363 c 128,-1,108
 716 1343 716 1343 731.5 1328 c 128,-1,109
 747 1313 747 1313 766 1304 c 128,-1,110
 785 1295 785 1295 805 1295 c 0,111,112
 823 1295 823 1295 841.5 1305.5 c 128,-1,113
 860 1316 860 1316 875 1334 c 128,-1,114
 890 1352 890 1352 899.5 1376.5 c 128,-1,115
 909 1401 909 1401 910 1428 c 1,116,117
 905 1444 905 1444 893.5 1460 c 128,-1,118
 882 1476 882 1476 866.5 1488 c 128,-1,119
 851 1500 851 1500 833.5 1507.5 c 128,-1,120
 816 1515 816 1515 800 1515 c 0,103,104
EndSplineSet
EndChar

StartChar: uniE938
Encoding: 59704 59704 138
Width: 1500
Flags: W
LayerCount: 2
Fore
SplineSet
1314 747 m 2,0,1
 1314 686 1314 686 1253 686 c 0,2,3
 1191 686 1191 686 1191 747 c 2,4,-1
 1191 992 l 2,5,6
 1191 1053 1191 1053 1253 1053 c 0,7,8
 1314 1053 1314 1053 1314 992 c 2,9,-1
 1314 747 l 2,0,1
366 747 m 2,10,11
 366 686 366 686 305 686 c 0,12,13
 243 686 243 686 243 747 c 2,14,-1
 243 992 l 2,15,16
 243 1053 243 1053 305 1053 c 0,17,18
 366 1053 366 1053 366 992 c 2,19,-1
 366 747 l 2,10,11
997 747 m 2,20,21
 997 686 997 686 936 686 c 0,22,23
 874 686 874 686 874 747 c 2,24,-1
 874 992 l 2,25,26
 874 1053 874 1053 936 1053 c 0,27,28
 997 1053 997 1053 997 992 c 2,29,-1
 997 747 l 2,20,21
681 747 m 2,30,31
 681 686 681 686 620 686 c 0,32,33
 558 686 558 686 558 747 c 2,34,-1
 558 992 l 2,35,36
 558 1053 558 1053 620 1053 c 0,37,38
 681 1053 681 1053 681 992 c 2,39,-1
 681 747 l 2,30,31
186 262 m 0,40,41
 186 324 186 324 248 324 c 0,42,43
 309 324 309 324 309 262 c 0,44,45
 309 221 309 221 325 185 c 128,-1,46
 341 149 341 149 368.5 121.5 c 128,-1,47
 396 94 396 94 433 78 c 128,-1,48
 470 62 470 62 512 62 c 0,49,50
 553 62 553 62 589.5 78.5 c 128,-1,51
 626 95 626 95 653.5 122.5 c 128,-1,52
 681 150 681 150 697 186 c 128,-1,53
 713 222 713 222 713 262 c 2,54,-1
 713 629 l 2,55,56
 713 690 713 690 774 690 c 0,57,58
 836 690 836 690 836 629 c 2,59,-1
 836 262 l 2,60,61
 836 196 836 196 810 137 c 128,-1,62
 784 78 784 78 740 34 c 128,-1,63
 696 -10 696 -10 637 -35.5 c 128,-1,64
 578 -61 578 -61 512 -61 c 0,65,66
 445 -61 445 -61 386 -35.5 c 128,-1,67
 327 -10 327 -10 282.5 33.5 c 128,-1,68
 238 77 238 77 212 136 c 128,-1,69
 186 195 186 195 186 262 c 0,40,41
805 1183 m 0,70,71
 763 1183 763 1183 723.5 1201 c 128,-1,72
 684 1219 684 1219 654 1249 c 128,-1,73
 624 1279 624 1279 606 1319.5 c 128,-1,74
 588 1360 588 1360 588 1405 c 0,75,76
 588 1451 588 1451 603.5 1492 c 128,-1,77
 619 1533 619 1533 647.5 1563.5 c 128,-1,78
 676 1594 676 1594 714.5 1611.5 c 128,-1,79
 753 1629 753 1629 800 1629 c 0,80,81
 826 1629 826 1629 850 1623 c 1,82,83
 829 1655 829 1655 801 1684.5 c 128,-1,84
 773 1714 773 1714 735 1740 c 1,85,-1
 617 1636 l 2,86,87
 609 1630 609 1630 600.5 1626 c 128,-1,88
 592 1622 592 1622 581 1622 c 0,89,90
 558 1622 558 1622 542.5 1639 c 128,-1,91
 527 1656 527 1656 526 1678 c 0,92,93
 524 1694 524 1694 531 1704 c 128,-1,94
 538 1714 538 1714 545 1721 c 2,95,-1
 634 1802 l 1,96,97
 607 1816 607 1816 578 1828 c 128,-1,98
 549 1840 549 1840 519 1851 c 0,99,100
 502 1856 502 1856 491.5 1869 c 128,-1,101
 481 1882 481 1882 481 1903 c 0,102,103
 481 1928 481 1928 494.5 1945 c 128,-1,104
 508 1962 508 1962 534 1962 c 0,105,106
 546 1962 546 1962 553 1958 c 0,107,108
 647 1926 647 1926 721 1882 c 1,109,-1
 822 1974 l 2,110,111
 829 1980 829 1980 837.5 1984 c 128,-1,112
 846 1988 846 1988 857 1988 c 0,113,114
 880 1988 880 1988 896.5 1971 c 128,-1,115
 913 1954 913 1954 913 1931 c 0,116,117
 913 1916 913 1916 907 1906 c 128,-1,118
 901 1896 901 1896 893 1889 c 2,119,-1
 816 1819 l 1,120,121
 1018 1659 1018 1659 1018 1432 c 0,122,123
 1018 1384 1018 1384 1001.5 1339.5 c 128,-1,124
 985 1295 985 1295 956.5 1260 c 128,-1,125
 928 1225 928 1225 889 1204 c 128,-1,126
 850 1183 850 1183 805 1183 c 0,70,71
800 1516 m 0,127,128
 754 1516 754 1516 725.5 1486 c 128,-1,129
 697 1456 697 1456 697 1405 c 0,130,131
 697 1384 697 1384 706.5 1364 c 128,-1,132
 716 1344 716 1344 731.5 1328.5 c 128,-1,133
 747 1313 747 1313 766 1304 c 128,-1,134
 785 1295 785 1295 805 1295 c 0,135,136
 823 1295 823 1295 841.5 1305.5 c 128,-1,137
 860 1316 860 1316 875 1334 c 128,-1,138
 890 1352 890 1352 899.5 1376.5 c 128,-1,139
 909 1401 909 1401 910 1429 c 1,140,141
 905 1445 905 1445 893.5 1461 c 128,-1,142
 882 1477 882 1477 866.5 1489 c 128,-1,143
 851 1501 851 1501 833.5 1508.5 c 128,-1,144
 816 1516 816 1516 800 1516 c 0,127,128
EndSplineSet
EndChar

StartChar: uniE939
Encoding: 59705 59705 139
Width: 1500
Flags: W
LayerCount: 2
Fore
SplineSet
623 1599 m 256,0,1
 588 1599 588 1599 564 1623.5 c 128,-1,2
 540 1648 540 1648 540 1684 c 0,3,4
 540 1719 540 1719 564 1743.5 c 128,-1,5
 588 1768 588 1768 623 1768 c 256,6,7
 658 1768 658 1768 682 1743.5 c 128,-1,8
 706 1719 706 1719 706 1684 c 0,9,10
 706 1648 706 1648 682 1623.5 c 128,-1,11
 658 1599 658 1599 623 1599 c 256,0,1
710 1179 m 0,12,13
 658 1179 658 1179 607.5 1195.5 c 128,-1,14
 557 1212 557 1212 517 1241.5 c 128,-1,15
 477 1271 477 1271 452 1312.5 c 128,-1,16
 427 1354 427 1354 427 1404 c 0,17,18
 427 1442 427 1442 446 1472 c 128,-1,19
 465 1502 465 1502 495 1522.5 c 128,-1,20
 525 1543 525 1543 562 1554 c 128,-1,21
 599 1565 599 1565 636 1565 c 0,22,23
 675 1565 675 1565 715.5 1554 c 128,-1,24
 756 1543 756 1543 790.5 1522.5 c 128,-1,25
 825 1502 825 1502 849 1472 c 128,-1,26
 873 1442 873 1442 878 1404 c 2,27,-1
 879 1397 l 2,28,29
 880 1394 880 1394 880 1388 c 0,30,31
 880 1362 880 1362 864 1347.5 c 128,-1,32
 848 1333 848 1333 824 1333 c 0,33,34
 805 1333 805 1333 791 1342.5 c 128,-1,35
 777 1352 777 1352 771 1372 c 0,36,37
 766 1388 766 1388 753.5 1402.5 c 128,-1,38
 741 1417 741 1417 722.5 1428 c 128,-1,39
 704 1439 704 1439 682 1445.5 c 128,-1,40
 660 1452 660 1452 636 1452 c 0,41,42
 613 1452 613 1452 595 1446.5 c 128,-1,43
 577 1441 577 1441 564 1433.5 c 128,-1,44
 551 1426 551 1426 544.5 1417.5 c 128,-1,45
 538 1409 538 1409 538 1404 c 0,46,47
 538 1384 538 1384 551.5 1364 c 128,-1,48
 565 1344 565 1344 588.5 1327.5 c 128,-1,49
 612 1311 612 1311 643 1301 c 128,-1,50
 674 1291 674 1291 710 1291 c 0,51,52
 765 1291 765 1291 811 1309.5 c 128,-1,53
 857 1328 857 1328 890.5 1361 c 128,-1,54
 924 1394 924 1394 942.5 1440 c 128,-1,55
 961 1486 961 1486 961 1541 c 0,56,57
 961 1700 961 1700 898.5 1772.5 c 128,-1,58
 836 1845 836 1845 710 1845 c 0,59,60
 693 1845 693 1845 671 1838 c 128,-1,61
 649 1831 649 1831 626.5 1820 c 128,-1,62
 604 1809 604 1809 584.5 1796 c 128,-1,63
 565 1783 565 1783 555 1770 c 0,64,65
 548 1762 548 1762 538.5 1755.5 c 128,-1,66
 529 1749 529 1749 514 1749 c 0,67,68
 491 1749 491 1749 474 1766 c 128,-1,69
 457 1783 457 1783 457 1806 c 0,70,71
 457 1817 457 1817 468.5 1833 c 128,-1,72
 480 1849 480 1849 498 1865.5 c 128,-1,73
 516 1882 516 1882 537.5 1897.5 c 128,-1,74
 559 1913 559 1913 580 1923 c 0,75,76
 614 1940 614 1940 646 1948.5 c 128,-1,77
 678 1957 678 1957 710 1957 c 0,78,79
 799 1957 799 1957 867 1928.5 c 128,-1,80
 935 1900 935 1900 980.5 1846.5 c 128,-1,81
 1026 1793 1026 1793 1049 1715.5 c 128,-1,82
 1072 1638 1072 1638 1072 1541 c 0,83,84
 1072 1463 1072 1463 1044.5 1396.5 c 128,-1,85
 1017 1330 1017 1330 969 1281.5 c 128,-1,86
 921 1233 921 1233 854.5 1206 c 128,-1,87
 788 1179 788 1179 710 1179 c 0,12,13
186 262 m 0,88,89
 186 324 186 324 248 324 c 0,90,91
 309 324 309 324 309 262 c 0,92,93
 309 221 309 221 325 185 c 128,-1,94
 341 149 341 149 368.5 121.5 c 128,-1,95
 396 94 396 94 433 78 c 128,-1,96
 470 62 470 62 512 62 c 0,97,98
 553 62 553 62 589.5 78.5 c 128,-1,99
 626 95 626 95 653.5 122.5 c 128,-1,100
 681 150 681 150 697 186 c 128,-1,101
 713 222 713 222 713 262 c 2,102,-1
 713 629 l 2,103,104
 713 690 713 690 774 690 c 0,105,106
 836 690 836 690 836 629 c 2,107,-1
 836 262 l 2,108,109
 836 196 836 196 810 137 c 128,-1,110
 784 78 784 78 740 34 c 128,-1,111
 696 -10 696 -10 637 -35.5 c 128,-1,112
 578 -61 578 -61 512 -61 c 0,113,114
 445 -61 445 -61 386 -35.5 c 128,-1,115
 327 -10 327 -10 282.5 33.5 c 128,-1,116
 238 77 238 77 212 136 c 128,-1,117
 186 195 186 195 186 262 c 0,88,89
681 747 m 2,118,119
 681 686 681 686 620 686 c 0,120,121
 558 686 558 686 558 747 c 2,122,-1
 558 992 l 2,123,124
 558 1053 558 1053 620 1053 c 0,125,126
 681 1053 681 1053 681 992 c 2,127,-1
 681 747 l 2,118,119
997 747 m 2,128,129
 997 686 997 686 936 686 c 0,130,131
 874 686 874 686 874 747 c 2,132,-1
 874 992 l 2,133,134
 874 1053 874 1053 936 1053 c 0,135,136
 997 1053 997 1053 997 992 c 2,137,-1
 997 747 l 2,128,129
366 747 m 2,138,139
 366 686 366 686 305 686 c 0,140,141
 243 686 243 686 243 747 c 2,142,-1
 243 992 l 2,143,144
 243 1053 243 1053 305 1053 c 0,145,146
 366 1053 366 1053 366 992 c 2,147,-1
 366 747 l 2,138,139
1314 747 m 2,148,149
 1314 686 1314 686 1253 686 c 0,150,151
 1191 686 1191 686 1191 747 c 2,152,-1
 1191 992 l 2,153,154
 1191 1053 1191 1053 1253 1053 c 0,155,156
 1314 1053 1314 1053 1314 992 c 2,157,-1
 1314 747 l 2,148,149
EndSplineSet
EndChar

